<svg xmlns="http://www.w3.org/2000/svg" width="61.016" height="76.892" viewBox="0 0 61.016 76.892">
  <g id="Grupo_1004" data-name="Grupo 1004" transform="translate(-30.25 -21.946)">
    <g id="Grupo_824" data-name="Grupo 824" transform="translate(30.25 21.946)">
      <g id="Grupo_826" data-name="Grupo 826" transform="translate(0 0)">
        <path id="Trazado_738" data-name="Trazado 738" d="M642.879,254.027c-1.217-2.195-2.623-4.342-3.982-6.419-.677-1.034-1.352-2.069-2.011-3.113-.5-.794-.982-1.6-1.473-2.415l-.952-1.579.691-.221a2.139,2.139,0,0,1,.339-.1c3.045-.487,4.084-3,4.042-5.192-.049-2.554-.038-5.149-.028-7.659,0-1.214.009-2.429.008-3.644,0-1.262-.513-1.269-.731-1.272h-.011c-.6,0-.744.682-.757,1.256,0,.154,0,.31,0,.466l0,3.5c0,2.539.006,5.079-.009,7.617-.013,2.175-1.028,3.278-3.191,3.473a1.285,1.285,0,0,1-1.506-.94,24.973,24.973,0,0,1-1.265-13.738,2.121,2.121,0,0,0-.009-1.394c-.049-.072-.148-.174-.451-.23-.214-.04-.706-.13-.983,1.322a26.587,26.587,0,0,0,3.018,18.195c.805,1.467,1.7,2.867,2.64,4.351.434.682.874,1.374,1.314,2.084l.276.448-3.1.841c-2.062.562-4.1,1.118-6.152,1.644-.912.234-1.845.426-2.747.611-.636.13-1.27.261-1.9.407a.641.641,0,0,0-.568.863c.061.3.2.6.82.558a3.694,3.694,0,0,0,.616-.087L627,253.1c3.574-.934,7.149-1.87,10.713-2.835a1.231,1.231,0,0,1,1.642.624c.625,1.175,1.26,2.346,1.894,3.517q.791,1.459,1.577,2.921a2.926,2.926,0,0,1,.234.655l.166.525-2.007.451c-4.958,1.1-9.643,2.147-13.934,4.691-4.819,2.855-8.1,7.228-11.323,11.837l-.354.507-.306-.536c-5.786-10.1-14.592-15.525-26.92-16.575l-.589-.05,1.471-2.8c.925-1.764,1.806-3.442,2.693-5.117a1.4,1.4,0,0,1,1.864-.628l1.563.467c2.464.739,5.013,1.5,7.55,2.1,4.5,1.049,10.091,2.353,15.63,1.712.889-.1,1.027-.327,1-.79s-.213-.7-1.078-.67c-.326.014-.654.037-.982.06a13.473,13.473,0,0,1-2.748,0c-4.369-.6-8.3-1.167-12.219-1.939-1.967-.388-3.923-.961-5.816-1.514-.853-.25-1.707-.5-2.565-.734l-.393-.108.183-.593a.894.894,0,0,1,.1-.259l.361-.553c.35-.539.7-1.076,1.065-1.6,3.988-5.757,5.9-11.418,5.835-17.309a30.175,30.175,0,0,0-.424-4.1c-.067-.449-.134-.9-.194-1.346a.835.835,0,0,0-.279-.561.669.669,0,0,0-.517-.1c-.315.046-.726.192-.651.927a4.59,4.59,0,0,0,.092.5l.052.236a24.268,24.268,0,0,1-1.34,13.816,1.5,1.5,0,0,1-1.228.794h0a3.109,3.109,0,0,1-3.374-3.315c-.018-.576-.015-4.126-.013-7.256,0-2.065,0-3.86,0-4.246-.013-.986-.553-.958-.753-.962s-.735.021-.738.934v.393c-.021,8.666,0,11.027.017,11.481a4.354,4.354,0,0,0,2.205,3.772,7.772,7.772,0,0,0,1.49.617c.269.09.545.184.825.292l.427.164-.4.709c-.126.225-.248.443-.381.655-.758,1.208-1.536,2.4-2.315,3.6-1.659,2.548-3.375,5.183-4.842,7.884-4.451,8.188-4.942,16.552-1.458,24.857,1.81,4.318,3.925,8.6,5.969,12.739.827,1.675,1.654,3.35,2.465,5.033a29.072,29.072,0,0,0,1.45,2.548l.154.252c.4.653.862.414,1.012.333.278-.145.527-.383.263-1.044a2.576,2.576,0,0,0-.175-.339c-.045-.079-.091-.158-.132-.239q-1.05-2.048-2.116-4.089c-1.609-3.1-3.274-6.3-4.809-9.5-1.935-4.038-4.344-9.063-4.71-14.554a25.17,25.17,0,0,1,.816-9.085l.1-.351.358.079c.564.125,1.123.241,1.681.358,1.2.251,2.447.51,3.65.836l1.123.3a32.134,32.134,0,0,1,8.449,3.12c4.313,2.573,7.813,6.29,11.352,12.048a4.317,4.317,0,0,1,.592,2.142c.03,4.818.027,9.636.026,14.454l0,4.274c0,.327.008.653.018.979a.76.76,0,0,0,.232.57.444.444,0,0,0,.371.09c.307-.052.718-.572.916-.823a2.953,2.953,0,0,0-.018-.324c-.01-.1-.019-.209-.019-.3,0-1.572.014-3.145.027-4.718.031-3.745.063-7.617-.085-11.413a11.613,11.613,0,0,1,2.52-7.908c2.7-3.528,6.122-7.463,10.986-9.9a36.042,36.042,0,0,1,8.263-2.607c.549-.125,1.1-.251,1.645-.382.793-.188,1.6-.333,2.385-.473.359-.064.717-.129,1.074-.2l.346-.066.2.651c.059.183.1.315.131.451a26.6,26.6,0,0,1-1.326,16.166,143.8,143.8,0,0,1-9.167,19.146c-.089.15-.185.3-.281.447a3.866,3.866,0,0,0-.593,1.177,1.283,1.283,0,0,0,.29,1.007,3.427,3.427,0,0,0,.966-.27.9.9,0,0,0,.185-.3l.082-.172q1.135-2.251,2.279-4.495c1.971-3.876,4.009-7.884,5.925-11.866a43,43,0,0,0,2.71-7.14A26.922,26.922,0,0,0,642.879,254.027Z" transform="translate(-585.214 -222.413)" fill="#fff"/>
        <path id="Trazado_739" data-name="Trazado 739" d="M609.352,238.01c.666,0,1.722,0,2.718,0h2.181l-1.243,1.17c-.281.267-.5.472-.719.673-.562.514-.364.881-.165,1.113a.726.726,0,0,0,.486.291.96.96,0,0,0,.691-.319l.436-.39c.959-.858,1.917-1.716,2.858-2.592a.783.783,0,0,0,0-1.372c-.736-.695-1.488-1.37-2.24-2.047l-1.047-.944a1,1,0,0,0-.693-.329.726.726,0,0,0-.488.281c-.238.268-.4.618.21,1.184.235.218.467.437.761.714l1.17,1.1-2.2,0c-1.006,0-2.062.005-2.729,0a1.048,1.048,0,0,0-.756.2.693.693,0,0,0-.164.518C608.42,237.631,608.531,238,609.352,238.01Z" transform="translate(-590.229 -224.758)" fill="#fff"/>
        <path id="Trazado_740" data-name="Trazado 740" d="M632.56,240.836l.135.12a1.029,1.029,0,0,0,.675.3.734.734,0,0,0,.5-.3c.122-.147.448-.541-.186-1.118l-2.016-1.822h2.209c.984,0,2.012,0,2.654,0,1.021,0,1.034-.5,1.036-.747a.685.685,0,0,0-.161-.52,1.127,1.127,0,0,0-.841-.208c-.652.019-1.694.014-2.684.009l-2.161,0,1.953-1.854c.584-.551.4-.905.147-1.18a.668.668,0,0,0-.489-.256.968.968,0,0,0-.626.3c-1.1.982-2.232,2-3.343,3.056a1.055,1.055,0,0,0-.408.658,1,1,0,0,0,.392.633C630.393,238.9,631.494,239.885,632.56,240.836Z" transform="translate(-594.666 -224.757)" fill="#fff"/>
        <path id="Trazado_741" data-name="Trazado 741" d="M642.706,312.84l-.071.042a1.341,1.341,0,0,0-.41.31l-.122.171a6.983,6.983,0,0,0-1.014,1.747,1.34,1.34,0,0,0,.288,1.025.4.4,0,0,0,.336.143.737.737,0,0,0,.511-.333,13.871,13.871,0,0,0,1.269-2.127.618.618,0,0,0-.024-.623A.925.925,0,0,0,642.706,312.84Z" transform="translate(-597.284 -241.955)" fill="#fff"/>
        <path id="Trazado_742" data-name="Trazado 742" d="M654.071,286.4a.654.654,0,0,0,.862-.568c.113-.525.2-1.056.269-1.5l.074-.444c.044-.988-.271-1.1-.627-1.132-.045,0-.089-.007-.133-.007-.31,0-.606.126-.691.745-.042.3-.094.6-.147.9-.065.374-.131.747-.173,1.124C653.427,286.206,653.79,286.351,654.071,286.4Z" transform="translate(-599.97 -235.453)" fill="#fff"/>
        <path id="Trazado_743" data-name="Trazado 743" d="M601.4,308.873a.651.651,0,0,0,.589.333.666.666,0,0,0,.565-.331c.319-.519.113-.883-.28-1.483a4.756,4.756,0,0,1-.383-.657,3.3,3.3,0,0,0-.662-.865c-.05-.052-.1-.1-.141-.149a1.084,1.084,0,0,0-.818.4.487.487,0,0,0-.046.471A13.2,13.2,0,0,0,601.4,308.873Z" transform="translate(-588.449 -240.417)" fill="#fff"/>
        <path id="Trazado_744" data-name="Trazado 744" d="M593.84,277.483c.081-.617.157-1.235.224-1.854.076-.7-.229-.857-.539-.917a.655.655,0,0,0-.885.543c-.113.5-.191,1.018-.252,1.42l-.06.381c-.04,1.13.292,1.257.667,1.293S593.734,278.305,593.84,277.483Z" transform="translate(-586.751 -233.71)" fill="#fff"/>
        <path id="Trazado_745" data-name="Trazado 745" d="M653.877,276.141c.058.39.116.78.151,1.172a1.351,1.351,0,0,0,.311.923.7.7,0,0,0,.539.113c.454-.042.7-.232.691-1.111-.031-.2-.059-.4-.086-.608a11.887,11.887,0,0,0-.241-1.373c-.1-.383-.316-.576-.644-.576a1.07,1.07,0,0,0-.248.031c-.3.072-.641.241-.548.916Z" transform="translate(-600.034 -233.709)" fill="#fff"/>
        <path id="Trazado_746" data-name="Trazado 746" d="M595.842,294.213c.09-.016.3-.268.419-.4.049-.056.1-.113.144-.167-.082-.248-.157-.488-.23-.721a12.336,12.336,0,0,0-.727-1.939,1.211,1.211,0,0,0-.646-.228.244.244,0,0,0-.067.008,1.153,1.153,0,0,0-.471.806,6.469,6.469,0,0,0,.691,2.28A1.24,1.24,0,0,0,595.842,294.213Z" transform="translate(-587.169 -237.182)" fill="#fff"/>
        <path id="Trazado_747" data-name="Trazado 747" d="M598.173,301.732l.121.125a1.065,1.065,0,0,0,.774-.382.585.585,0,0,0,.064-.541,15.146,15.146,0,0,0-.934-2.2.789.789,0,0,0-.613-.44l-.056,0a.589.589,0,0,0-.476.241c-.43.555-.227.979.169,1.682a5.136,5.136,0,0,1,.368.742A2.507,2.507,0,0,0,598.173,301.732Z" transform="translate(-587.72 -238.811)" fill="#fff"/>
        <path id="Trazado_748" data-name="Trazado 748" d="M645.036,308.315a.976.976,0,0,0,.266.713,1.162,1.162,0,0,0,.728.06,22.518,22.518,0,0,0,1.23-1.968c.117-.2.236-.407.359-.615-.057-.073-.113-.147-.165-.217-.123-.165-.309-.413-.394-.431a.7.7,0,0,0-.151-.015,1.128,1.128,0,0,0-.72.236A8.3,8.3,0,0,0,645.036,308.315Z" transform="translate(-598.14 -240.443)" fill="#fff"/>
        <path id="Trazado_749" data-name="Trazado 749" d="M604.386,312.987a1.4,1.4,0,0,0-.315.411c-.045.072-.093.148-.143.225.13.193.257.385.383.575.473.711.919,1.384,1.424,2.006a1.414,1.414,0,0,0,.538-.087,1.223,1.223,0,0,0,.4-.593,16.214,16.214,0,0,0-1.58-2.609A1.755,1.755,0,0,0,604.386,312.987Z" transform="translate(-589.258 -241.97)" fill="#fff"/>
        <path id="Trazado_750" data-name="Trazado 750" d="M593.244,286.361a.537.537,0,0,0,.448.028,1.683,1.683,0,0,0,.592-.5c.035-.039.07-.078.1-.114L594.27,285c-.091-.616-.168-1.136-.269-1.652-.08-.409-.285-.606-.64-.606a1.237,1.237,0,0,0-.2.018.673.673,0,0,0-.6.853c.07.656.186,1.373.353,2.191A.8.8,0,0,0,593.244,286.361Z" transform="translate(-586.799 -235.451)" fill="#fff"/>
        <path id="Trazado_751" data-name="Trazado 751" d="M652.275,294.315l.107-.074a1.386,1.386,0,0,0,.462-.419,6.942,6.942,0,0,0,.681-2.2,1.225,1.225,0,0,0-.527-.865l-.026,0a1.287,1.287,0,0,0-.719.365,8.373,8.373,0,0,0-.777,2.392.573.573,0,0,0,.067.454A1.154,1.154,0,0,0,652.275,294.315Z" transform="translate(-599.531 -237.183)" fill="#fff"/>
        <path id="Trazado_752" data-name="Trazado 752" d="M648.964,301.773a1.116,1.116,0,0,0,.735-.065,16.913,16.913,0,0,0,.995-1.967c.1-.213.2-.43.3-.651-.055-.067-.107-.135-.158-.2-.142-.183-.317-.409-.425-.437a.551.551,0,0,0-.14-.015,1.1,1.1,0,0,0-.615.18,10.3,10.3,0,0,0-1.059,2.518A1.021,1.021,0,0,0,648.964,301.773Z" transform="translate(-598.911 -238.843)" fill="#fff"/>
      </g>
    </g>
  </g>
</svg>
