<svg xmlns="http://www.w3.org/2000/svg" width="76.878" height="68.535" viewBox="0 0 76.878 68.535">
  <g id="Grupo_1005" data-name="Grupo 1005" transform="translate(-22.367 -26)">
    <path id="Trazado_813" data-name="Trazado 813" d="M48.588,0h-.439A16.2,16.2,0,0,0,36.9,5.008c-5.447,5.447-10.895,10.983-16.342,16.43L4.833,37.166A17.643,17.643,0,0,0,2.46,40.153,16.815,16.815,0,0,0,.264,52.1c1.494,9.226,10.368,16.606,19.593,16.43a25.508,25.508,0,0,0,10.631-2.46,26.791,26.791,0,0,0,7.293-5.36L60.537,37.956l8.7-8.786a25.408,25.408,0,0,0,5.623-8.083,25.354,25.354,0,0,0,2.021-9.665.882.882,0,0,0-.527-.879.994.994,0,0,0-1.054.176c-.176.088-.264.264-.351.351l-6.238,6.238c-8.523,8.523-17.045,17.133-25.656,25.656a1.81,1.81,0,0,0-.615,1.494v.264A33.368,33.368,0,0,1,42,48.763a22.755,22.755,0,0,1-9.226,13.882A21.269,21.269,0,0,1,17.66,66.6C9.929,65.633,4.218,60.449,2.2,52.717A15.1,15.1,0,0,1,3.866,41.3a14.557,14.557,0,0,1,9.313-6.59A11.642,11.642,0,0,1,22.054,36.2a11.1,11.1,0,0,1,4.92,7.117,8.92,8.92,0,0,1-5.008,10.368,7.382,7.382,0,0,1-9.05-2.109,7,7,0,0,1-1.318-4.13,5.5,5.5,0,0,1,4.569-5.1,4.883,4.883,0,0,0,1.494-.527c.264-.264,0-.791,0-.879-.176-.264-.351-.527-1.054-.439a7.2,7.2,0,0,0-5.975,3.866,7.824,7.824,0,0,0,.088,7.117,8.525,8.525,0,0,0,6.15,4.657c3.6.615,6.678-.439,9.489-3.339l3.954-3.954,27.94-27.94a11.856,11.856,0,0,0,2.372-3.251,11.919,11.919,0,0,0-.966-11.686A13.228,13.228,0,0,0,48.588,0ZM43.755,49.906c.088-.351.088-.7.176-.966a9.784,9.784,0,0,0,.176-1.494A7.171,7.171,0,0,1,46.655,42c6.414-6.326,12.828-12.74,19.066-18.978l6.59-6.59.439-.439,2.2-2.109-.615,2.724a20.6,20.6,0,0,1-5.887,10.719L53.772,42l-8.083,8.171-.264.264-2.109,1.845ZM59.043,16.694a12.012,12.012,0,0,1-1.757,2.548c-7.2,7.2-14.5,14.409-21.7,21.614L30.84,45.6c0,.088-.088.088-.176.176l-1.494,1.23-.088-1.757a12.751,12.751,0,0,0-4.569-9.4,13.3,13.3,0,0,0-10.28-3.163l-2.109.264L13.619,31.1a1.917,1.917,0,0,1,.351-.439l6.853-6.853c5.8-5.887,11.861-11.861,17.836-17.748A13.163,13.163,0,0,1,52.542,2.548a10.833,10.833,0,0,1,6.414,5.887A10.77,10.77,0,0,1,59.043,16.694Z" transform="translate(22.366 26)" fill="#fff"/>
  </g>
</svg>
