<svg xmlns="http://www.w3.org/2000/svg" width="74.564" height="74.546" viewBox="0 0 74.564 74.546">
  <path id="Trazado_796" data-name="Trazado 796" d="M485.255,100.745a10.049,10.049,0,0,0-7.334-6.109c-.2-.044-.4-.1-.6-.166-.142-.044-.284-.088-.428-.124a87.284,87.284,0,0,0-15.483-2.164q-5.191-.343-10.11-.344a123.739,123.739,0,0,0-21.146,1.749,24.687,24.687,0,0,0-8.164,2.533,8.833,8.833,0,0,0-2.247,2.085,5.8,5.8,0,0,0-.736,1.318c-.125.274-.249.548-.391.81a32.234,32.234,0,0,0-4.07,15.037c-.065,4.274-.049,8.622-.034,12.827q.009,2.7.013,5.4c0,1.1.056,1.17,1.182,1.519,6.888,2.129,12.051,5.725,15.786,10.995a3.347,3.347,0,0,1,.57,1.782c.037,1.944.032,3.919.027,5.83l0,5.627-.257.08c-1.861.582-2.238,1.089-2.238,3.01l0,.549c0,.419-.01.839.01,1.257a2.1,2.1,0,0,0,2.091,2.11c.84.038,1.7.039,2.558,0a2.1,2.1,0,0,0,2.1-2.1c.022-.418.017-.837.012-1.257l0-.548c0-1.919-.383-2.45-2.149-2.986l-.193-.059-.054-.194a1.086,1.086,0,0,1-.084-.361c0-.755.017-1.512.036-2.27a35.916,35.916,0,0,0-.1-4.883,9.253,9.253,0,0,1,3.368-8.69c.049-.062.073-.091.1-.118l3.577-3.683v8.909l-.267.076c-1.788.5-2.175,1.2-2.219,2.158-.039.854-.04,1.747,0,2.654a2.038,2.038,0,0,0,1.859,2.028,22.4,22.4,0,0,0,3.017,0,2,2,0,0,0,1.868-2c.016-.419.013-.84.01-1.26l0-.548c0-2.046-.293-2.448-2.24-3.071l-.255-.081V141.4c0-3.878.065-3.988,3.457-5.9,3.465-1.953,6.394-2.267,9.219-.989a33.446,33.446,0,0,1,3.757,2.107c.416.257.831.514,1.249.764a1.3,1.3,0,0,1,.62.967c.023,2.542.022,5.084.021,7.614V148.1l-.265.076c-1.852.536-2.227,1.02-2.228,2.877l0,.593c0,.469-.01.939.01,1.407a2.028,2.028,0,0,0,1.9,1.992c.227.022.457.02.687.021s.43,0,.645.015a3.669,3.669,0,0,0,2.838-.584c.531-.507.762-1.437.725-2.926-.047-1.953-.407-3.065-2.173-3.353l-.307-.051v-8.707l.61.543c.1.092.2.172.283.244a4.7,4.7,0,0,1,.456.421l1.051,1.156c1.285,1.413,2.613,2.874,3.877,4.353a2.948,2.948,0,0,1,.64,1.773c.038,2.711.032,5.466.026,8.13l0,2.145c0,.224-.015.447-.03.662l-.031.536-.259.067c-1.681.441-2.168,1.052-2.173,2.718l0,.552c0,.483-.01.966.009,1.449a2.1,2.1,0,0,0,2.141,2.153c.812.032,1.643.032,2.467,0a2.1,2.1,0,0,0,2.143-2.154c.021-.483.015-.968.01-1.453l0-.546c-.005-1.69-.482-2.278-2.221-2.731l-.274-.072,0-3.95c-.006-2.429-.013-4.941.034-7.411a3.959,3.959,0,0,1,.7-2.121c3.683-5.123,8.783-8.652,15.593-10.789,1.189-.373,1.234-.431,1.234-1.582q0-2.588-.01-5.175c-.01-3.652-.021-7.43.025-11.145A37.032,37.032,0,0,0,485.255,100.745ZM421.482,98.69c.143-.117.28-.249.418-.381a3.587,3.587,0,0,1,1.129-.828A37.126,37.126,0,0,1,427.7,95.94,79.358,79.358,0,0,1,445.247,93.8c6.116-.086,11.762-.011,17.258.23a63.2,63.2,0,0,1,15.564,2.5,18.193,18.193,0,0,1,3.072,1.244c.754.387,1.114.8,1.1,1.273-.012.449-.378.837-1.088,1.155a30.988,30.988,0,0,1-5,1.787,84.255,84.255,0,0,1-17.244,2.216c-.9.037-1.806.048-2.708.048-.755,0-1.507-.008-2.247-.016s-1.5-.016-2.243-.016a98.358,98.358,0,0,1-22.661-1.845c-1.25-.264-2.489-.645-3.688-1.013-.5-.152-.994-.3-1.491-.45a2.737,2.737,0,0,1-.911-.4c-.374-.285-.728-.6-1.071-.9l-.746-.65Zm-.324,31.216c-.089,1.326-.178,2.651-.273,3.976-.01.128-.025.255-.043.4l-.08.7-1.3-.455c-.89-.309-1.731-.6-2.577-.936a1.179,1.179,0,0,1-.574-1.011c.01-1.714.012-3.427.014-5.141.005-4.7.011-9.553.192-14.327a26.214,26.214,0,0,1,3.583-11.735l.164-.3.309.141c.411.186.816.378,1.217.569.913.433,1.774.843,2.676,1.175s1.886.6,2.825.856c.427.116.854.232,1.28.355l.478.139-1.45,2.193c-.873,1.316-1.736,2.619-2.583,3.932-1.777,2.752-2.755,5.976-3.173,10.454C421.561,123.9,421.356,126.951,421.158,129.905Zm13.352,31.5v3.157h-3.073v-3.157Zm8.789-11.292v3.141h-3.1v-3.141Zm6.27-17.889a21.535,21.535,0,0,0-8.981,5.057c-1.764,1.6-3.48,3.327-5.14,4.994-.744.746-1.487,1.494-2.239,2.234l-.271.267-.257-.281c-.307-.336-.617-.7-.936-1.071a21.528,21.528,0,0,0-2.381-2.5c-1.2-1.019-2.514-1.967-3.781-2.883-.725-.524-1.45-1.049-2.161-1.589-.081-.061-.784-.613-.766-1.217.191-6.18.389-12.562,1.733-18.744a17.958,17.958,0,0,1,.694-2.228c.127-.354.257-.717.381-1.095l.12-.365.359.137c10.447,3.989,17.617,11.339,23.809,18.689l.37.44Zm2.221-.941-.284-.343c-5.984-7.256-13.592-15.256-24.655-19.57l-.449-.175,1.276-1.711c1.131-1.521,2.2-2.958,3.32-4.392.276-.354.92-.353,1.283-.319,1.48.136,2.96.289,4.439.441,2.822.293,5.74.595,8.614.763a121.159,121.159,0,0,0,18.7-.375c2.2-.213,4.425-.493,6.58-.766l.641-.081a1.582,1.582,0,0,1,1.648.679c.921,1.281,1.861,2.548,2.827,3.85l1.418,1.916-.446.174c-11.067,4.321-18.662,12.315-24.631,19.565Zm11.6,18.835v3.127h-3.1v-3.127Zm8.763,11.3v3.113h-3.119v-3.113Zm8.2-25.094a30.182,30.182,0,0,0-9.5,8.372l-.272.363-.3-.341c-5.087-5.824-9.516-10.446-16.266-12.533l-.529-.163.356-.423c5.873-6.976,13.274-14.642,23.641-18.6l.29-.11.157.266a15.327,15.327,0,0,1,1.659,5.326,120.608,120.608,0,0,1,1.336,16.661A1.449,1.449,0,0,1,480.358,136.324Zm5.8-2.5c-.665.189-1.316.433-2.006.691-.3.113-.61.228-.926.342l-.465.166-.025-.493c-.021-.4-.037-.788-.052-1.171-.034-.828-.065-1.61-.136-2.393q-.133-1.487-.261-2.975c-.279-3.213-.568-6.536-.949-9.789-.586-5.005-3.37-9.065-5.935-12.477-.147-.2-.3-.39-.465-.609l-.611-.8,1.111-.285a20.954,20.954,0,0,0,7.517-3l.374-.269.178.426c.232.557.471,1.105.707,1.648.532,1.222,1.034,2.377,1.458,3.592a30.231,30.231,0,0,1,1.611,10.007v1.236c-.007,4.781-.012,9.724.017,14.585A1.392,1.392,0,0,1,486.157,133.821Z" transform="translate(-414.5 -91.838)" fill="#17a4d6"/>
</svg>
