<svg xmlns="http://www.w3.org/2000/svg" width="63.352" height="74.739" viewBox="0 0 63.352 74.739">
  <g id="Grupo_1009" data-name="Grupo 1009" transform="translate(-32.029 -23.132)">
    <g id="Grupo_1002" data-name="Grupo 1002" transform="translate(32.029 23.132)">
      <path id="Trazado_765" data-name="Trazado 765" d="M460.743,829.119a18.7,18.7,0,0,0,3.206,7.579c1.327,1.929,2.788,3.78,3.945,5.806a19.053,19.053,0,0,1,2.125,12.2,31.3,31.3,0,0,1-2.378,8.911,32.262,32.262,0,0,1-1.682,2.912,10.043,10.043,0,0,0,2.719,2.311,33.771,33.771,0,0,0,2.929,1.808,26.181,26.181,0,0,0,5.949,2.4,20.6,20.6,0,0,0,5.174.68,18.615,18.615,0,0,0,6.072-1.01,19.741,19.741,0,0,0,3.062-1.355,20.625,20.625,0,0,0,3.523-2.432,9.956,9.956,0,0,0,2.642-3.116c.257-.521.431-1.074.7-1.591a13.963,13.963,0,0,1,1.02-1.649c.184-.261.369-.522.575-.766,1.134-1.348,1.286-1.349,2.951-.834,2.668.826,5.344,1.63,8.038,2.363a4.263,4.263,0,0,0,5.438-2.9,7.413,7.413,0,0,0,.27-4.239c-.336-1.5-.323-1.611,1.026-2.372,1.283-.724,1.771-1.382,1.075-3.317.234-.2.43-.381.635-.547,1.12-.911,1.231-1.434.575-2.75-1.271-2.547-1.27-2.547,1.133-3.987.274-.165.549-.327.815-.5a2.7,2.7,0,0,0,.95-4.05c-1.072-1.682-2.324-3.247-3.386-4.934-.963-1.528-1.764-3.157-2.661-4.728a1.041,1.041,0,0,1,.245-1.474c.181-.157.339-.339.517-.5,1.675-1.51,2.113-2.822,1.154-4.824-1.188-2.477-1.677-5.151-2.553-7.711a20.141,20.141,0,0,0-7.03-10.047,21.288,21.288,0,0,0-7.48-3.293A60.12,60.12,0,0,0,487.39,799a26.959,26.959,0,0,0-15.5,4.7,28.367,28.367,0,0,0-6.846,5.819,21.564,21.564,0,0,0-4.242,10.621A29.613,29.613,0,0,0,460.743,829.119Zm53.884,27.361a8.129,8.129,0,0,1,.163,2.209c0,.048-.013.092-.02.138-9.771-5.568-14.858-16.748-15.116-33.24a101.234,101.234,0,0,1,2.279-22.022,18.338,18.338,0,0,1,6.036,2.676,17.809,17.809,0,0,1,6.346,8.982c.794,2.31,1.4,4.685,2.248,6.974.953,2.573.83,2.089-.774,3.646a3.268,3.268,0,0,0-.76,4.129,37.082,37.082,0,0,0,1.913,3.592c1.213,1.907,2.508,3.762,3.814,5.607.786,1.111.791,1.286-.385,2-.591.359-1.207.679-1.788,1.052a3.037,3.037,0,0,0-1.408,3.58,26.31,26.31,0,0,0,.955,2.5c-1.009.857-2.789,1.523-1.141,3.36-.192.142-.292.225-.4.294C514.735,853.149,514.251,854.31,514.627,856.48Zm-42.217-2.007a22.307,22.307,0,0,0-.857-9.468c3.835-.987,6.9-3.757,9.114-8.255,1.882-3.816,3.158-8.9,3.8-15.115a110.155,110.155,0,0,0,0-20.175,26.586,26.586,0,0,1,3.648-.158,56.291,56.291,0,0,1,11.487,1.683,102.264,102.264,0,0,0-2.345,22.589,56.941,56.941,0,0,0,3.467,19.889c2.73,6.946,7.056,12.142,12.862,15.451a2.86,2.86,0,0,1-2.167.047c-3.312-.99-6.619-2.008-9.9-3.087-2.349-.772-4.7-1.573-6.972-2.534-1.626-.688-3.134-1.627-3.269-3.746-.044-.674-.65-.951-1.316-.852a1.061,1.061,0,0,0-.947,1.183,5.02,5.02,0,0,0,1.908,3.877,15.062,15.062,0,0,0,5.282,2.724c.972.325,1.936.676,3,1.05-.152-.053-1.14,1.375-1.261,1.542a18.3,18.3,0,0,0-1.867,3.213c-.229.512-.359,1.069-.631,1.56a6.062,6.062,0,0,1-1.484,1.527,18.419,18.419,0,0,1-1.83,1.369,17.951,17.951,0,0,1-4.094,2c-6.041,2.041-12.483.573-19.161-4.356.31-.568.605-1.1.847-1.655A34.854,34.854,0,0,0,472.41,854.473Zm-8.689-36.914a15.548,15.548,0,0,1,4.727-8.254,42.947,42.947,0,0,1,4.8-3.692,25.2,25.2,0,0,1,8.845-3.769,109.532,109.532,0,0,1-.02,19.579c-.609,5.921-1.809,10.725-3.563,14.28-1.949,3.948-4.6,6.317-7.872,7.055q-.2-.416-.427-.827c-1.237-2.251-2.8-4.325-4.25-6.457a16.254,16.254,0,0,1-2.946-6.907A29.846,29.846,0,0,1,463.721,817.559Z" transform="translate(-460.427 -798.995)" fill="#fff"/>
    </g>
  </g>
</svg>
