<svg xmlns="http://www.w3.org/2000/svg" width="70" height="85.711" viewBox="0 0 70 85.711">
  <g id="Grupo_1313" data-name="Grupo 1313" transform="translate(-876.598 -668.453)">
    <path id="Trazado_764" data-name="Trazado 764" d="M920.423,733.977a23.14,23.14,0,0,0,5.643,5.817c3,2.126,6.138,4.067,9.218,6.087.456.3.936.568,1.371.893a3.535,3.535,0,0,1,1.485,3.584,3.483,3.483,0,0,1-2.674,3,22.212,22.212,0,0,1-11.656.063,22.435,22.435,0,0,1-10.614-6.2,34.764,34.764,0,0,0-16.328-9.56c-1.346-.357-2.692-.73-4-1.193a9.343,9.343,0,0,1-5.948-11.4,26.747,26.747,0,0,0,1.147-10.509c-.319-2.713-5.668-14.99-6.828-17.454-1.443-3.064-2.907-6.117-4.355-9.179-.483-1.019-.382-1.3.614-1.8.919-.464,1.843-.919,2.843-1.419-.9-1.329-1.768-2.582-2.612-3.848-.539-.81-.5-1.149.324-1.693q7.861-5.192,15.746-10.346c.889-.581,1.35-.461,1.71.391a114.522,114.522,0,0,0,7.759,14.606c4.248,7.006,13.054,23.731,17.541,30.583a31.939,31.939,0,0,0,11.926,10.77c3.635,1.92,7.468,3.465,11.225,5.152a4.046,4.046,0,0,1,2.476,2.549,3.615,3.615,0,0,1-2,4.437,21.934,21.934,0,0,1-17.751.307,47.821,47.821,0,0,1-5.269-2.945C921.064,734.461,920.75,734.206,920.423,733.977Zm-20.949,2.562c1.495.613,2.956,1.145,4.361,1.8A38.7,38.7,0,0,1,914.6,746.1c5.59,5.5,12.278,7.35,19.944,5.688a2.035,2.035,0,0,0,.629-3.9c-2.592-1.62-5.2-3.212-7.74-4.915a37.248,37.248,0,0,1-13.759-16.116c-3.952-9.059-12.146-27.968-15.882-37.12-.646-1.583-1.17-3.217-1.807-4.987l-15.379,7.091c3.053,5.681,10.015,21.1,9.224,27.567C898.531,720.967,902.573,729.488,899.474,736.539Zm-14.417-54.252.07.156c.295-.131.588-.267.886-.394,2.863-1.222,5.722-2.453,8.594-3.655,1.013-.424,1.332-.2,1.649.861.691,2.33,1.282,4.7,2.151,6.962,2.752,7.163,10.124,24.013,13.038,31.113,1.616,3.936,3.473,7.775,5.294,11.623a4.445,4.445,0,0,0,1.473,1.549c1.242.884,2.594,1.617,3.837,2.5a23.617,23.617,0,0,0,6.628,3.515,21.068,21.068,0,0,0,14.666-.635,2.075,2.075,0,0,0,1.486-1.945,1.933,1.933,0,0,0-1.4-1.906c-2.708-1.16-5.434-2.289-8.116-3.508a37.683,37.683,0,0,1-16.495-13.92c-4.9-7.6-14.086-25.08-18.776-32.808-1.344-2.216-2.532-4.524-3.826-6.852-1.88,1.2-3.757,2.366-5.6,3.581C888.744,679.753,886.907,681.031,885.057,682.287Zm12.556,53.83c3.335-6.753-1.522-14.287-8.027-14.748-.364,1.482-.763,2.981-1.1,4.5a7.529,7.529,0,0,0,3.875,8.423A46.526,46.526,0,0,0,897.612,736.117Zm-17.7-45.9,15.554-7.156-.835-2.977-16.047,7.348Zm14.208-19.752-14.708,9.755,1.748,2.545,14.245-9.487Z" transform="translate(0 0)" fill="#17a4d6"/>
  </g>
</svg>
