<svg xmlns="http://www.w3.org/2000/svg" width="86.552" height="74.707" viewBox="0 0 86.552 74.707">
  <path id="Trazado_797" data-name="Trazado 797" d="M490.838,481.628a2.4,2.4,0,0,1-.721-1.7,52.8,52.8,0,0,0-1.153-12.381,35.548,35.548,0,0,0-5.38-12.879,3.839,3.839,0,0,0-4.469-1.681,3.9,3.9,0,0,0-2.649,4q-.012,12.537.008,25.074a1.892,1.892,0,0,1-1.177,2.023c-4.386,1.92-7.768,5.431-10.341,10.734a48.685,48.685,0,0,0-4.314,15.3,1.911,1.911,0,0,1-1.508,1.759,11.633,11.633,0,0,1-6.634.176,2.489,2.489,0,0,1-2.105-2.434,47.885,47.885,0,0,0-3.057-12.138c-2.738-6.892-6.467-11.208-11.734-13.582a2.044,2.044,0,0,1-.908-1.67c-.035-3.287-.032-6.574-.029-9.862l0-6.636c0-2.971.006-5.943-.009-8.915a3.84,3.84,0,0,0-7.143-2.122,36.1,36.1,0,0,0-1.859,3.107c-3.164,6.051-4.672,12.9-4.61,20.954a3.892,3.892,0,0,1-1.546,3.668,6.78,6.78,0,0,0-1.3,1.371c-6.539,8.259-7.661,17.164-3.478,27.284a11,11,0,0,1,.7,3.008c.219,1.988.415,3.978.612,5.969.2,2.07.408,4.138.638,6.206a1.56,1.56,0,0,0,.4,1.081,1.834,1.834,0,0,0,1.318.071,88.709,88.709,0,0,1,14.473-1.378,32.135,32.135,0,0,0,12.092-2.29,23.687,23.687,0,0,1,6.642-1.8c1.491-.147,3.067-.26,4.685-.26a22.69,22.69,0,0,1,9.987,2.042A25.377,25.377,0,0,0,477.1,526a95.738,95.738,0,0,1,15.7,1.433,1.693,1.693,0,0,0,1.253-.077,1.626,1.626,0,0,0,.422-1.135c.244-2.272.464-4.546.684-6.821.18-1.859.36-3.718.553-5.577a7.232,7.232,0,0,1,.551-2.41C500.478,502.8,499.973,489.806,490.838,481.628Zm-11.613-26.557a1.761,1.761,0,0,1,1.36-.329,2.67,2.67,0,0,1,1.612,1.291,34.9,34.9,0,0,1,5.5,15.374c.248,1.928.364,3.824.486,5.832.054.893.109,1.792.176,2.7l.037.5-3.954.31-.037-.5c-.06-.811-.112-1.612-.163-2.407-.114-1.756-.221-3.416-.411-5.092a32.791,32.791,0,0,0-4.869-14.628C478,456.657,478.466,455.586,479.225,455.071Zm3.122,24.836a1.487,1.487,0,0,1-1.307,1.76,11.4,11.4,0,0,0-1.275.376c-.215.072-.437.146-.67.219l-.649.2V461.647l.949,1.944a27.383,27.383,0,0,1,2.49,9.19c.159,1.463.233,2.951.3,4.391C482.235,478.084,482.28,479,482.347,479.907Zm-14.218,13.151a18.563,18.563,0,0,1,7.876-7.231,29.854,29.854,0,0,1,11.389-3.423c1.592-.091,2.391.757,3.2,1.8l.55.7-.888.1a31.84,31.84,0,0,0-9.536,3.059c-5.016,2.25-8.723,6.118-11.331,11.827a51.73,51.73,0,0,0-3.8,13.148l-.133.787-.65-.463c-.2-.141-.389-.27-.572-.394a10.389,10.389,0,0,1-1.2-.9,1.725,1.725,0,0,1-.534-1.362C463.543,503.211,465.279,497.769,468.129,493.058Zm-45.122-17.434c.437-7.249,2.1-13.222,5.089-18.263.2-.34.417-.671.633-1l.331-.512a1.9,1.9,0,0,1,2.722-.848,1.755,1.755,0,0,1,.883,1.124,2.3,2.3,0,0,1-.392,1.828,28.88,28.88,0,0,0-3.709,8.241,50,50,0,0,0-1.711,12.845c0,.235,0,.472,0,.734v.972l-3.859-.269v-.467c0-.475-.008-.943-.015-1.406C422.963,477.577,422.947,476.612,423.007,475.624Zm9.634-13.745v20.589l-.653-.209c-.246-.079-.483-.151-.713-.221a17.371,17.371,0,0,1-1.651-.563,1.435,1.435,0,0,1-.807-1.152,44.366,44.366,0,0,1,2.559-16.43,1.461,1.461,0,0,1,.178-.311ZM420.5,484.173c.879-1.032,1.73-1.874,3.3-1.766a28.042,28.042,0,0,1,15.008,5.792c3.441,2.578,5.281,6.377,6.756,10.1a51.087,51.087,0,0,1,3.033,12.3,2,2,0,0,1-.573,1.52,6.562,6.562,0,0,1-1.13.853c-.146.095-.291.187-.429.284l-.59.413-.18-.7c-.236-.907-.459-1.813-.681-2.713-.5-2.033-.974-3.954-1.572-5.876-1.59-5.116-3.643-8.822-6.459-11.663-3.842-3.877-8.861-6.362-15.342-7.6-.127-.024-.256-.041-.439-.066l-1.293-.184Zm-5.546,21.734a38.066,38.066,0,0,1-.609-4.121c-.069-.621-.138-1.241-.22-1.858l-.005-.042v-.042a24.7,24.7,0,0,1,3.282-11.717,2.314,2.314,0,0,1,2.636-1.284c10.957,1.581,17.8,6.919,20.929,16.316.842,2.532,1.45,5.176,2.038,7.733.219.95.437,1.9.667,2.844a1.46,1.46,0,0,1-.6,1.444,27.4,27.4,0,0,1-12.164,3.171,20.751,20.751,0,0,1-5.96-.871C419.685,515.913,416.321,512.02,414.958,505.907Zm77.821,19.5-.515-.072c-.47-.067-.922-.138-1.362-.208-.9-.143-1.75-.278-2.594-.337-1.61-.115-3.222-.2-4.834-.3-2.9-.162-5.9-.33-8.842-.646a24.141,24.141,0,0,1-7.225-1.8c-5.413-2.427-11.142-2.4-16.032-2.059a19.735,19.735,0,0,0-6.991,1.862c-3.385,1.584-6.939,2.061-11.233,2.289-3.067.163-6.185.445-9.2.717-1.326.12-2.653.241-3.981.351l-1.634.13-.955-9.44.81.4c.687.34,1.355.7,2.015,1.051a28.732,28.732,0,0,0,4.175,1.964c4.345,1.492,9.007,1.326,15.114-.541a30.7,30.7,0,0,0,9.384-4.872,2.055,2.055,0,0,1,2.183-.34,12.4,12.4,0,0,0,9,0,2.074,2.074,0,0,1,2.186.335,30.863,30.863,0,0,0,20.077,6.312,17.124,17.124,0,0,0,9.418-3.429c.183-.133.363-.27.619-.465l1.44-1.084ZM494.03,511.4c-2.58,4.224-6.646,6.537-12.083,6.873q-.762.048-1.524.047a26.851,26.851,0,0,1-12.057-2.97,1.688,1.688,0,0,1-.921-1.441c1.118-7.239,2.929-12.513,5.87-17.1a19.971,19.971,0,0,1,8.523-7.161,25.59,25.59,0,0,1,9.835-2.851,1.762,1.762,0,0,1,1.789.934,22.427,22.427,0,0,1,3.407,11.96v.012C496.782,503.329,496.377,507.557,494.03,511.4Z" transform="translate(-412.255 -452.793)" fill="#17a4d6"/>
</svg>
