<svg xmlns="http://www.w3.org/2000/svg" width="68.58" height="86.424" viewBox="0 0 68.58 86.424">
  <g id="Grupo_1309" data-name="Grupo 1309" transform="translate(-585.214 -222.413)">
    <path id="Trazado_738" data-name="Trazado 738" d="M650.028,257.946c-1.368-2.467-2.948-4.88-4.476-7.215-.76-1.162-1.52-2.325-2.26-3.5-.562-.893-1.1-1.8-1.656-2.715l-1.07-1.774.776-.248a2.406,2.406,0,0,1,.381-.107c3.422-.547,4.59-3.374,4.543-5.836-.055-2.871-.043-5.787-.032-8.608.005-1.365.011-2.73.009-4.1,0-1.419-.576-1.426-.821-1.43h-.012c-.677,0-.836.767-.851,1.411,0,.173,0,.348,0,.523l0,3.937c0,2.854.007,5.708-.011,8.561-.015,2.445-1.155,3.685-3.587,3.9a1.444,1.444,0,0,1-1.693-1.056,28.068,28.068,0,0,1-1.422-15.441,2.383,2.383,0,0,0-.01-1.567c-.055-.081-.167-.2-.507-.259-.241-.045-.794-.146-1.1,1.486a29.884,29.884,0,0,0,3.392,20.45c.9,1.648,1.907,3.223,2.967,4.89.488.767.982,1.545,1.477,2.343l.31.5-3.482.945c-2.318.632-4.612,1.256-6.915,1.848-1.025.263-2.073.478-3.087.687-.715.146-1.427.293-2.138.457a.721.721,0,0,0-.638.97c.069.339.226.678.922.627a4.155,4.155,0,0,0,.692-.1l2.452-.642c4.017-1.05,8.035-2.1,12.042-3.187a1.384,1.384,0,0,1,1.846.7c.7,1.321,1.416,2.637,2.129,3.953q.89,1.64,1.773,3.284a3.285,3.285,0,0,1,.263.737l.187.59-2.256.507c-5.573,1.241-10.838,2.413-15.662,5.272-5.416,3.209-9.109,8.124-12.726,13.3l-.4.57-.344-.6c-6.5-11.355-16.4-17.449-30.258-18.63l-.662-.056,1.654-3.15c1.04-1.982,2.03-3.869,3.026-5.752a1.568,1.568,0,0,1,2.1-.706l1.757.525c2.77.831,5.634,1.691,8.486,2.356,5.053,1.179,11.342,2.645,17.568,1.924,1-.115,1.154-.367,1.126-.888s-.24-.792-1.211-.753c-.367.016-.735.041-1.1.067a15.144,15.144,0,0,1-3.089,0c-4.91-.679-9.333-1.312-13.734-2.18-2.211-.436-4.41-1.08-6.538-1.7-.959-.281-1.919-.562-2.883-.826l-.441-.122.205-.667a1,1,0,0,1,.115-.291l.405-.622c.394-.605.786-1.21,1.2-1.8,4.483-6.471,6.628-12.834,6.559-19.455a33.92,33.92,0,0,0-.477-4.6c-.076-.5-.151-1.009-.219-1.513a.939.939,0,0,0-.314-.631.752.752,0,0,0-.581-.114c-.354.052-.816.216-.731,1.041a5.162,5.162,0,0,0,.1.565l.058.265a27.277,27.277,0,0,1-1.507,15.529,1.688,1.688,0,0,1-1.381.893h0a3.5,3.5,0,0,1-3.792-3.726c-.02-.648-.017-4.637-.014-8.156,0-2.321,0-4.338,0-4.773-.015-1.108-.621-1.077-.846-1.081s-.826.024-.83,1.05v.441c-.024,9.74,0,12.394.019,12.9a4.894,4.894,0,0,0,2.478,4.24,8.737,8.737,0,0,0,1.675.693c.3.1.612.207.927.328l.48.184-.455.8c-.142.253-.279.5-.428.736-.852,1.358-1.727,2.7-2.6,4.046-1.864,2.864-3.793,5.826-5.442,8.862-5,9.2-5.554,18.6-1.639,27.938,2.034,4.853,4.411,9.664,6.709,14.318.93,1.883,1.859,3.766,2.77,5.656a32.68,32.68,0,0,0,1.63,2.863l.174.283c.45.734.968.465,1.137.374.313-.163.592-.43.3-1.174a2.894,2.894,0,0,0-.2-.382c-.051-.089-.1-.178-.148-.269q-1.18-2.3-2.378-4.6c-1.809-3.48-3.68-7.078-5.405-10.678-2.175-4.538-4.883-10.187-5.294-16.359A28.291,28.291,0,0,1,588,265.047l.115-.395.4.089c.633.14,1.263.271,1.89.4,1.352.282,2.75.574,4.1.939l1.263.337a36.119,36.119,0,0,1,9.5,3.507c4.848,2.893,8.782,7.07,12.759,13.542a4.852,4.852,0,0,1,.665,2.408c.033,5.415.031,10.83.029,16.246l0,4.8c0,.367.009.734.02,1.1a.855.855,0,0,0,.261.641.5.5,0,0,0,.417.1c.345-.058.807-.643,1.029-.925a3.318,3.318,0,0,0-.02-.364c-.011-.117-.021-.235-.021-.343,0-1.767.016-3.535.03-5.3.035-4.209.071-8.561-.1-12.828a13.053,13.053,0,0,1,2.833-8.888c3.038-3.966,6.881-8.389,12.348-11.125a40.509,40.509,0,0,1,9.287-2.93c.617-.141,1.234-.282,1.849-.429.892-.211,1.8-.374,2.68-.532.4-.072.806-.145,1.207-.221l.389-.074.227.732c.066.205.113.354.147.507a29.9,29.9,0,0,1-1.49,18.17,161.634,161.634,0,0,1-10.3,21.52c-.1.168-.208.335-.316.5a4.345,4.345,0,0,0-.667,1.322,1.443,1.443,0,0,0,.326,1.132,3.851,3.851,0,0,0,1.085-.3,1.009,1.009,0,0,0,.208-.343l.092-.194q1.275-2.53,2.561-5.052c2.216-4.356,4.506-8.861,6.659-13.337a48.33,48.33,0,0,0,3.046-8.025C654.835,273.005,654,265.1,650.028,257.946Z" transform="translate(0 0)" fill="#17a4d6"/>
    <path id="Trazado_739" data-name="Trazado 739" d="M609.467,238.6c.749.005,1.936,0,3.055,0h2.451l-1.4,1.315c-.316.3-.56.53-.808.757-.632.578-.409.99-.186,1.251a.816.816,0,0,0,.546.327,1.079,1.079,0,0,0,.776-.359l.49-.439c1.078-.965,2.154-1.929,3.212-2.913a.88.88,0,0,0,0-1.542c-.827-.781-1.672-1.54-2.518-2.3l-1.176-1.061a1.124,1.124,0,0,0-.779-.37.816.816,0,0,0-.548.316c-.267.3-.448.7.236,1.33.264.245.525.492.855.8L615,236.957l-2.477,0c-1.13,0-2.317.006-3.067-.005a1.178,1.178,0,0,0-.849.226.779.779,0,0,0-.184.582C608.42,238.172,608.545,238.593,609.467,238.6Z" transform="translate(-2.76 -1.291)" fill="#17a4d6"/>
    <path id="Trazado_740" data-name="Trazado 740" d="M633.007,241.775l.152.135a1.156,1.156,0,0,0,.759.341.825.825,0,0,0,.558-.343c.137-.166.5-.608-.209-1.256L632,238.6h2.483c1.106,0,2.262,0,2.983,0,1.147,0,1.162-.564,1.165-.84a.77.77,0,0,0-.182-.585,1.267,1.267,0,0,0-.945-.233c-.733.021-1.9.016-3.017.011l-2.429,0,2.195-2.084c.656-.619.452-1.018.166-1.326a.75.75,0,0,0-.55-.288,1.088,1.088,0,0,0-.7.337c-1.233,1.1-2.508,2.245-3.758,3.435a1.185,1.185,0,0,0-.458.74,1.128,1.128,0,0,0,.44.712C630.572,239.6,631.81,240.707,633.007,241.775Z" transform="translate(-5.202 -1.29)" fill="#17a4d6"/>
    <path id="Trazado_741" data-name="Trazado 741" d="M642.909,312.84l-.08.048a1.507,1.507,0,0,0-.461.349l-.137.192a7.851,7.851,0,0,0-1.14,1.964,1.506,1.506,0,0,0,.324,1.152.45.45,0,0,0,.378.16.828.828,0,0,0,.574-.374,15.594,15.594,0,0,0,1.426-2.391.7.7,0,0,0-.026-.7A1.039,1.039,0,0,0,642.909,312.84Z" transform="translate(-6.643 -10.755)" fill="#17a4d6"/>
    <path id="Trazado_742" data-name="Trazado 742" d="M654.142,286.851a.735.735,0,0,0,.969-.639c.127-.59.223-1.187.3-1.682l.083-.5c.049-1.11-.3-1.235-.7-1.272-.05,0-.1-.008-.15-.008-.348,0-.681.142-.776.838-.047.339-.106.678-.165,1.015-.073.42-.147.84-.195,1.263C653.418,286.634,653.827,286.8,654.142,286.851Z" transform="translate(-8.121 -7.176)" fill="#17a4d6"/>
    <path id="Trazado_743" data-name="Trazado 743" d="M601.55,309.264a.732.732,0,0,0,.662.374.748.748,0,0,0,.635-.372c.359-.583.127-.993-.315-1.667a5.337,5.337,0,0,1-.431-.738,3.71,3.71,0,0,0-.744-.972c-.056-.058-.109-.115-.159-.167a1.218,1.218,0,0,0-.92.445.548.548,0,0,0-.052.53A14.836,14.836,0,0,0,601.55,309.264Z" transform="translate(-1.78 -9.909)" fill="#17a4d6"/>
    <path id="Trazado_744" data-name="Trazado 744" d="M594.028,277.83c.091-.693.176-1.389.252-2.084.085-.788-.257-.963-.605-1.031a.736.736,0,0,0-.995.611c-.127.567-.215,1.144-.284,1.6l-.067.428c-.045,1.27.329,1.413.75,1.453S593.908,278.754,594.028,277.83Z" transform="translate(-0.846 -6.217)" fill="#17a4d6"/>
    <path id="Trazado_745" data-name="Trazado 745" d="M653.888,276.322c.065.439.13.877.17,1.317a1.519,1.519,0,0,0,.35,1.037.788.788,0,0,0,.606.127c.51-.048.786-.261.777-1.248-.035-.226-.066-.455-.1-.683a13.357,13.357,0,0,0-.271-1.543c-.111-.431-.355-.648-.724-.648a1.2,1.2,0,0,0-.278.035c-.341.081-.72.271-.616,1.03Z" transform="translate(-8.156 -6.217)" fill="#17a4d6"/>
    <path id="Trazado_746" data-name="Trazado 746" d="M596.037,294.642c.1-.018.342-.3.471-.454.055-.063.108-.127.162-.188-.092-.278-.176-.548-.259-.811a13.864,13.864,0,0,0-.817-2.18,1.361,1.361,0,0,0-.726-.256.275.275,0,0,0-.076.009,1.3,1.3,0,0,0-.53.906,7.27,7.27,0,0,0,.777,2.562A1.394,1.394,0,0,0,596.037,294.642Z" transform="translate(-1.076 -8.128)" fill="#17a4d6"/>
    <path id="Trazado_747" data-name="Trazado 747" d="M598.341,302.158c.048.048.093.1.136.141a1.2,1.2,0,0,0,.87-.429.657.657,0,0,0,.072-.608,17.019,17.019,0,0,0-1.05-2.473.887.887,0,0,0-.689-.494l-.063,0a.662.662,0,0,0-.535.271c-.484.624-.255,1.1.19,1.891a5.781,5.781,0,0,1,.414.833A2.818,2.818,0,0,0,598.341,302.158Z" transform="translate(-1.379 -9.025)" fill="#17a4d6"/>
    <path id="Trazado_748" data-name="Trazado 748" d="M645.037,308.622a1.1,1.1,0,0,0,.3.8,1.306,1.306,0,0,0,.818.068,25.319,25.319,0,0,0,1.382-2.211c.131-.227.265-.457.4-.692-.064-.082-.127-.165-.186-.244-.138-.185-.347-.464-.443-.485a.792.792,0,0,0-.17-.017,1.268,1.268,0,0,0-.809.265A9.326,9.326,0,0,0,645.037,308.622Z" transform="translate(-7.114 -9.923)" fill="#17a4d6"/>
    <path id="Trazado_749" data-name="Trazado 749" d="M604.442,313a1.573,1.573,0,0,0-.354.463c-.05.081-.1.167-.161.253.146.217.289.433.431.646.531.8,1.033,1.555,1.6,2.255a1.589,1.589,0,0,0,.6-.1,1.374,1.374,0,0,0,.444-.666,18.227,18.227,0,0,0-1.775-2.933A1.973,1.973,0,0,0,604.442,313Z" transform="translate(-2.226 -10.763)" fill="#17a4d6"/>
    <path id="Trazado_750" data-name="Trazado 750" d="M593.33,286.809a.6.6,0,0,0,.5.032,1.891,1.891,0,0,0,.665-.561c.04-.044.078-.088.116-.129l-.132-.869c-.1-.693-.189-1.277-.3-1.856-.09-.46-.321-.681-.719-.681a1.388,1.388,0,0,0-.224.02.757.757,0,0,0-.678.959c.078.737.209,1.543.4,2.463A.9.9,0,0,0,593.33,286.809Z" transform="translate(-0.873 -7.176)" fill="#17a4d6"/>
    <path id="Trazado_751" data-name="Trazado 751" d="M652.375,294.756l.121-.083a1.558,1.558,0,0,0,.519-.471,7.8,7.8,0,0,0,.766-2.472,1.377,1.377,0,0,0-.592-.972l-.029,0a1.447,1.447,0,0,0-.808.411,9.411,9.411,0,0,0-.873,2.689.644.644,0,0,0,.076.51A1.3,1.3,0,0,0,652.375,294.756Z" transform="translate(-7.879 -8.128)" fill="#17a4d6"/>
    <path id="Trazado_752" data-name="Trazado 752" d="M649.01,302.187a1.255,1.255,0,0,0,.827-.073,19.012,19.012,0,0,0,1.118-2.211c.109-.24.22-.484.337-.731-.062-.075-.12-.152-.178-.226-.159-.205-.356-.46-.478-.492a.619.619,0,0,0-.158-.017,1.233,1.233,0,0,0-.692.2,11.57,11.57,0,0,0-1.19,2.83A1.148,1.148,0,0,0,649.01,302.187Z" transform="translate(-7.538 -9.042)" fill="#17a4d6"/>
  </g>
</svg>
