<svg xmlns="http://www.w3.org/2000/svg" width="72.098" height="72.083" viewBox="0 0 72.098 72.083">
  <g id="Grupo_1007" data-name="Grupo 1007" transform="translate(-23.515 -24.001)">
    <g id="Grupo_1566" data-name="Grupo 1566" transform="translate(23.515 24.001)">
      <path id="Trazado_802" data-name="Trazado 802" d="M71.1,47.211A49.546,49.546,0,0,0,63.5,33.1a2.436,2.436,0,0,1-.181-2.894,28.822,28.822,0,0,0,3.166-8.954c.543-3.527-.271-6.15-2.623-8.321A53.251,53.251,0,0,1,58.8,7.869a7.772,7.772,0,0,0-7.235-2.532A30.708,30.708,0,0,0,41.07,8.954a1.369,1.369,0,0,1-1.538-.09,11.783,11.783,0,0,1-1.357-.9h-.181c-1.718-1.176-3.437-2.352-5.246-3.346C29.584,2.8,25.423.633,20.539.09A6.407,6.407,0,0,0,19.273,0a7.258,7.258,0,0,0-5.7,2.442c-1.809,1.99-3.8,3.889-5.7,5.788l-.271.181A6.911,6.911,0,0,0,5.526,13.2a19.6,19.6,0,0,0,2.08,9.044A52.371,52.371,0,0,0,13.213,32.2l.181.271-.724.9a82.293,82.293,0,0,0-8.5,12.391A30.719,30.719,0,0,0,.19,56.979c-.362,2.894.271,4.974,1.9,6.6L4.8,66.295l.271.271L8.6,70.094a6.374,6.374,0,0,0,3.8,1.9,8.775,8.775,0,0,0,1.538.09,19.987,19.987,0,0,0,5.969-1.176A53.816,53.816,0,0,0,33.02,63.853c1.447-1.085,2.985-2.171,4.341-3.256l.09-.09c.633-.543,1.357-.995,1.99-1.538l.271-.181.271.181c.362.181.724.452,1.085.633l.181.09q1.221.814,2.713,1.628c3.8,2.171,7.869,4.341,12.572,5.065,3.166.452,5.336-.09,7.145-1.809L68.655,59.6l1.628-1.628a6.578,6.578,0,0,0,1.809-3.618A16.533,16.533,0,0,0,71.1,47.211ZM47.491,49.382l-.362.362-.543.452-6.512-4.974,2.532-2.713a86.037,86.037,0,0,0,13.747-18.9A28.171,28.171,0,0,0,59.7,12.933a.684.684,0,0,1,.09-.362l.271-1.266.633.724A16.712,16.712,0,0,0,61.962,13.3a24.453,24.453,0,0,1,2.532,2.8c1.085,1.628.9,3.618.543,5.427a31.6,31.6,0,0,1-4.07,10.13A86.776,86.776,0,0,1,47.491,49.382ZM54,24.872c-.995,1.718-2.08,3.346-2.985,4.884l-.9,1.538-8.592-8.683.09-.09-.362-.633.271-.181.814-.543c.633-.452,1.357-.814,1.99-1.266.9-.543,1.809-1.085,2.623-1.628a1.138,1.138,0,0,1,1.538.181c.814.814,1.628,1.718,2.532,2.532.9.9,1.809,1.809,2.623,2.713A.838.838,0,0,1,54,24.872ZM39.442,23.063l9.677,9.677L39.171,44.227l-.362-.271A106.237,106.237,0,0,1,28.227,33.374l-.271-.362ZM57.35,12.572c-5.517.995-10.13,3.618-14.38,6.331A105.785,105.785,0,0,0,28.227,30.751l-.543.543-.724.633-1.176-1.538c-.995-1.357-2.171-2.894-3.256-4.341a1.083,1.083,0,0,1,.09-1.266c6.15-5.788,13.657-12.21,23.153-16.1a27.4,27.4,0,0,1,5.336-1.447l.814-.181a6.8,6.8,0,0,1,2.713.09A4.449,4.449,0,0,1,58.344,11.4C58.254,11.667,58.344,12.391,57.35,12.572ZM48.034,51.1l8.049-9.225.362.543c2.894,4.432,5.879,9.316,7.145,15.194l.181.724-.724-.181c-5.607-1.176-10.22-3.98-14.471-6.693Zm13.2,8.14c.814.181,1.718.362,2.623.543a6.981,6.981,0,0,0,1.357.181l.9.181-.724.633a7.81,7.81,0,0,0-1.176,1.266h0a10.772,10.772,0,0,1-3.075,2.623,6.608,6.608,0,0,1-2.713.543,13.98,13.98,0,0,1-2.8-.362A40.67,40.67,0,0,1,43.6,59.6,93.971,93.971,0,0,1,28.5,47.845a99.938,99.938,0,0,1-15.1-17.908A45.823,45.823,0,0,1,7.425,17.456a10.28,10.28,0,0,1-.271-5.517,5.652,5.652,0,0,1,.9-1.809C8.782,9.316,9.6,8.592,10.41,7.778c.362-.271.633-.633.995-.9l.724-.724.09.995c.724,7.235,4.251,13.2,7.959,18.631a103.97,103.97,0,0,0,29.756,28.58A49.071,49.071,0,0,0,61.239,59.24Zm3.889-1.447a29.5,29.5,0,0,0-3.346-9.406c-.814-1.538-1.718-3.075-2.623-4.522l-.09-.09c-.452-.814-.995-1.628-1.447-2.442a1.432,1.432,0,0,1-.09-1.357c.995-1.538,1.99-2.985,3.075-4.613l1.357-1.99.362.543c3.708,5.427,6.874,10.491,8.049,16.551a12.731,12.731,0,0,1,.09,4.16,4.217,4.217,0,0,1-4.251,3.618H65.58l-.452-.09ZM58.073,14.38a28.619,28.619,0,0,1-2.623,7.688l-.271.543L49.3,16.642l8.954-3.166ZM21.082,24.058l-.271-.452c-3.166-4.884-5.517-9.225-6.693-14.471l-.181-.724.724.181c5.788,1.266,10.672,4.16,15.194,7.145l.543.362ZM37.633,11.125c-.362.271-.814.543-1.176.814l-.724.452c-1.085.724-2.171,1.447-3.166,2.171a1.5,1.5,0,0,1-1.9,0,51.15,51.15,0,0,0-12.3-6.512l-2.713-.814c-.452-.09-.9-.271-1.357-.362l-.362-.09V6.421a4.574,4.574,0,0,1,1.176-3.437A5.115,5.115,0,0,1,18.64,1.447a16.471,16.471,0,0,1,6.331,1.176,57.669,57.669,0,0,1,13.3,7.235l.543.452ZM13.756,70.636a5.491,5.491,0,0,1-4.432-1.9c-.543-.633-1.176-1.176-1.718-1.718L6.792,66.2l-.633-.633.9-.181,1.628-.271a21.033,21.033,0,0,0,3.256-.724,49.451,49.451,0,0,0,13.838-7.055q2.035-1.357,4.07-2.985c.633-.452,1.266-.9,1.9-1.447l.271-.181,6.512,5.155-.995.814a4.97,4.97,0,0,1-.814.633c-4.07,3.166-9.5,7.145-15.918,9.677a18.144,18.144,0,0,1-6.6,1.538A1.583,1.583,0,0,1,13.756,70.636Zm16.1-18.27C23.886,56.979,17.374,61.592,9.324,63.4l-.724.181.181-.724C10.591,54.809,15.2,48.3,19.816,42.237l.362-.452L30.4,52ZM14.208,33.826l5.155,6.512-.181.362c-.271.362-.633.814-.9,1.176l-.09.09c-.633.9-1.447,1.9-2.08,2.8A53.2,53.2,0,0,0,8.329,58.879,26.936,26.936,0,0,0,7.335,62.5l-.09.271c-.09.543-.362.995-1.266.9-2.713-.181-4.341-2.08-4.432-4.974A18.317,18.317,0,0,1,2.9,52a64.076,64.076,0,0,1,9.768-16.28c.271-.362.543-.633.814-.995Z" transform="translate(-0.091 0)" fill="#fff"/>
    </g>
  </g>
</svg>
