<svg xmlns="http://www.w3.org/2000/svg" width="71.205" height="84.005" viewBox="0 0 71.205 84.005">
  <path id="Trazado_798" data-name="Trazado 798" d="M460.782,832.853a21.023,21.023,0,0,0,3.6,8.519c1.491,2.168,3.134,4.249,4.434,6.526a21.415,21.415,0,0,1,2.389,13.718,35.175,35.175,0,0,1-2.673,10.016,36.263,36.263,0,0,1-1.891,3.273,11.289,11.289,0,0,0,3.056,2.6,37.963,37.963,0,0,0,3.292,2.032,29.427,29.427,0,0,0,6.687,2.7,23.152,23.152,0,0,0,5.815.764,20.923,20.923,0,0,0,6.825-1.135,22.2,22.2,0,0,0,3.442-1.523,23.186,23.186,0,0,0,3.96-2.733,11.191,11.191,0,0,0,2.97-3.5c.289-.586.484-1.207.784-1.788a15.7,15.7,0,0,1,1.147-1.854c.207-.293.415-.587.646-.861,1.275-1.515,1.446-1.516,3.317-.937,3,.928,6.007,1.832,9.035,2.656a4.792,4.792,0,0,0,6.112-3.257,8.332,8.332,0,0,0,.3-4.764c-.378-1.685-.363-1.811,1.153-2.666,1.442-.814,1.991-1.553,1.208-3.728.263-.227.483-.428.714-.615,1.259-1.024,1.384-1.612.646-3.091-1.428-2.863-1.427-2.863,1.273-4.481.308-.185.617-.368.916-.567,1.752-1.166,2.191-2.791,1.068-4.552-1.2-1.89-2.612-3.65-3.806-5.546-1.082-1.717-1.983-3.548-2.991-5.314a1.17,1.17,0,0,1,.275-1.657c.2-.176.381-.381.581-.562,1.883-1.7,2.375-3.172,1.3-5.422-1.335-2.784-1.885-5.79-2.869-8.667a22.638,22.638,0,0,0-7.9-11.293,23.927,23.927,0,0,0-8.407-3.7A67.571,67.571,0,0,0,490.733,799a30.3,30.3,0,0,0-17.417,5.277,31.884,31.884,0,0,0-7.7,6.54,24.237,24.237,0,0,0-4.768,11.938A33.283,33.283,0,0,0,460.782,832.853Zm60.564,30.753a9.137,9.137,0,0,1,.183,2.483c-.005.054-.015.1-.022.155-10.982-6.258-16.7-18.824-16.99-37.361a113.784,113.784,0,0,1,2.562-24.752,20.611,20.611,0,0,1,6.784,3.008,20.017,20.017,0,0,1,7.133,10.1c.892,2.6,1.574,5.266,2.527,7.838,1.071,2.892.933,2.348-.87,4.1a3.673,3.673,0,0,0-.854,4.641,41.661,41.661,0,0,0,2.15,4.037c1.363,2.143,2.819,4.228,4.287,6.3.884,1.249.889,1.445-.433,2.246-.664.4-1.357.763-2.01,1.182a3.414,3.414,0,0,0-1.582,4.024,29.571,29.571,0,0,0,1.073,2.813c-1.134.963-3.135,1.712-1.282,3.776-.216.16-.328.253-.449.331C521.467,859.862,520.923,861.167,521.346,863.606Zm-47.451-2.256a25.072,25.072,0,0,0-.963-10.642c4.31-1.109,7.752-4.223,10.244-9.278,2.115-4.289,3.55-10.006,4.266-16.989a123.81,123.81,0,0,0,.005-22.676,29.883,29.883,0,0,1,4.1-.178,63.265,63.265,0,0,1,12.911,1.892,114.942,114.942,0,0,0-2.636,25.389c.129,8.58,1.44,16.1,3.9,22.355,3.068,7.807,7.931,13.647,14.456,17.366a3.214,3.214,0,0,1-2.436.053c-3.723-1.113-7.439-2.257-11.13-3.47-2.64-.868-5.279-1.768-7.836-2.848-1.828-.773-3.522-1.829-3.674-4.21-.049-.758-.731-1.069-1.479-.957a1.192,1.192,0,0,0-1.064,1.33,5.642,5.642,0,0,0,2.145,4.358,16.929,16.929,0,0,0,5.937,3.062c1.093.365,2.176.76,3.374,1.18-.171-.06-1.281,1.546-1.417,1.733a20.571,20.571,0,0,0-2.1,3.611c-.257.575-.4,1.2-.709,1.754a6.814,6.814,0,0,1-1.668,1.716,20.7,20.7,0,0,1-2.057,1.539,20.176,20.176,0,0,1-4.6,2.251c-6.79,2.294-14.031.644-21.536-4.9.348-.638.68-1.237.952-1.86A39.176,39.176,0,0,0,473.895,861.35Zm-9.766-41.49a17.476,17.476,0,0,1,5.313-9.277,48.273,48.273,0,0,1,5.4-4.15,28.326,28.326,0,0,1,9.941-4.236,123.112,123.112,0,0,1-.022,22.006c-.685,6.655-2.033,12.055-4.005,16.05-2.191,4.437-5.165,7.1-8.848,7.93q-.227-.468-.48-.93c-1.39-2.53-3.148-4.861-4.777-7.258a18.269,18.269,0,0,1-3.311-7.763A33.546,33.546,0,0,1,464.129,819.86Z" transform="translate(-460.427 -798.995)" fill="#17a4d6"/>
</svg>
