<svg xmlns="http://www.w3.org/2000/svg" width="66.341" height="66.324" viewBox="0 0 66.341 66.324">
  <g id="Grupo_1003" data-name="Grupo 1003" transform="translate(-27.132 -27.447)">
    <g id="Grupo_997" data-name="Grupo 997" transform="translate(27.132 27.447)">
      <path id="Trazado_737" data-name="Trazado 737" d="M477.451,99.763a8.941,8.941,0,0,0-6.525-5.435c-.18-.039-.356-.093-.532-.148-.127-.039-.253-.078-.38-.11a77.657,77.657,0,0,0-13.775-1.925q-4.618-.305-9-.306a110.091,110.091,0,0,0-18.814,1.556,21.964,21.964,0,0,0-7.263,2.253,7.859,7.859,0,0,0-2,1.855,5.164,5.164,0,0,0-.654,1.172c-.111.244-.221.488-.348.72a28.68,28.68,0,0,0-3.621,13.379c-.058,3.8-.044,7.671-.03,11.412q.008,2.4.012,4.806c0,.979.05,1.041,1.052,1.351a25.773,25.773,0,0,1,14.045,9.782,2.978,2.978,0,0,1,.507,1.585c.033,1.73.029,3.487.024,5.187l0,5.007-.229.071c-1.656.518-1.991.969-1.991,2.678l0,.489c0,.373-.008.746.009,1.118a1.864,1.864,0,0,0,1.861,1.878c.747.034,1.512.035,2.276,0a1.87,1.87,0,0,0,1.868-1.87c.02-.372.015-.745.011-1.118l0-.487c0-1.707-.341-2.18-1.912-2.657l-.172-.052-.048-.172a.967.967,0,0,1-.075-.321c0-.672.015-1.345.032-2.019a31.948,31.948,0,0,0-.089-4.344,8.232,8.232,0,0,1,3-7.732c.044-.055.065-.081.089-.105l3.182-3.277v7.926l-.237.067c-1.591.448-1.935,1.067-1.974,1.92-.035.759-.035,1.554,0,2.361a1.813,1.813,0,0,0,1.654,1.8,19.927,19.927,0,0,0,2.685,0,1.775,1.775,0,0,0,1.662-1.78c.014-.373.012-.747.008-1.121l0-.488c0-1.82-.261-2.178-1.993-2.732l-.227-.072v-5.932c0-3.451.057-3.548,3.075-5.251,3.083-1.737,5.689-2.017,8.2-.88a29.76,29.76,0,0,1,3.343,1.874c.37.228.739.457,1.112.68a1.158,1.158,0,0,1,.551.861c.021,2.262.02,4.523.018,6.775v1.9l-.236.068c-1.648.477-1.981.907-1.982,2.559l0,.528c0,.418-.008.835.009,1.252a1.8,1.8,0,0,0,1.687,1.773c.2.02.406.018.611.018s.383,0,.574.013a3.264,3.264,0,0,0,2.525-.52,3.426,3.426,0,0,0,.645-2.6c-.042-1.737-.362-2.727-1.934-2.983l-.273-.045V134.2l.543.483c.092.082.176.153.252.217a4.178,4.178,0,0,1,.406.374l.935,1.029c1.143,1.257,2.325,2.557,3.449,3.873a2.623,2.623,0,0,1,.57,1.577c.034,2.412.029,4.863.023,7.233l0,1.908c0,.2-.014.4-.027.589l-.027.477-.23.06c-1.5.393-1.929.936-1.933,2.418l0,.491c0,.43-.008.86.008,1.289a1.865,1.865,0,0,0,1.905,1.915c.723.028,1.462.028,2.195,0a1.872,1.872,0,0,0,1.907-1.916c.018-.43.014-.861.009-1.293l0-.485c0-1.5-.429-2.026-1.976-2.43l-.244-.064,0-3.514c-.005-2.161-.012-4.4.03-6.594a3.523,3.523,0,0,1,.627-1.887,25.861,25.861,0,0,1,13.873-9.6c1.057-.331,1.1-.384,1.1-1.407q0-2.3-.008-4.6c-.009-3.25-.019-6.61.022-9.916A32.948,32.948,0,0,0,477.451,99.763Zm-56.739-1.829c.127-.1.249-.222.372-.339a3.191,3.191,0,0,1,1-.737,33.033,33.033,0,0,1,4.156-1.371,70.606,70.606,0,0,1,15.611-1.9c5.442-.076,10.464-.01,15.355.2a56.232,56.232,0,0,1,13.848,2.221,16.186,16.186,0,0,1,2.733,1.106c.671.344.991.715.98,1.133-.01.4-.337.745-.968,1.028a27.571,27.571,0,0,1-4.447,1.59,74.962,74.962,0,0,1-15.343,1.972c-.8.033-1.607.043-2.409.043-.672,0-1.341-.007-2-.014s-1.331-.014-2-.014a87.51,87.51,0,0,1-20.162-1.641c-1.112-.235-2.215-.573-3.282-.9-.442-.135-.884-.271-1.327-.4a2.435,2.435,0,0,1-.81-.353c-.333-.254-.648-.533-.953-.8l-.663-.578Zm-.288,27.773c-.08,1.18-.159,2.358-.243,3.537-.008.114-.022.227-.038.36l-.071.625-1.159-.405c-.792-.275-1.54-.534-2.293-.833a1.049,1.049,0,0,1-.511-.9c.009-1.525.01-3.049.012-4.574,0-4.179.01-8.5.171-12.747a23.323,23.323,0,0,1,3.188-10.44l.145-.264.275.125c.366.166.726.337,1.083.506.812.386,1.578.75,2.381,1.046s1.678.534,2.513.761c.38.1.76.206,1.139.316l.425.123-1.29,1.951c-.776,1.171-1.544,2.33-2.3,3.5a19.808,19.808,0,0,0-2.823,9.3C420.782,120.36,420.6,123.078,420.424,125.707Zm11.88,28.026v2.809h-2.734v-2.809Zm7.82-10.047v2.794h-2.759v-2.794ZM445.7,127.77a19.16,19.16,0,0,0-7.991,4.5c-1.57,1.426-3.1,2.96-4.573,4.443-.661.664-1.323,1.329-1.992,1.987l-.241.237-.229-.25c-.273-.3-.549-.621-.832-.952a19.146,19.146,0,0,0-2.118-2.221c-1.071-.907-2.237-1.75-3.364-2.565-.645-.466-1.29-.933-1.923-1.414-.072-.054-.7-.545-.681-1.082a91.7,91.7,0,0,1,1.542-16.677,15.977,15.977,0,0,1,.618-1.983c.113-.315.228-.638.339-.974l.107-.325.319.122c9.295,3.549,15.674,10.089,21.183,16.628l.329.391Zm1.976-.837-.253-.305c-5.324-6.456-12.093-13.573-21.936-17.411l-.4-.156,1.135-1.523c1.007-1.353,1.958-2.632,2.954-3.908.246-.315.819-.314,1.141-.284,1.317.121,2.634.257,3.95.393,2.51.26,5.107.529,7.664.678a107.8,107.8,0,0,0,16.639-.333c1.953-.19,3.937-.439,5.854-.681l.57-.072a1.408,1.408,0,0,1,1.466.6c.819,1.14,1.656,2.267,2.515,3.426l1.262,1.7-.4.155c-9.847,3.845-16.6,10.957-21.915,17.407ZM458,143.691v2.782h-2.757v-2.782Zm7.8,10.053v2.769h-2.775v-2.769Zm7.3-22.326a26.853,26.853,0,0,0-8.456,7.448l-.242.323-.266-.3c-4.526-5.182-8.466-9.293-14.472-11.151l-.47-.145.317-.376c5.225-6.207,11.81-13.027,21.033-16.551l.258-.1.14.237a13.636,13.636,0,0,1,1.476,4.738,107.308,107.308,0,0,1,1.189,14.824A1.289,1.289,0,0,1,473.095,131.418Zm5.159-2.227c-.592.168-1.171.385-1.785.615-.269.1-.543.2-.824.3l-.414.148-.022-.439c-.018-.354-.033-.7-.046-1.042-.03-.737-.058-1.432-.121-2.129q-.118-1.323-.232-2.647c-.249-2.859-.5-5.815-.844-8.71-.521-4.453-3-8.065-5.28-11.1-.13-.174-.264-.347-.414-.542l-.543-.709.988-.253a18.643,18.643,0,0,0,6.688-2.666l.333-.239.159.379c.207.5.419.983.629,1.467.474,1.088.92,2.114,1.3,3.2a26.9,26.9,0,0,1,1.433,8.9v1.1c-.006,4.254-.011,8.651.015,12.976A1.238,1.238,0,0,1,478.254,129.19Z" transform="translate(-414.5 -91.838)" fill="#fff"/>
    </g>
  </g>
</svg>
