<svg xmlns="http://www.w3.org/2000/svg" width="77.006" height="66.467" viewBox="0 0 77.006 66.467">
  <g id="Grupo_1006" data-name="Grupo 1006" transform="translate(-22.242 -22.243)">
    <g id="Grupo_999" data-name="Grupo 999" transform="translate(22.243 22.243)">
      <path id="Trazado_762" data-name="Trazado 762" d="M482.171,478.448a2.136,2.136,0,0,1-.641-1.512,46.973,46.973,0,0,0-1.026-11.015,31.627,31.627,0,0,0-4.787-11.459,3.415,3.415,0,0,0-3.976-1.5,3.465,3.465,0,0,0-2.357,3.561q-.011,11.154.007,22.309a1.684,1.684,0,0,1-1.047,1.8c-3.9,1.708-6.911,4.832-9.2,9.55a43.314,43.314,0,0,0-3.838,13.616,1.7,1.7,0,0,1-1.342,1.565,10.35,10.35,0,0,1-5.9.157,2.214,2.214,0,0,1-1.873-2.166,42.6,42.6,0,0,0-2.72-10.8c-2.436-6.132-5.754-9.972-10.44-12.084a1.819,1.819,0,0,1-.808-1.486c-.031-2.924-.029-5.849-.026-8.774l0-5.9c0-2.643.005-5.288-.008-7.932a3.416,3.416,0,0,0-6.355-1.888,32.111,32.111,0,0,0-1.654,2.764,38.659,38.659,0,0,0-4.1,18.643,3.463,3.463,0,0,1-1.376,3.263,6.031,6.031,0,0,0-1.159,1.22c-5.818,7.348-6.816,15.271-3.094,24.275a9.784,9.784,0,0,1,.624,2.676c.195,1.769.369,3.539.544,5.311.181,1.842.363,3.682.568,5.521a1.388,1.388,0,0,0,.358.962,1.631,1.631,0,0,0,1.173.063,78.918,78.918,0,0,1,12.877-1.226,28.592,28.592,0,0,0,10.758-2.037,21.072,21.072,0,0,1,5.909-1.606c1.327-.131,2.729-.231,4.168-.231a20.188,20.188,0,0,1,8.885,1.817,22.577,22.577,0,0,0,9.63,2.017,85.176,85.176,0,0,1,13.965,1.275,1.506,1.506,0,0,0,1.115-.068,1.446,1.446,0,0,0,.375-1.01c.217-2.021.413-4.045.609-6.069.16-1.654.32-3.308.492-4.962a6.434,6.434,0,0,1,.49-2.144C490.748,497.285,490.3,485.724,482.171,478.448ZM471.839,454.82a1.567,1.567,0,0,1,1.21-.293,2.376,2.376,0,0,1,1.434,1.149,31.049,31.049,0,0,1,4.89,13.678c.221,1.715.324,3.4.432,5.189.048.794.1,1.594.157,2.4l.033.442-3.518.276-.033-.446c-.053-.722-.1-1.434-.145-2.142-.1-1.562-.2-3.039-.366-4.53A29.175,29.175,0,0,0,471.6,457.53C470.747,456.231,471.163,455.278,471.839,454.82Zm2.778,22.1a1.323,1.323,0,0,1-1.163,1.566,10.149,10.149,0,0,0-1.134.335c-.191.064-.389.13-.6.195l-.577.18V460.671l.844,1.73a24.362,24.362,0,0,1,2.215,8.176c.141,1.3.207,2.626.27,3.907C474.517,475.295,474.557,476.107,474.616,476.917Zm-12.65,11.7a16.516,16.516,0,0,1,7.007-6.434,26.561,26.561,0,0,1,10.133-3.045,3.15,3.15,0,0,1,2.849,1.6l.489.625-.79.09a28.328,28.328,0,0,0-8.484,2.722c-4.463,2-7.761,5.443-10.081,10.523a46.024,46.024,0,0,0-3.384,11.7l-.118.7-.578-.412c-.177-.125-.346-.24-.509-.351a9.241,9.241,0,0,1-1.067-.8,1.535,1.535,0,0,1-.475-1.212C457.886,497.65,459.431,492.808,461.966,488.617Zm-40.145-15.511c.389-6.449,1.87-11.764,4.528-16.249.179-.3.371-.6.563-.892l.294-.456a1.688,1.688,0,0,1,2.422-.754,1.562,1.562,0,0,1,.786,1,2.05,2.05,0,0,1-.349,1.626,25.7,25.7,0,0,0-3.3,7.332,44.49,44.49,0,0,0-1.522,11.428c0,.209,0,.42,0,.653v.865l-3.433-.239V477c0-.423-.007-.839-.013-1.251C421.782,474.844,421.768,473.985,421.821,473.106Zm8.571-12.229V479.2l-.581-.186c-.219-.07-.43-.134-.634-.2a15.455,15.455,0,0,1-1.469-.5,1.277,1.277,0,0,1-.718-1.025,39.473,39.473,0,0,1,2.277-14.618,1.3,1.3,0,0,1,.158-.277Zm-10.8,19.835a3.344,3.344,0,0,1,2.94-1.571,24.949,24.949,0,0,1,13.353,5.153c3.061,2.294,4.7,5.674,6.011,8.984a45.454,45.454,0,0,1,2.7,10.939,1.782,1.782,0,0,1-.51,1.352,5.838,5.838,0,0,1-1.005.759c-.13.085-.259.166-.382.253l-.525.367-.16-.62c-.21-.807-.408-1.613-.606-2.414-.446-1.809-.867-3.518-1.4-5.228-1.415-4.552-3.241-7.849-5.747-10.377-3.418-3.449-7.884-5.66-13.65-6.762-.113-.021-.228-.036-.391-.059l-1.15-.164Zm-4.934,19.337a33.87,33.87,0,0,1-.542-3.666c-.061-.553-.123-1.1-.2-1.653l0-.037v-.037a21.978,21.978,0,0,1,2.92-10.425,2.059,2.059,0,0,1,2.345-1.142c9.749,1.407,15.839,6.156,18.621,14.516.749,2.253,1.29,4.605,1.813,6.88.195.845.389,1.69.593,2.53a1.3,1.3,0,0,1-.53,1.285,24.374,24.374,0,0,1-10.822,2.821,18.463,18.463,0,0,1-5.3-.775C418.866,508.951,415.873,505.488,414.66,500.049ZM483.9,517.4l-.458-.064c-.418-.06-.82-.123-1.212-.185-.8-.127-1.557-.247-2.308-.3-1.432-.1-2.867-.182-4.3-.263-2.581-.144-5.25-.294-7.867-.575a21.476,21.476,0,0,1-6.428-1.6c-4.816-2.159-9.913-2.138-14.264-1.832a17.558,17.558,0,0,0-6.22,1.657c-3.012,1.409-6.174,1.834-9.994,2.037-2.729.145-5.5.4-8.185.638-1.18.107-2.36.214-3.542.312l-1.454.116-.85-8.4.721.357c.611.3,1.206.62,1.793.935a25.563,25.563,0,0,0,3.715,1.747c3.866,1.327,8.014,1.18,13.447-.481a27.311,27.311,0,0,0,8.349-4.335,1.828,1.828,0,0,1,1.942-.3,11.032,11.032,0,0,0,8.012,0,1.845,1.845,0,0,1,1.945.3,27.459,27.459,0,0,0,17.863,5.616,15.236,15.236,0,0,0,8.379-3.051c.163-.118.323-.24.551-.414l1.281-.964Zm1.113-12.468c-2.3,3.758-5.913,5.816-10.75,6.115q-.678.043-1.356.042a23.89,23.89,0,0,1-10.727-2.642,1.5,1.5,0,0,1-.819-1.282c.995-6.441,2.606-11.133,5.223-15.214a17.768,17.768,0,0,1,7.583-6.371,22.767,22.767,0,0,1,8.75-2.537,1.568,1.568,0,0,1,1.592.831,19.953,19.953,0,0,1,3.031,10.641v.011C487.459,497.755,487.1,501.517,485.011,504.934Z" transform="translate(-412.255 -452.793)" fill="#fff"/>
    </g>
  </g>
</svg>
