<svg xmlns="http://www.w3.org/2000/svg" width="78.759" height="59.205" viewBox="0 0 78.759 59.205">
  <g id="Grupo_1311" data-name="Grupo 1311" transform="translate(-553.169 -568.795)">
    <path id="Trazado_763" data-name="Trazado 763" d="M623,580.651c0,3.342.026,6.684-.02,10.024a1.808,1.808,0,0,0,.837,1.667,19.225,19.225,0,0,1,7.859,12.842,19.544,19.544,0,0,1-1.982,12.193,7.152,7.152,0,0,1-.4.685,1.105,1.105,0,0,1-1.517.474,1.079,1.079,0,0,1-.531-1.494c.291-.734.7-1.419,1-2.151a17.3,17.3,0,0,0-6.062-20.83,1.452,1.452,0,0,0-1.181-.06,40.965,40.965,0,0,0-19.429,16.13,71.055,71.055,0,0,0-3.635,7.005,1.365,1.365,0,0,0,.133,1.158,17.317,17.317,0,0,0,25.732,2.862c.239-.216.473-.438.723-.64a1.157,1.157,0,1,1,1.546,1.721,28.058,28.058,0,0,1-2.915,2.4,19.7,19.7,0,0,1-25.29-2.867,5.131,5.131,0,0,1-.93-1.047,2.934,2.934,0,0,0-3.356-1.692,16.946,16.946,0,0,1-3.162.008,1.72,1.72,0,0,0-1.673.833,18.6,18.6,0,0,1-9.116,6.884,19.745,19.745,0,0,1-26.452-19.3,18.806,18.806,0,0,1,7.727-14.84,2.629,2.629,0,0,0,1.185-2.381c-.055-6.477-.027-12.955-.027-19.433,0-.264-.007-.528.007-.791A1.107,1.107,0,0,1,563.2,568.8a1.152,1.152,0,0,1,1.194,1.241c.03,1.2.006,2.4.006,3.6,0,5.657.016,11.315-.02,16.971a1.223,1.223,0,0,0,.908,1.335,44.085,44.085,0,0,1,13.851,9.149c.127.123.26.239.375.371a1.132,1.132,0,0,1,.055,1.659,1.078,1.078,0,0,1-1.642.025c-.84-.731-1.639-1.509-2.482-2.235a42.5,42.5,0,0,0-11.344-6.95,1.286,1.286,0,0,0-1.433.194,17.357,17.357,0,0,0,7.92,31.261c6.787.8,12.278-1.633,16.412-7.1a1.129,1.129,0,0,0,.122-1.274,41.853,41.853,0,0,0-5.588-9.724c-.2-.256-.508-.532-.509-.8,0-.473.048-1.141.347-1.366s.958-.1,1.413.037c.254.073.42.463.617.716a43.278,43.278,0,0,1,5.793,10.01,1.051,1.051,0,0,0,1.166.772c1.435-.045,2.874-.051,4.308,0a1.092,1.092,0,0,0,1.223-.812,44.312,44.312,0,0,1,23.986-23.976,1.107,1.107,0,0,0,.808-1.222c-.027-6.36-.018-12.721-.02-19.081,0-.469-.009-.939,0-1.407.023-.9.479-1.426,1.211-1.41.709.016,1.112.488,1.117,1.392.013,2.433.005,4.866.005,7.3Z" fill="#17a4d6"/>
  </g>
</svg>
