<svg xmlns="http://www.w3.org/2000/svg" width="81.87" height="87.599" viewBox="0 0 81.87 87.599">
  <g id="Grupo_1423" data-name="Grupo 1423" transform="translate(-27.772 -17.431)">
    <g id="Grupo_1422" data-name="Grupo 1422" transform="translate(27.923 17.581)">
      <path id="Trazado_800" data-name="Trazado 800" d="M65.154,49.227A15.352,15.352,0,0,0,60.6,51.4c-.31.207-.724.414-1.034.621-1.034.517-1.965,1.138-3,1.758l-2.482,1.448V39.713a9.017,9.017,0,0,0-2.068-6c-2.482-3.206-4.964-6.515-7.343-9.721l-.517-.724a2.779,2.779,0,0,1-.517-1.344v-3.93a1.889,1.889,0,0,1,.827-1.344,4.515,4.515,0,0,0,2.585-3.826c.1-2.585.1-5.585,0-8.48A4.378,4.378,0,0,0,42.4,0H11.583A4.425,4.425,0,0,0,6.929,4.757V12.2a4.558,4.558,0,0,0,2.585,4.344,1.709,1.709,0,0,1,.827,1.344c0,.931.1,2.275,0,3.516a3.63,3.63,0,0,1-.621,1.862c-2.689,3.62-5.274,7.136-7.86,10.445A9.6,9.6,0,0,0,0,39.4v32.68a10.667,10.667,0,0,0,.207,2.068,7.812,7.812,0,0,0,7.963,6.1H34.645a2.03,2.03,0,0,1,2.172,1.241,9.7,9.7,0,0,0,.931,1.241,12.962,12.962,0,0,0,16.547,2.379c7.343-4.24,13.962-8.067,20.374-11.79a13.2,13.2,0,0,0,2.275-21.615A13.335,13.335,0,0,0,65.154,49.227ZM9,12V4.861A2.468,2.468,0,0,1,11.79,2.068h30.2c1.965,0,2.9.827,2.9,2.792V12c0,1.965-.827,2.792-2.792,2.792h-30.2C9.928,14.892,9,13.962,9,12ZM2.172,38.265a6.234,6.234,0,0,1,1.241-3.1l1.965-2.585c2.068-2.792,4.137-5.585,6.309-8.377a3.786,3.786,0,0,0,.827-2.482V16.961H41.471v4.757H25.648c-.207,0-.517,0-.621.1a1.6,1.6,0,0,0-.724,1.034c-.1.31.1.621.517.827a3.06,3.06,0,0,0,1.034.207h15.2a2.01,2.01,0,0,1,1.655.827c2.068,2.792,4.24,5.688,6.309,8.48l1.448,1.965a6.119,6.119,0,0,1,1.241,3.1v.724H2.068Zm31.75,40.023H8.687a6.61,6.61,0,0,1-4.964-1.965,6.253,6.253,0,0,1-1.655-4.757V70.015H34.956l-.207.827a13.859,13.859,0,0,0,.1,6.515l.207.827ZM36.4,67.119a1.561,1.561,0,0,1-1.448.827H2.172V41.264H51.813V55.329a1.774,1.774,0,0,1-1.034,1.655l-4.344,2.482c-1.862,1.034-3.723,2.172-5.585,3.206A14,14,0,0,0,36.4,67.119Zm23.89,12.307c-.827.414-1.551.931-2.379,1.344-1.758,1.034-3.62,2.068-5.378,3a10.7,10.7,0,0,1-4.964,1.241,11.18,11.18,0,0,1-9.721-6,10.913,10.913,0,0,1,4.033-14.479c2.172-1.344,4.344-2.585,6.515-3.826l3.62-2.068L63.085,77.874ZM79.632,62.258a10.64,10.64,0,0,1-4.861,8.687c-2.068,1.344-4.137,2.482-6.309,3.826-.931.517-1.965,1.138-2.9,1.655l-.621.31L53.881,57.6l.621-.31c.931-.517,1.965-1.138,2.9-1.655,2.068-1.241,4.24-2.482,6.412-3.62a10.758,10.758,0,0,1,10.859.621A11.248,11.248,0,0,1,79.632,62.258Z" transform="translate(0 0)" fill="#fff" stroke="#fff" stroke-width="0.3"/>
      <path id="Trazado_801" data-name="Trazado 801" d="M33.185,52.526H27.394V46.941c0-.414-.1-1.241-1.034-1.241-.621,0-1.034.517-1.034,1.241v5.688H19.741a1.149,1.149,0,0,0-1.241.931,1.244,1.244,0,0,0,.207.827,1.264,1.264,0,0,0,.931.31h5.688v5.688a1.008,1.008,0,0,0,.414.931.939.939,0,0,0,.724.31c.931,0,1.034-.931,1.034-1.241V54.7h5.791a1.008,1.008,0,0,0,1.138-1.034A1.242,1.242,0,0,0,33.185,52.526Z" transform="translate(0.632 1.562)" fill="#fff" stroke="#fff" stroke-width="0.3"/>
    </g>
  </g>
</svg>
