<svg xmlns="http://www.w3.org/2000/svg" width="79.174" height="84.713" viewBox="0 0 79.174 84.713">
  <g id="Grupo_1421" data-name="Grupo 1421" transform="translate(0.15 0.15)">
    <path id="Trazado_800" data-name="Trazado 800" d="M63,47.6a14.845,14.845,0,0,0-4.4,2.1c-.3.2-.7.4-1,.6-1,.5-1.9,1.1-2.9,1.7l-2.4,1.4v-15a8.719,8.719,0,0,0-2-5.8c-2.4-3.1-4.8-6.3-7.1-9.4l-.5-.7a2.687,2.687,0,0,1-.5-1.3V17.4a1.826,1.826,0,0,1,.8-1.3,4.366,4.366,0,0,0,2.5-3.7c.1-2.5.1-5.4,0-8.2A4.233,4.233,0,0,0,41,0H11.2A4.279,4.279,0,0,0,6.7,4.6v7.2A4.407,4.407,0,0,0,9.2,16a1.653,1.653,0,0,1,.8,1.3c0,.9.1,2.2,0,3.4a3.51,3.51,0,0,1-.6,1.8C6.8,26,4.3,29.4,1.8,32.6A9.278,9.278,0,0,0,0,38.1V69.7a10.315,10.315,0,0,0,.2,2,7.554,7.554,0,0,0,7.7,5.9H33.5a1.963,1.963,0,0,1,2.1,1.2,9.381,9.381,0,0,0,.9,1.2,12.534,12.534,0,0,0,16,2.3c7.1-4.1,13.5-7.8,19.7-11.4A12.764,12.764,0,0,0,74.4,50,12.894,12.894,0,0,0,63,47.6ZM8.7,11.6V4.7A2.386,2.386,0,0,1,11.4,2H40.6c1.9,0,2.8.8,2.8,2.7v6.9c0,1.9-.8,2.7-2.7,2.7H11.5C9.6,14.4,8.7,13.5,8.7,11.6ZM2.1,37a6.028,6.028,0,0,1,1.2-3l1.9-2.5c2-2.7,4-5.4,6.1-8.1a3.661,3.661,0,0,0,.8-2.4V16.4h28V21H24.8c-.2,0-.5,0-.6.1a1.549,1.549,0,0,0-.7,1c-.1.3.1.6.5.8a2.958,2.958,0,0,0,1,.2H39.7a1.943,1.943,0,0,1,1.6.8c2,2.7,4.1,5.5,6.1,8.2L48.8,34A5.917,5.917,0,0,1,50,37v.7H2ZM32.8,75.7H8.4a6.392,6.392,0,0,1-4.8-1.9A6.046,6.046,0,0,1,2,69.2V67.7H33.8l-.2.8a13.4,13.4,0,0,0,.1,6.3l.2.8Zm2.4-10.8a1.51,1.51,0,0,1-1.4.8H2.1V39.9h48V53.5a1.715,1.715,0,0,1-1,1.6l-4.2,2.4c-1.8,1-3.6,2.1-5.4,3.1A13.533,13.533,0,0,0,35.2,64.9ZM58.3,76.8c-.8.4-1.5.9-2.3,1.3-1.7,1-3.5,2-5.2,2.9A10.343,10.343,0,0,1,46,82.2a10.81,10.81,0,0,1-9.4-5.8,10.552,10.552,0,0,1,3.9-14c2.1-1.3,4.2-2.5,6.3-3.7l3.5-2L61,75.3ZM77,60.2a10.288,10.288,0,0,1-4.7,8.4c-2,1.3-4,2.4-6.1,3.7-.9.5-1.9,1.1-2.8,1.6l-.6.3L52.1,55.7l.6-.3c.9-.5,1.9-1.1,2.8-1.6,2-1.2,4.1-2.4,6.2-3.5a10.4,10.4,0,0,1,10.5.6A10.876,10.876,0,0,1,77,60.2Z" fill="#17a4d6" stroke="#17a4d6" stroke-width="0.3"/>
    <path id="Trazado_801" data-name="Trazado 801" d="M32.7,52.3H27.1V46.9c0-.4-.1-1.2-1-1.2-.6,0-1,.5-1,1.2v5.5H19.7a1.111,1.111,0,0,0-1.2.9,1.2,1.2,0,0,0,.2.8,1.222,1.222,0,0,0,.9.3h5.5v5.5a.975.975,0,0,0,.4.9.908.908,0,0,0,.7.3c.9,0,1-.9,1-1.2V54.4h5.6a.975.975,0,0,0,1.1-1A1.2,1.2,0,0,0,32.7,52.3Z" fill="#17a4d6" stroke="#17a4d6" stroke-width="0.3"/>
  </g>
</svg>
