<svg xmlns="http://www.w3.org/2000/svg" width="62.279" height="76.257" viewBox="0 0 62.279 76.257">
  <g id="Grupo_1008" data-name="Grupo 1008" transform="translate(-32.029 -20.463)">
    <g id="Grupo_1001" data-name="Grupo 1001" transform="translate(32.029 20.463)">
      <g id="Grupo_830" data-name="Grupo 830" transform="translate(0 0)">
        <path id="Trazado_764" data-name="Trazado 764" d="M915.589,726.75a20.589,20.589,0,0,0,5.021,5.176c2.673,1.891,5.461,3.619,8.2,5.415.405.267.833.505,1.219.795a3.145,3.145,0,0,1,1.321,3.189,3.1,3.1,0,0,1-2.379,2.665,19.762,19.762,0,0,1-10.37.057,19.962,19.962,0,0,1-9.443-5.519,30.929,30.929,0,0,0-14.527-8.506c-1.2-.318-2.4-.649-3.563-1.062a8.312,8.312,0,0,1-5.292-10.141,23.8,23.8,0,0,0,1.021-9.35c-.284-2.414-5.043-13.337-6.075-15.529-1.284-2.726-2.586-5.443-3.875-8.166-.43-.907-.34-1.158.546-1.606.818-.412,1.64-.818,2.53-1.262-.8-1.182-1.573-2.3-2.324-3.424-.48-.72-.443-1.023.289-1.506q6.994-4.619,14.01-9.2c.791-.517,1.2-.41,1.522.348a101.913,101.913,0,0,0,6.9,12.995c3.78,6.233,11.615,21.113,15.606,27.21a28.416,28.416,0,0,0,10.61,9.582c3.235,1.708,6.645,3.083,9.987,4.584a3.6,3.6,0,0,1,2.2,2.268,3.217,3.217,0,0,1-1.78,3.947,19.515,19.515,0,0,1-15.794.273,42.56,42.56,0,0,1-4.688-2.62C916.16,727.181,915.881,726.954,915.589,726.75Zm-18.638,2.279c1.33.545,2.63,1.019,3.88,1.6a34.433,34.433,0,0,1,9.581,6.91,18.352,18.352,0,0,0,17.744,5.06,1.81,1.81,0,0,0,.56-3.47c-2.307-1.441-4.63-2.857-6.886-4.373a33.139,33.139,0,0,1-12.241-14.338c-3.516-8.06-10.806-24.883-14.131-33.026-.575-1.409-1.041-2.862-1.608-4.437l-13.683,6.309c2.716,5.055,8.91,18.772,8.206,24.526C896.112,715.175,899.708,722.756,896.951,729.029Zm-12.827-48.268.063.138c.262-.117.523-.238.789-.351,2.547-1.087,5.091-2.183,7.646-3.252.9-.377,1.185-.182,1.467.766.615,2.073,1.141,4.181,1.914,6.194,2.449,6.373,9.008,21.365,11.6,27.681,1.438,3.5,3.09,6.918,4.71,10.341a3.955,3.955,0,0,0,1.31,1.378c1.105.787,2.307,1.439,3.414,2.225a21.012,21.012,0,0,0,5.9,3.127,18.744,18.744,0,0,0,13.048-.565,1.846,1.846,0,0,0,1.322-1.73,1.72,1.72,0,0,0-1.246-1.7c-2.41-1.032-4.834-2.036-7.221-3.121a33.526,33.526,0,0,1-14.675-12.385c-4.358-6.758-12.533-22.313-16.705-29.189-1.2-1.971-2.253-4.025-3.4-6.1-1.673,1.066-3.343,2.1-4.985,3.186C887.4,678.507,885.77,679.643,884.124,680.761Zm11.171,47.893c2.968-6.008-1.354-12.711-7.142-13.122-.324,1.319-.679,2.653-.976,4a6.7,6.7,0,0,0,3.448,7.494A41.4,41.4,0,0,0,895.295,728.654Zm-15.749-40.835,13.838-6.367-.743-2.649-14.277,6.537Zm12.641-17.574L879.1,678.925l1.555,2.265,12.674-8.44Z" transform="translate(-876.598 -668.453)" fill="#fff"/>
      </g>
    </g>
  </g>
</svg>
