<svg xmlns="http://www.w3.org/2000/svg" width="27.179" height="27.179" viewBox="0 0 27.179 27.179">
  <g id="Grupo_29" data-name="Grupo 29" transform="translate(0 0)">
    <path id="Trazado_13" data-name="Trazado 13" d="M4.077,4.077A12.337,12.337,0,0,1,13.59,0,12.337,12.337,0,0,1,23.1,4.077a12.337,12.337,0,0,1,4.077,9.513A12.337,12.337,0,0,1,23.1,23.1a12.337,12.337,0,0,1-9.513,4.077A12.337,12.337,0,0,1,4.077,23.1C1.585,20.384,0,17.44,0,13.59A12.337,12.337,0,0,1,4.077,4.077ZM19.7,19.7,21.29,18.12l-5.662-5.662L13.59,3.4H11.325V13.59A2.056,2.056,0,0,0,12,15.175a.791.791,0,0,0,.453.226Z" fill="#707070"/>
  </g>
</svg>
