<svg id="instagram-logo" xmlns="http://www.w3.org/2000/svg" width="47.586" height="45.764" viewBox="0 0 47.586 45.764">
  <path id="Trazado_1" data-name="Trazado 1" d="M34.454,0H13.132A12.9,12.9,0,0,0,0,12.629V33.135A12.9,12.9,0,0,0,13.132,45.764H34.454A12.9,12.9,0,0,0,47.586,33.135V12.629A12.9,12.9,0,0,0,34.454,0Zm8.91,33.135a8.754,8.754,0,0,1-8.91,8.569H13.132a8.754,8.754,0,0,1-8.91-8.569V12.629a8.754,8.754,0,0,1,8.91-8.569H34.454a8.755,8.755,0,0,1,8.91,8.569V33.135Z" transform="translate(0 0)" fill="#fff"/>
  <path id="Trazado_2" data-name="Trazado 2" d="M53.23,40.97A11.8,11.8,0,1,0,65.491,52.762,12.047,12.047,0,0,0,53.23,40.97Zm0,19.523a7.737,7.737,0,1,1,8.04-7.731A7.9,7.9,0,0,1,53.23,60.493Z" transform="translate(-29.437 -29.88)" fill="#fff"/>
  <path id="Trazado_3" data-name="Trazado 3" d="M122.017,28.251a3.172,3.172,0,0,0-2.187.872,2.894,2.894,0,0,0,0,4.212,3.183,3.183,0,0,0,4.377,0,2.9,2.9,0,0,0,0-4.212A3.173,3.173,0,0,0,122.017,28.251Z" transform="translate(-85.448 -20.604)" fill="#fff"/>
</svg>
