<?xml version="1.0" encoding="utf-8"?>
<!-- Generator: Adobe Illustrator 24.0.0, SVG Export Plug-In . SVG Version: 6.00 Build 0)  -->
<svg version="1.1" id="Capa_1" xmlns="http://www.w3.org/2000/svg" xmlns:xlink="http://www.w3.org/1999/xlink" x="0px" y="0px"
	 viewBox="0 0 404.98 149.99" style="enable-background:new 0 0 404.98 149.99;" xml:space="preserve">
<style type="text/css">
	.st0{clip-path:url(#SVGID_2_);fill:url(#SVGID_3_);}
	.st1{clip-path:url(#SVGID_5_);fill:url(#SVGID_6_);}
	.st2{clip-path:url(#SVGID_8_);fill:url(#SVGID_9_);}
	.st3{clip-path:url(#SVGID_11_);fill:url(#SVGID_12_);}
	.st4{clip-path:url(#SVGID_14_);fill:url(#SVGID_15_);}
	.st5{clip-path:url(#SVGID_17_);fill:url(#SVGID_18_);}
	.st6{clip-path:url(#SVGID_20_);fill:url(#SVGID_21_);}
	.st7{fill:url(#SVGID_22_);}
	.st8{fill:#2E368F;}
	.st9{fill-rule:evenodd;clip-rule:evenodd;fill:#2E368F;}
	.st10{fill:#FFFFFF;}
	.st11{fill:url(#SVGID_23_);}
	.st12{fill:url(#SVGID_24_);}
	.st13{fill:none;stroke:#2E368F;stroke-width:0.7087;stroke-miterlimit:10;}
</style>
<g>
	<g>
		<g>
			<g>
				<g>
					<g>
						<defs>
							<path id="SVGID_32_" d="M8.51,119.82c-6.95-6.23-8.66-14.39-8.66-21.2c0-4.8,1.65-13.17,8.02-19.55
								c4.3-4.3,10.81-7.66,21.84-7.66c2.86,0,6.87,0.21,10.38,0.86c2.72,0.5,5.01,0.93,7.3,1.07c0.79,0.07,0.93,0.36,0.93,0.79
								c0,0.57-0.22,1.43-0.36,4.01c-0.14,2.37-0.14,6.3-0.22,7.38c-0.07,1.07-0.21,1.5-0.64,1.5c-0.5,0-0.57-0.5-0.57-1.5
								c0-2.8-1.14-5.73-3-7.31c-2.51-2.15-8.02-4.08-14.32-4.08c-9.52,0-13.96,2.79-16.47,5.23C7.51,84.38,6.3,90.75,6.3,98.06
								c0,13.67,10.52,26.2,25.85,26.2c5.37,0,9.59-0.64,12.46-3.58c1.5-1.57,2.43-4.73,2.65-6.02c0.14-0.78,0.29-1.07,0.71-1.07
								c0.36,0,0.5,0.5,0.5,1.07c0,0.5-0.86,6.73-1.58,9.17c-0.43,1.36-0.57,1.5-1.86,2.08c-2.86,1.15-8.3,1.65-12.89,1.65
								C21.4,127.55,14.17,124.9,8.51,119.82z"/>
						</defs>
						<linearGradient id="SVGID_1_" gradientUnits="userSpaceOnUse" x1="-0.1478" y1="99.4881" x2="48.4663" y2="99.4881">
							<stop  offset="0" style="stop-color:#29ABE2"/>
							<stop  offset="0.203" style="stop-color:#3686C5"/>
							<stop  offset="0.4029" style="stop-color:#3A6AB0"/>
							<stop  offset="0.588" style="stop-color:#3C54A1"/>
							<stop  offset="0.7548" style="stop-color:#3D4397"/>
							<stop  offset="0.8977" style="stop-color:#3E3892"/>
							<stop  offset="1" style="stop-color:#3E3490"/>
						</linearGradient>
						<use xlink:href="#SVGID_32_"  style="overflow:visible;fill:url(#SVGID_1_);"/>
						<clipPath id="SVGID_2_">
							<use xlink:href="#SVGID_32_"  style="overflow:visible;"/>
						</clipPath>
						<linearGradient id="SVGID_3_" gradientUnits="userSpaceOnUse" x1="-12.9613" y1="100.3757" x2="398.3575" y2="100.3757">
							<stop  offset="0" style="stop-color:#29ABE2"/>
							<stop  offset="0.203" style="stop-color:#3686C5"/>
							<stop  offset="0.4029" style="stop-color:#3A6AB0"/>
							<stop  offset="0.588" style="stop-color:#3C54A1"/>
							<stop  offset="0.7548" style="stop-color:#3D4397"/>
							<stop  offset="0.8977" style="stop-color:#3E3892"/>
							<stop  offset="1" style="stop-color:#3E3490"/>
						</linearGradient>
						<rect x="-12.96" y="58.96" class="st0" width="411.32" height="82.82"/>
					</g>
					<g>
						<defs>
							<path id="SVGID_36_" d="M79.5,74.13c0.93-2.37,1.27-2.79,1.78-2.79c0.76,0,1.02,1.01,1.78,2.62
								c1.35,3.05,13.29,32.77,17.87,43.69c2.71,6.44,4.74,7.37,6.35,7.88c1.1,0.34,2.2,0.42,2.96,0.42c0.43,0,0.93,0.17,0.93,0.59
								c0,0.43-0.85,0.6-1.69,0.6c-1.1,0-6.6,0-11.77-0.17c-1.44-0.09-2.63-0.09-2.63-0.51c0-0.34,0.17-0.34,0.51-0.51
								c0.42-0.17,1.19-0.76,0.67-1.95l-6.69-16.51c-0.17-0.34-0.25-0.42-0.67-0.42H71.72c-0.34,0-0.59,0.17-0.76,0.59l-4.24,11.52
								c-0.68,1.78-1.1,3.56-1.1,4.82c0,1.44,1.27,1.95,2.54,1.95h0.68c0.59,0,0.76,0.25,0.76,0.59c0,0.43-0.42,0.6-1.1,0.6
								c-1.78,0-5.84-0.26-6.69-0.26c-0.76,0-4.49,0.26-7.53,0.26c-0.93,0-1.44-0.17-1.44-0.6c0-0.34,0.34-0.59,0.68-0.59
								c0.51,0,1.61-0.09,2.2-0.17c3.39-0.42,4.83-2.96,6.27-6.6L79.5,74.13z M87.8,104.1c0.34,0,0.34-0.17,0.26-0.51l-7.37-19.73
								c-0.42-1.1-0.85-1.1-1.27,0l-6.95,19.73c-0.08,0.34,0,0.51,0.26,0.51H87.8z"/>
						</defs>
						<linearGradient id="SVGID_4_" gradientUnits="userSpaceOnUse" x1="52.8333" y1="99.2324" x2="111.1709" y2="99.2324">
							<stop  offset="0" style="stop-color:#29ABE2"/>
							<stop  offset="0.203" style="stop-color:#3686C5"/>
							<stop  offset="0.4029" style="stop-color:#3A6AB0"/>
							<stop  offset="0.588" style="stop-color:#3C54A1"/>
							<stop  offset="0.7548" style="stop-color:#3D4397"/>
							<stop  offset="0.8977" style="stop-color:#3E3892"/>
							<stop  offset="1" style="stop-color:#3E3490"/>
						</linearGradient>
						<use xlink:href="#SVGID_36_"  style="overflow:visible;fill:url(#SVGID_4_);"/>
						<clipPath id="SVGID_5_">
							<use xlink:href="#SVGID_36_"  style="overflow:visible;"/>
						</clipPath>
						<linearGradient id="SVGID_6_" gradientUnits="userSpaceOnUse" x1="-12.9613" y1="101.1353" x2="398.361" y2="101.1353">
							<stop  offset="0" style="stop-color:#29ABE2"/>
							<stop  offset="0.203" style="stop-color:#3686C5"/>
							<stop  offset="0.4029" style="stop-color:#3A6AB0"/>
							<stop  offset="0.588" style="stop-color:#3C54A1"/>
							<stop  offset="0.7548" style="stop-color:#3D4397"/>
							<stop  offset="0.8977" style="stop-color:#3E3892"/>
							<stop  offset="1" style="stop-color:#3E3490"/>
						</linearGradient>
						<rect x="-12.96" y="59.72" class="st1" width="411.32" height="82.82"/>
					</g>
					<g>
						<defs>
							<path id="SVGID_40_" d="M121,93.52c0-11.18,0-13.21-0.17-15.5c-0.17-2.45-0.59-3.64-3.05-3.98
								c-0.59-0.08-1.86-0.17-2.54-0.17c-0.25,0-0.59-0.34-0.59-0.59c0-0.42,0.34-0.59,1.19-0.59c3.39,0,8.38,0.17,8.8,0.17
								c0.77,0,7.03-0.17,9.32-0.17c4.74,0,9.99,0.42,13.88,3.13c1.86,1.36,5.16,4.83,5.16,9.82c0,5.34-2.2,10.5-9.14,16.43
								c6.09,7.62,11.26,14.14,15.58,18.63c3.98,4.07,6.43,4.74,8.3,4.99c1.44,0.25,2.19,0.25,2.62,0.25c0.42,0,0.67,0.34,0.67,0.59
								c0,0.43-0.42,0.59-1.78,0.59h-4.65c-4.23,0-6.1-0.42-7.96-1.44c-3.22-1.69-5.93-5.17-10.16-10.59
								c-3.14-3.89-6.44-8.55-8.04-10.49c-0.34-0.34-0.51-0.43-1.02-0.43l-9.48-0.17c-0.34,0-0.51,0.17-0.51,0.59v1.69
								c0,6.94,0,12.53,0.34,15.49c0.25,2.12,0.68,3.47,2.97,3.81c1.01,0.16,2.62,0.34,3.3,0.34c0.51,0,0.59,0.34,0.59,0.59
								c0,0.34-0.34,0.59-1.18,0.59c-4.07,0-8.81-0.25-9.15-0.25c-0.08,0-5.08,0.25-7.37,0.25c-0.76,0-1.19-0.17-1.19-0.59
								c0-0.25,0.17-0.59,0.59-0.59c0.68,0,1.61-0.17,2.29-0.34c1.44-0.34,1.6-1.7,1.95-3.81c0.42-2.97,0.42-8.64,0.42-15.58V93.52z
								 M127.43,99.62c0,0.42,0.17,0.68,0.51,0.93c1.1,0.59,4.91,1.1,8.21,1.1c1.78,0,3.81-0.08,5.59-1.27
								c2.54-1.69,4.49-5.5,4.49-11c0-8.98-4.92-14.14-12.87-14.14c-2.2,0-4.57,0.25-5.34,0.42c-0.34,0.17-0.59,0.42-0.59,0.85
								V99.62z"/>
						</defs>
						<linearGradient id="SVGID_7_" gradientUnits="userSpaceOnUse" x1="114.6483" y1="99.9116" x2="171.0369" y2="99.9116">
							<stop  offset="0" style="stop-color:#29ABE2"/>
							<stop  offset="0.203" style="stop-color:#3686C5"/>
							<stop  offset="0.4029" style="stop-color:#3A6AB0"/>
							<stop  offset="0.588" style="stop-color:#3C54A1"/>
							<stop  offset="0.7548" style="stop-color:#3D4397"/>
							<stop  offset="0.8977" style="stop-color:#3E3892"/>
							<stop  offset="1" style="stop-color:#3E3490"/>
						</linearGradient>
						<use xlink:href="#SVGID_40_"  style="overflow:visible;fill:url(#SVGID_7_);"/>
						<clipPath id="SVGID_8_">
							<use xlink:href="#SVGID_40_"  style="overflow:visible;"/>
						</clipPath>
						<linearGradient id="SVGID_9_" gradientUnits="userSpaceOnUse" x1="-12.9613" y1="101.1409" x2="398.3575" y2="101.1409">
							<stop  offset="0" style="stop-color:#29ABE2"/>
							<stop  offset="0.203" style="stop-color:#3686C5"/>
							<stop  offset="0.4029" style="stop-color:#3A6AB0"/>
							<stop  offset="0.588" style="stop-color:#3C54A1"/>
							<stop  offset="0.7548" style="stop-color:#3D4397"/>
							<stop  offset="0.8977" style="stop-color:#3E3892"/>
							<stop  offset="1" style="stop-color:#3E3490"/>
						</linearGradient>
						<rect x="-12.96" y="59.73" class="st2" width="411.32" height="82.82"/>
					</g>
					<g>
						<defs>
							<path id="SVGID_44_" d="M236.83,74.04c0.93-2.37,1.27-2.79,1.78-2.79c0.76,0,1.01,1.02,1.78,2.62
								c1.35,3.05,13.29,32.77,17.86,43.69c2.71,6.43,4.75,7.36,6.35,7.87c1.1,0.34,2.2,0.42,2.96,0.42c0.42,0,0.93,0.17,0.93,0.59
								s-0.85,0.59-1.69,0.59c-1.1,0-6.61,0-11.77-0.17c-1.44-0.08-2.62-0.08-2.62-0.51c0-0.34,0.17-0.34,0.51-0.51
								c0.42-0.17,1.18-0.76,0.67-1.95l-6.69-16.51c-0.17-0.34-0.25-0.42-0.67-0.42h-17.19c-0.34,0-0.59,0.17-0.76,0.59l-4.23,11.51
								c-0.68,1.78-1.1,3.56-1.1,4.83c0,1.44,1.28,1.95,2.54,1.95h0.67c0.59,0,0.77,0.25,0.77,0.59c0,0.42-0.42,0.59-1.1,0.59
								c-1.78,0-5.84-0.26-6.68-0.26c-0.76,0-4.49,0.26-7.54,0.26c-0.93,0-1.44-0.17-1.44-0.59c0-0.34,0.34-0.59,0.68-0.59
								c0.5,0,1.61-0.08,2.2-0.17c3.39-0.42,4.83-2.96,6.27-6.6L236.83,74.04z M245.13,104.01c0.34,0,0.34-0.17,0.26-0.5
								l-7.37-19.73c-0.42-1.1-0.84-1.1-1.27,0l-6.95,19.73c-0.09,0.34,0,0.5,0.25,0.5H245.13z"/>
						</defs>
						<linearGradient id="SVGID_10_" gradientUnits="userSpaceOnUse" x1="210.1635" y1="99.1465" x2="268.4997" y2="99.1465">
							<stop  offset="0" style="stop-color:#29ABE2"/>
							<stop  offset="0.203" style="stop-color:#3686C5"/>
							<stop  offset="0.4029" style="stop-color:#3A6AB0"/>
							<stop  offset="0.588" style="stop-color:#3C54A1"/>
							<stop  offset="0.7548" style="stop-color:#3D4397"/>
							<stop  offset="0.8977" style="stop-color:#3E3892"/>
							<stop  offset="1" style="stop-color:#3E3490"/>
						</linearGradient>
						<use xlink:href="#SVGID_44_"  style="overflow:visible;fill:url(#SVGID_10_);"/>
						<clipPath id="SVGID_11_">
							<use xlink:href="#SVGID_44_"  style="overflow:visible;"/>
						</clipPath>
						<linearGradient id="SVGID_12_" gradientUnits="userSpaceOnUse" x1="-12.9651" y1="101.0523" x2="398.3575" y2="101.0523">
							<stop  offset="0" style="stop-color:#29ABE2"/>
							<stop  offset="0.203" style="stop-color:#3686C5"/>
							<stop  offset="0.4029" style="stop-color:#3A6AB0"/>
							<stop  offset="0.588" style="stop-color:#3C54A1"/>
							<stop  offset="0.7548" style="stop-color:#3D4397"/>
							<stop  offset="0.8977" style="stop-color:#3E3892"/>
							<stop  offset="1" style="stop-color:#3E3490"/>
						</linearGradient>
						<rect x="-12.97" y="59.64" class="st3" width="411.32" height="82.83"/>
					</g>
					<g>
						<defs>
							<path id="SVGID_48_" d="M320.92,73.37c0.93-2.38,1.27-2.8,1.78-2.8c0.76,0,1.02,1.02,1.78,2.63
								c1.35,3.05,13.29,32.77,17.87,43.69c2.71,6.43,4.74,7.37,6.35,7.87c1.1,0.34,2.2,0.42,2.96,0.42c0.42,0,0.93,0.17,0.93,0.59
								c0,0.43-0.85,0.59-1.7,0.59c-1.1,0-6.6,0-11.77-0.17c-1.44-0.09-2.63-0.09-2.63-0.51c0-0.34,0.17-0.34,0.51-0.51
								c0.42-0.17,1.19-0.76,0.68-1.95l-6.69-16.51c-0.17-0.34-0.26-0.42-0.68-0.42h-17.19c-0.34,0-0.59,0.16-0.76,0.59l-4.23,11.52
								c-0.68,1.78-1.1,3.55-1.1,4.82c0,1.45,1.27,1.95,2.54,1.95h0.68c0.59,0,0.76,0.25,0.76,0.59c0,0.43-0.43,0.59-1.1,0.59
								c-1.78,0-5.84-0.25-6.69-0.25c-0.76,0-4.49,0.25-7.54,0.25c-0.93,0-1.44-0.17-1.44-0.59c0-0.34,0.34-0.59,0.68-0.59
								c0.51,0,1.61-0.08,2.2-0.17c3.39-0.42,4.83-2.96,6.27-6.6L320.92,73.37z M329.21,103.34c0.34,0,0.34-0.17,0.26-0.51
								L322.1,83.1c-0.42-1.1-0.85-1.1-1.27,0l-6.94,19.73c-0.08,0.34,0,0.51,0.26,0.51H329.21z"/>
						</defs>
						<linearGradient id="SVGID_13_" gradientUnits="userSpaceOnUse" x1="294.2424" y1="98.4683" x2="352.5858" y2="98.4683">
							<stop  offset="0" style="stop-color:#29ABE2"/>
							<stop  offset="0.203" style="stop-color:#3686C5"/>
							<stop  offset="0.4029" style="stop-color:#3A6AB0"/>
							<stop  offset="0.588" style="stop-color:#3C54A1"/>
							<stop  offset="0.7548" style="stop-color:#3D4397"/>
							<stop  offset="0.8977" style="stop-color:#3E3892"/>
							<stop  offset="1" style="stop-color:#3E3490"/>
						</linearGradient>
						<use xlink:href="#SVGID_48_"  style="overflow:visible;fill:url(#SVGID_13_);"/>
						<clipPath id="SVGID_14_">
							<use xlink:href="#SVGID_48_"  style="overflow:visible;"/>
						</clipPath>
						<linearGradient id="SVGID_15_" gradientUnits="userSpaceOnUse" x1="-12.9651" y1="100.3757" x2="398.3575" y2="100.3757">
							<stop  offset="0" style="stop-color:#29ABE2"/>
							<stop  offset="0.203" style="stop-color:#3686C5"/>
							<stop  offset="0.4029" style="stop-color:#3A6AB0"/>
							<stop  offset="0.588" style="stop-color:#3C54A1"/>
							<stop  offset="0.7548" style="stop-color:#3D4397"/>
							<stop  offset="0.8977" style="stop-color:#3E3892"/>
							<stop  offset="1" style="stop-color:#3E3490"/>
						</linearGradient>
						<rect x="-12.97" y="58.96" class="st4" width="411.32" height="82.82"/>
					</g>
					<g>
						<defs>
							<path id="SVGID_52_" d="M369.18,105.63c0,10.58,0.17,14.9,1.52,16.17c1.19,1.18,4.07,1.69,9.91,1.69
								c3.89,0,7.19-0.08,8.97-2.2c0.93-1.1,1.52-2.62,1.78-4.07c0.08-0.5,0.34-0.93,0.76-0.93c0.34,0,0.51,0.34,0.51,1.1
								c0,0.76-0.51,5.08-1.1,7.2c-0.51,1.7-0.76,1.95-4.74,1.95c-5.33,0-9.48-0.09-12.95-0.25c-3.39-0.09-5.93-0.17-8.13-0.17
								c-0.34,0-1.61,0-3.05,0.09c-1.52,0.09-3.13,0.17-4.32,0.17c-0.76,0-1.18-0.17-1.18-0.59c0-0.25,0.17-0.59,0.59-0.59
								c0.68,0,1.61-0.17,2.29-0.34c1.44-0.34,1.61-1.69,1.95-3.81c0.42-2.97,0.42-8.64,0.42-15.58v-12.7
								c0-11.17,0-13.21-0.17-15.49c-0.17-2.45-0.59-3.64-3.05-3.98c-0.59-0.08-1.86-0.17-2.54-0.17c-0.26,0-0.59-0.34-0.59-0.59
								c0-0.42,0.34-0.59,1.18-0.59c3.39,0,8.04,0.16,8.47,0.16c0.34,0,5.93-0.16,8.21-0.16c0.76,0,1.18,0.16,1.18,0.59
								c0,0.26-0.34,0.51-0.59,0.51c-0.51,0-1.61,0.08-2.45,0.17c-2.21,0.42-2.63,1.52-2.79,4.06c-0.09,2.29-0.09,4.32-0.09,15.49
								V105.63z"/>
						</defs>
						<linearGradient id="SVGID_16_" gradientUnits="userSpaceOnUse" x1="356.0577" y1="99.2331" x2="392.6374" y2="99.2331">
							<stop  offset="0" style="stop-color:#29ABE2"/>
							<stop  offset="0.203" style="stop-color:#3686C5"/>
							<stop  offset="0.4029" style="stop-color:#3A6AB0"/>
							<stop  offset="0.588" style="stop-color:#3C54A1"/>
							<stop  offset="0.7548" style="stop-color:#3D4397"/>
							<stop  offset="0.8977" style="stop-color:#3E3892"/>
							<stop  offset="1" style="stop-color:#3E3490"/>
						</linearGradient>
						<use xlink:href="#SVGID_52_"  style="overflow:visible;fill:url(#SVGID_16_);"/>
						<clipPath id="SVGID_17_">
							<use xlink:href="#SVGID_52_"  style="overflow:visible;"/>
						</clipPath>
						<linearGradient id="SVGID_18_" gradientUnits="userSpaceOnUse" x1="-12.9613" y1="100.3757" x2="398.3575" y2="100.3757">
							<stop  offset="0" style="stop-color:#29ABE2"/>
							<stop  offset="0.203" style="stop-color:#3686C5"/>
							<stop  offset="0.4029" style="stop-color:#3A6AB0"/>
							<stop  offset="0.588" style="stop-color:#3C54A1"/>
							<stop  offset="0.7548" style="stop-color:#3D4397"/>
							<stop  offset="0.8977" style="stop-color:#3E3892"/>
							<stop  offset="1" style="stop-color:#3E3490"/>
						</linearGradient>
						<rect x="-12.96" y="58.96" class="st5" width="411.32" height="82.82"/>
					</g>
					<g>
						<defs>
							<path id="SVGID_56_" d="M290.09,101.02c0,8.92-0.26,12.35-2.46,16.22c-1.61,2.78-4.91,5.37-10.92,8.4
								c-1.02,0.52-2.28,1.1-3.05,1.42c-0.08,0-0.25,0.07-0.5,0.07c-0.17,0-0.51-0.07-0.51-0.32c0-0.33,0.26-0.59,0.93-0.91
								c0.93-0.39,1.95-1.04,2.62-1.49c4.83-3.69,7.11-6.53,7.11-20.68v-15.9c0-8.54,0-10.09-0.17-11.83
								c-0.17-1.88-0.59-2.78-3.05-3.04c-0.59-0.07-1.86-0.13-2.54-0.13c-0.25,0-0.59-0.26-0.59-0.45c0-0.32,0.34-0.45,1.19-0.45
								c3.39,0,8.22,0.13,8.64,0.13c0.34,0,4.99-0.13,7.28-0.13c0.85,0,1.18,0.13,1.18,0.45c0,0.19-0.34,0.45-0.59,0.45
								c-0.51,0-1.01,0-1.86,0.13c-2.03,0.32-2.46,1.09-2.62,3.04c-0.09,1.74-0.09,3.3-0.09,11.83V101.02z"/>
						</defs>
						<linearGradient id="SVGID_19_" gradientUnits="userSpaceOnUse" x1="272.6425" y1="99.5294" x2="295.2495" y2="99.5294">
							<stop  offset="0" style="stop-color:#29ABE2"/>
							<stop  offset="0.203" style="stop-color:#3686C5"/>
							<stop  offset="0.4029" style="stop-color:#3A6AB0"/>
							<stop  offset="0.588" style="stop-color:#3C54A1"/>
							<stop  offset="0.7548" style="stop-color:#3D4397"/>
							<stop  offset="0.8977" style="stop-color:#3E3892"/>
							<stop  offset="1" style="stop-color:#3E3490"/>
						</linearGradient>
						<use xlink:href="#SVGID_56_"  style="overflow:visible;fill:url(#SVGID_19_);"/>
						<clipPath id="SVGID_20_">
							<use xlink:href="#SVGID_56_"  style="overflow:visible;"/>
						</clipPath>
						<linearGradient id="SVGID_21_" gradientUnits="userSpaceOnUse" x1="-14.3817" y1="95.7837" x2="396.9372" y2="95.7837">
							<stop  offset="0" style="stop-color:#29ABE2"/>
							<stop  offset="0.203" style="stop-color:#3686C5"/>
							<stop  offset="0.4029" style="stop-color:#3A6AB0"/>
							<stop  offset="0.588" style="stop-color:#3C54A1"/>
							<stop  offset="0.7548" style="stop-color:#3D4397"/>
							<stop  offset="0.8977" style="stop-color:#3E3892"/>
							<stop  offset="1" style="stop-color:#3E3490"/>
						</linearGradient>
						<rect x="-14.38" y="61.06" class="st6" width="411.32" height="69.46"/>
					</g>
					<g>
						<linearGradient id="SVGID_22_" gradientUnits="userSpaceOnUse" x1="194.3972" y1="64.9267" x2="240.536" y2="64.9267">
							<stop  offset="0.0216" style="stop-color:#29ABE2"/>
							<stop  offset="0.2954" style="stop-color:#29A9E1"/>
							<stop  offset="0.4874" style="stop-color:#27A3DD"/>
							<stop  offset="0.6544" style="stop-color:#249AD6"/>
							<stop  offset="0.807" style="stop-color:#228DCC"/>
							<stop  offset="0.9487" style="stop-color:#1F7CC0"/>
							<stop  offset="1" style="stop-color:#1D76BB"/>
						</linearGradient>
						<path class="st7" d="M240.54,1.54c0,0-23.31,25.76-28.85,58.67c-4.21,25.03-1.34,42.13-17.29,68.09c0,0,18.5-16.7,26.91-45.96
							C226.2,65.32,224.22,26.17,240.54,1.54z"/>
					</g>
				</g>
				<g>
					<g>
						<path class="st8" d="M1.14,147.93c-1.04-0.89-1.29-2.06-1.29-3.04c0-0.69,0.25-1.88,1.2-2.79c0.64-0.62,1.6-1.1,3.23-1.1
							c0.42,0,1.03,0.04,1.54,0.12c0.4,0.07,0.74,0.14,1.09,0.16c0.11,0,0.13,0.05,0.13,0.11c0,0.08-0.02,0.21-0.05,0.58
							c-0.01,0.34-0.01,0.9-0.02,1.05c-0.01,0.16-0.06,0.22-0.12,0.22c-0.07,0-0.08-0.07-0.08-0.22c0-0.4-0.17-0.81-0.45-1.02
							c-0.37-0.31-1.15-0.57-2.09-0.57c-1.36,0-2.01,0.36-2.39,0.71c-0.79,0.72-0.95,1.64-0.95,2.68c0,1.96,1.56,3.71,3.83,3.71
							c0.79,0,1.33-0.06,1.75-0.48c0.23-0.23,0.37-0.66,0.41-0.85c0.02-0.11,0.04-0.14,0.11-0.14c0.05,0,0.09,0.07,0.09,0.14
							c0,0.07-0.14,0.96-0.25,1.31c-0.06,0.19-0.08,0.23-0.27,0.3c-0.43,0.17-1.23,0.23-1.92,0.23
							C3.05,149.03,1.98,148.66,1.14,147.93z"/>
						<path class="st8" d="M10.56,145.92c0,0.99,0,1.79,0.05,2.22c0.04,0.3,0.07,0.49,0.39,0.54c0.16,0.02,0.38,0.05,0.48,0.05
							c0.06,0,0.08,0.05,0.08,0.08c0,0.05-0.05,0.09-0.17,0.09c-0.59,0-1.28-0.04-1.33-0.04c-0.06,0-0.72,0.04-1.05,0.04
							c-0.11,0-0.17-0.02-0.17-0.09c0-0.04,0.02-0.08,0.08-0.08c0.1,0,0.23-0.02,0.33-0.05c0.2-0.05,0.24-0.24,0.28-0.54
							c0.05-0.42,0.06-1.23,0.06-2.22v-1.81c0-1.59,0-1.88-0.02-2.2c-0.02-0.35-0.11-0.51-0.34-0.55c-0.12-0.02-0.25-0.04-0.33-0.04
							c-0.05,0-0.08-0.05-0.08-0.09c0-0.06,0.05-0.08,0.17-0.08c0.35,0,1.01,0.02,1.07,0.02c0.05,0,0.74-0.02,1.06-0.02
							c0.12,0,0.17,0.02,0.17,0.08c0,0.04-0.05,0.09-0.08,0.09c-0.07,0-0.14,0-0.27,0.02c-0.29,0.06-0.35,0.21-0.37,0.57
							c-0.01,0.33-0.01,0.61-0.01,2.2V145.92z"/>
						<path class="st8" d="M14.05,144.11c0-1.59,0-1.88-0.02-2.2c-0.02-0.35-0.08-0.52-0.43-0.57c-0.08-0.01-0.27-0.02-0.36-0.02
							c-0.04,0-0.08-0.05-0.08-0.09c0-0.06,0.05-0.08,0.17-0.08c0.48,0,1.19,0.02,1.25,0.02c0.11,0,1-0.02,1.33-0.02
							c0.67,0,1.42,0.06,1.98,0.45c0.27,0.19,0.74,0.69,0.74,1.4c0,0.76-0.31,1.49-1.3,2.34c0.87,1.08,1.6,2.01,2.22,2.65
							c0.57,0.58,0.92,0.67,1.18,0.71c0.21,0.04,0.31,0.04,0.37,0.04c0.06,0,0.1,0.05,0.1,0.08c0,0.06-0.06,0.09-0.25,0.09h-0.66
							c-0.6,0-0.87-0.06-1.14-0.21c-0.46-0.24-0.85-0.73-1.45-1.51c-0.45-0.55-0.92-1.22-1.15-1.49c-0.05-0.05-0.07-0.06-0.15-0.06
							l-1.35-0.02c-0.05,0-0.07,0.02-0.07,0.09v0.24c0,0.99,0,1.78,0.05,2.2c0.04,0.3,0.1,0.49,0.42,0.54
							c0.15,0.02,0.37,0.05,0.47,0.05c0.07,0,0.08,0.05,0.08,0.08c0,0.05-0.05,0.09-0.17,0.09c-0.58,0-1.25-0.04-1.3-0.04
							c-0.01,0-0.72,0.04-1.05,0.04c-0.11,0-0.17-0.02-0.17-0.09c0-0.04,0.02-0.08,0.08-0.08c0.1,0,0.23-0.02,0.33-0.05
							c0.2-0.05,0.23-0.24,0.28-0.54c0.06-0.42,0.06-1.23,0.06-2.22V144.11z M14.97,144.98c0,0.06,0.02,0.1,0.07,0.13
							c0.16,0.08,0.7,0.16,1.17,0.16c0.25,0,0.54-0.01,0.8-0.18c0.36-0.24,0.64-0.78,0.64-1.57c0-1.28-0.7-2.01-1.83-2.01
							c-0.31,0-0.65,0.04-0.76,0.06c-0.05,0.02-0.08,0.06-0.08,0.12V144.98z"/>
						<path class="st8" d="M21.61,144.11c0-1.59,0-1.88-0.02-2.2c-0.02-0.32-0.08-0.52-0.43-0.57c-0.09-0.01-0.27-0.02-0.36-0.02
							c-0.04,0-0.08-0.05-0.08-0.09c0-0.06,0.05-0.08,0.17-0.08c0.48,0,1.12,0.02,1.22,0.02c0.1,0,0.76-0.02,1.07-0.02
							c0.12,0,0.18,0.02,0.18,0.08c0,0.04-0.05,0.09-0.1,0.09c-0.07,0-0.13,0-0.27,0.02c-0.28,0.05-0.34,0.23-0.36,0.57
							c-0.02,0.33-0.02,0.61-0.02,2.2v1.43c0,1.48,0.33,2.1,0.78,2.51c0.52,0.47,0.98,0.55,1.58,0.55c0.65,0,1.28-0.29,1.64-0.72
							c0.5-0.59,0.6-1.43,0.6-2.48v-1.29c0-1.59-0.01-1.88-0.02-2.2c-0.01-0.32-0.07-0.52-0.42-0.57c-0.08-0.01-0.27-0.02-0.36-0.02
							c-0.05,0-0.08-0.05-0.08-0.09c0-0.06,0.05-0.08,0.17-0.08c0.47,0,1.09,0.02,1.15,0.02c0.07,0,0.58-0.02,0.89-0.02
							c0.12,0,0.17,0.02,0.17,0.08c0,0.04-0.04,0.09-0.08,0.09c-0.07,0-0.13,0-0.27,0.02c-0.29,0.06-0.35,0.23-0.37,0.57
							c-0.02,0.33-0.01,0.61-0.01,2.2v1.1c0,1.11-0.14,2.35-0.99,3.07c-0.77,0.66-1.59,0.75-2.22,0.75c-0.35,0-1.46-0.02-2.21-0.72
							c-0.52-0.48-0.93-1.19-0.93-2.69V144.11z"/>
						<path class="st8" d="M35.98,146.28c0-0.83-0.02-0.95-0.46-1.04c-0.09-0.01-0.27-0.02-0.36-0.02c-0.04,0-0.08-0.05-0.08-0.08
							c0-0.07,0.05-0.08,0.17-0.08c0.48,0,1.2,0.02,1.25,0.02c0.05,0,0.71-0.02,1.04-0.02c0.12,0,0.17,0.01,0.17,0.08
							c0,0.04-0.05,0.08-0.09,0.08c-0.07,0-0.14,0-0.27,0.02c-0.29,0.05-0.37,0.21-0.4,0.57c-0.01,0.32-0.01,0.63-0.01,1.06v1.15
							c0,0.47-0.01,0.48-0.14,0.55c-0.68,0.35-1.64,0.46-2.26,0.46c-0.81,0-2.32-0.1-3.5-1.1c-0.65-0.54-1.27-1.64-1.27-2.91
							c0-1.64,0.83-2.79,1.77-3.36c0.95-0.58,2.01-0.65,2.82-0.65c0.67,0,1.42,0.12,1.63,0.17c0.22,0.05,0.59,0.11,0.86,0.11
							c0.11,0,0.13,0.05,0.13,0.1c0,0.14-0.06,0.42-0.06,1.45c0,0.17-0.05,0.22-0.12,0.22c-0.06,0-0.07-0.06-0.07-0.16
							c-0.01-0.13-0.07-0.43-0.24-0.67c-0.27-0.39-1.07-0.8-2.45-0.8c-0.64,0-1.41,0.05-2.22,0.66c-0.62,0.47-1.05,1.39-1.05,2.58
							c0,1.44,0.75,2.48,1.12,2.83c0.84,0.78,1.74,1.07,2.72,1.07c0.37,0,0.87-0.04,1.15-0.19c0.13-0.07,0.22-0.12,0.22-0.31V146.28
							z"/>
						<path class="st8" d="M41.1,145.92c0,0.99,0,1.79,0.05,2.22c0.04,0.3,0.07,0.49,0.39,0.54c0.16,0.02,0.38,0.05,0.48,0.05
							c0.06,0,0.08,0.05,0.08,0.08c0,0.05-0.05,0.09-0.17,0.09c-0.59,0-1.28-0.04-1.33-0.04c-0.06,0-0.72,0.04-1.05,0.04
							c-0.11,0-0.17-0.02-0.17-0.09c0-0.04,0.02-0.08,0.08-0.08c0.1,0,0.23-0.02,0.33-0.05c0.2-0.05,0.24-0.24,0.28-0.54
							c0.05-0.42,0.06-1.23,0.06-2.22v-1.81c0-1.59,0-1.88-0.02-2.2c-0.02-0.35-0.11-0.51-0.34-0.55c-0.12-0.02-0.25-0.04-0.33-0.04
							c-0.05,0-0.08-0.05-0.08-0.09c0-0.06,0.05-0.08,0.17-0.08c0.35,0,1.01,0.02,1.07,0.02c0.05,0,0.74-0.02,1.06-0.02
							c0.12,0,0.17,0.02,0.17,0.08c0,0.04-0.05,0.09-0.08,0.09c-0.07,0-0.14,0-0.27,0.02c-0.29,0.06-0.35,0.21-0.37,0.57
							c-0.01,0.33-0.01,0.61-0.01,2.2V145.92z"/>
						<path class="st8" d="M46.44,141.35c0.13-0.34,0.18-0.4,0.25-0.4c0.11,0,0.15,0.14,0.25,0.37c0.19,0.43,1.89,4.66,2.55,6.22
							c0.38,0.92,0.67,1.05,0.91,1.12c0.15,0.05,0.31,0.06,0.42,0.06c0.06,0,0.13,0.02,0.13,0.08c0,0.06-0.12,0.09-0.24,0.09
							c-0.16,0-0.94,0-1.68-0.02c-0.2-0.01-0.37-0.01-0.37-0.07c0-0.05,0.02-0.05,0.07-0.07c0.06-0.02,0.17-0.11,0.1-0.28
							l-0.95-2.35c-0.02-0.05-0.04-0.06-0.1-0.06h-2.45c-0.05,0-0.08,0.02-0.11,0.08l-0.6,1.64c-0.1,0.25-0.16,0.51-0.16,0.69
							c0,0.21,0.18,0.28,0.36,0.28h0.1c0.08,0,0.11,0.04,0.11,0.08c0,0.06-0.06,0.09-0.16,0.09c-0.25,0-0.83-0.04-0.95-0.04
							c-0.11,0-0.64,0.04-1.07,0.04c-0.13,0-0.21-0.02-0.21-0.09c0-0.05,0.05-0.08,0.1-0.08c0.07,0,0.23-0.01,0.31-0.02
							c0.48-0.06,0.69-0.42,0.89-0.94L46.44,141.35z M47.62,145.62c0.05,0,0.05-0.02,0.04-0.07l-1.05-2.81
							c-0.06-0.16-0.12-0.16-0.18,0l-0.99,2.81c-0.01,0.05,0,0.07,0.04,0.07H47.62z"/>
						<path class="st8" d="M56.27,144.11c0-1.59,0-1.88-0.02-2.2c-0.02-0.35-0.08-0.52-0.43-0.57c-0.08-0.01-0.27-0.02-0.36-0.02
							c-0.04,0-0.08-0.05-0.08-0.09c0-0.06,0.05-0.08,0.17-0.08c0.48,0,1.15,0.02,1.23,0.02c0.23,0,1.02-0.02,1.51-0.02
							c1.37,0,1.85,0.42,2.03,0.58c0.24,0.22,0.53,0.67,0.53,1.23c0,1.47-1.11,2.45-2.74,2.45c-0.06,0-0.24,0-0.3-0.01
							c-0.05,0-0.11-0.05-0.11-0.1c0-0.09,0.06-0.11,0.28-0.11c1.15,0,1.97-0.72,1.97-1.65c0-0.34-0.04-1-0.6-1.55
							c-0.56-0.55-1.2-0.5-1.44-0.5c-0.18,0-0.48,0.05-0.59,0.07c-0.06,0.01-0.08,0.08-0.08,0.19v4.17c0,0.99,0,1.79,0.05,2.22
							c0.04,0.3,0.1,0.49,0.42,0.54c0.15,0.02,0.37,0.05,0.47,0.05c0.06,0,0.08,0.05,0.08,0.08c0,0.05-0.05,0.09-0.17,0.09
							c-0.58,0-1.28-0.04-1.33-0.04c-0.04,0-0.72,0.04-1.05,0.04c-0.11,0-0.17-0.02-0.17-0.09c0-0.04,0.02-0.08,0.08-0.08
							c0.1,0,0.23-0.02,0.33-0.05c0.2-0.05,0.23-0.24,0.28-0.54c0.06-0.42,0.06-1.23,0.06-2.22V144.11z"/>
						<path class="st8" d="M64.13,145.95c0,1.51,0.02,2.12,0.22,2.3c0.17,0.17,0.58,0.24,1.41,0.24c0.56,0,1.02-0.01,1.28-0.31
							c0.13-0.16,0.22-0.37,0.25-0.58c0.01-0.07,0.05-0.13,0.11-0.13c0.05,0,0.07,0.05,0.07,0.16c0,0.11-0.07,0.72-0.16,1.02
							c-0.07,0.24-0.11,0.28-0.67,0.28c-0.76,0-1.35-0.01-1.85-0.04c-0.48-0.01-0.84-0.02-1.16-0.02c-0.05,0-0.23,0-0.43,0.01
							c-0.22,0.01-0.45,0.02-0.62,0.02c-0.11,0-0.17-0.02-0.17-0.09c0-0.04,0.02-0.08,0.08-0.08c0.1,0,0.23-0.02,0.33-0.05
							c0.2-0.05,0.23-0.24,0.28-0.54c0.06-0.42,0.06-1.23,0.06-2.22v-1.81c0-1.59,0-1.88-0.02-2.2c-0.02-0.35-0.08-0.52-0.43-0.57
							c-0.08-0.01-0.27-0.02-0.36-0.02c-0.04,0-0.08-0.05-0.08-0.09c0-0.06,0.05-0.08,0.17-0.08c0.48,0,1.15,0.02,1.21,0.02
							c0.05,0,0.85-0.02,1.17-0.02c0.11,0,0.17,0.02,0.17,0.08c0,0.04-0.05,0.07-0.08,0.07c-0.07,0-0.23,0.01-0.35,0.02
							c-0.31,0.06-0.37,0.22-0.4,0.58c-0.01,0.33-0.01,0.61-0.01,2.2V145.95z"/>
						<path class="st8" d="M71.34,141.35c0.13-0.34,0.18-0.4,0.25-0.4c0.11,0,0.15,0.14,0.25,0.37c0.19,0.43,1.89,4.66,2.55,6.22
							c0.38,0.92,0.67,1.05,0.91,1.12c0.15,0.05,0.31,0.06,0.42,0.06c0.06,0,0.13,0.02,0.13,0.08c0,0.06-0.12,0.09-0.24,0.09
							c-0.16,0-0.94,0-1.68-0.02c-0.2-0.01-0.37-0.01-0.37-0.07c0-0.05,0.02-0.05,0.07-0.07c0.06-0.02,0.17-0.11,0.1-0.28
							l-0.95-2.35c-0.02-0.05-0.04-0.06-0.1-0.06h-2.45c-0.05,0-0.08,0.02-0.11,0.08l-0.6,1.64c-0.1,0.25-0.16,0.51-0.16,0.69
							c0,0.21,0.18,0.28,0.36,0.28h0.1c0.08,0,0.11,0.04,0.11,0.08c0,0.06-0.06,0.09-0.16,0.09c-0.25,0-0.83-0.04-0.95-0.04
							c-0.11,0-0.64,0.04-1.07,0.04c-0.13,0-0.21-0.02-0.21-0.09c0-0.05,0.05-0.08,0.1-0.08c0.07,0,0.23-0.01,0.31-0.02
							c0.48-0.06,0.69-0.42,0.89-0.94L71.34,141.35z M72.52,145.62c0.05,0,0.05-0.02,0.04-0.07l-1.05-2.81
							c-0.06-0.16-0.12-0.16-0.18,0l-0.99,2.81c-0.01,0.05,0,0.07,0.04,0.07H72.52z"/>
						<path class="st8" d="M76.47,148.75c-0.15-0.07-0.16-0.11-0.16-0.39c0-0.51,0.05-0.92,0.06-1.08c0-0.11,0.02-0.17,0.08-0.17
							c0.06,0,0.1,0.04,0.1,0.12c0,0.08,0,0.23,0.04,0.37c0.17,0.75,0.96,1.01,1.68,1.01c1.05,0,1.59-0.59,1.59-1.36
							c0-0.73-0.4-1.08-1.34-1.78l-0.48-0.36c-1.15-0.85-1.52-1.48-1.52-2.19c0-1.2,0.95-1.93,2.35-1.93c0.42,0,0.85,0.06,1.1,0.12
							c0.21,0.05,0.29,0.05,0.37,0.05s0.11,0.01,0.11,0.07c0,0.05-0.05,0.39-0.05,1.08c0,0.16-0.01,0.23-0.08,0.23
							c-0.07,0-0.08-0.05-0.09-0.13c-0.01-0.12-0.1-0.4-0.16-0.51c-0.07-0.12-0.42-0.51-1.38-0.51c-0.77,0-1.41,0.39-1.41,1.11
							c0,0.65,0.33,1.02,1.38,1.74l0.3,0.2c1.29,0.88,1.74,1.59,1.74,2.47c0,0.6-0.23,1.25-0.99,1.75
							c-0.45,0.29-1.11,0.36-1.69,0.36C77.52,149.03,76.9,148.96,76.47,148.75z"/>
						<path class="st8" d="M85.99,145.92c0,0.99,0,1.79,0.05,2.22c0.04,0.3,0.08,0.49,0.41,0.54c0.15,0.02,0.39,0.05,0.49,0.05
							c0.07,0,0.08,0.05,0.08,0.08c0,0.05-0.05,0.09-0.17,0.09c-0.58,0-1.25-0.04-1.31-0.04c-0.05,0-0.78,0.04-1.1,0.04
							c-0.12,0-0.17-0.02-0.17-0.09c0-0.04,0.02-0.07,0.09-0.07c0.09,0,0.22-0.02,0.31-0.05c0.22-0.05,0.28-0.25,0.31-0.55
							c0.05-0.42,0.05-1.23,0.05-2.22v-4.3l-1.53,0.02c-0.66,0.01-0.92,0.09-1.07,0.33c-0.12,0.18-0.13,0.25-0.17,0.32
							c-0.02,0.08-0.06,0.1-0.11,0.1c-0.02,0-0.07-0.02-0.07-0.08c0-0.11,0.21-1.02,0.23-1.11c0.01-0.06,0.07-0.19,0.11-0.19
							c0.07,0,0.18,0.08,0.47,0.12c0.3,0.04,0.71,0.05,0.83,0.05h4.01c0.35,0,0.59-0.02,0.76-0.05c0.15-0.02,0.25-0.05,0.3-0.05
							c0.05,0,0.05,0.06,0.05,0.12c0,0.31-0.04,1.05-0.04,1.17c0,0.08-0.05,0.13-0.09,0.13c-0.05,0-0.07-0.04-0.08-0.18l-0.01-0.11
							c-0.04-0.31-0.27-0.54-1.28-0.57l-1.33-0.02V145.92z"/>
						<path class="st8" d="M92,145.92c0,0.99,0,1.79,0.05,2.22c0.04,0.3,0.07,0.49,0.39,0.54c0.16,0.02,0.38,0.05,0.48,0.05
							c0.06,0,0.08,0.05,0.08,0.08c0,0.05-0.05,0.09-0.17,0.09c-0.59,0-1.28-0.04-1.33-0.04c-0.06,0-0.72,0.04-1.05,0.04
							c-0.11,0-0.17-0.02-0.17-0.09c0-0.04,0.02-0.08,0.08-0.08c0.1,0,0.23-0.02,0.33-0.05c0.2-0.05,0.24-0.24,0.28-0.54
							c0.05-0.42,0.06-1.23,0.06-2.22v-1.81c0-1.59,0-1.88-0.02-2.2c-0.02-0.35-0.11-0.51-0.34-0.55c-0.12-0.02-0.25-0.04-0.33-0.04
							c-0.05,0-0.08-0.05-0.08-0.09c0-0.06,0.05-0.08,0.17-0.08c0.35,0,1.01,0.02,1.07,0.02c0.05,0,0.74-0.02,1.06-0.02
							c0.12,0,0.17,0.02,0.17,0.08c0,0.04-0.05,0.09-0.08,0.09c-0.07,0-0.14,0-0.27,0.02c-0.29,0.06-0.35,0.21-0.37,0.57
							c-0.01,0.33-0.01,0.61-0.01,2.2V145.92z"/>
						<path class="st8" d="M95.64,147.93c-1.04-0.89-1.29-2.06-1.29-3.04c0-0.69,0.25-1.88,1.2-2.79c0.64-0.62,1.6-1.1,3.23-1.1
							c0.42,0,1.03,0.04,1.54,0.12c0.4,0.07,0.74,0.14,1.09,0.16c0.11,0,0.13,0.05,0.13,0.11c0,0.08-0.02,0.21-0.05,0.58
							c-0.01,0.34-0.01,0.9-0.02,1.05c-0.01,0.16-0.06,0.22-0.12,0.22c-0.07,0-0.08-0.07-0.08-0.22c0-0.4-0.17-0.81-0.45-1.02
							c-0.37-0.31-1.15-0.57-2.09-0.57c-1.36,0-2.01,0.36-2.39,0.71c-0.79,0.72-0.95,1.64-0.95,2.68c0,1.96,1.56,3.71,3.83,3.71
							c0.79,0,1.33-0.06,1.75-0.48c0.23-0.23,0.37-0.66,0.41-0.85c0.02-0.11,0.04-0.14,0.11-0.14c0.05,0,0.09,0.07,0.09,0.14
							c0,0.07-0.14,0.96-0.25,1.31c-0.06,0.19-0.08,0.23-0.27,0.3c-0.43,0.17-1.23,0.23-1.92,0.23
							C97.55,149.03,96.48,148.66,95.64,147.93z"/>
						<path class="st8" d="M105.71,141.35c0.13-0.34,0.18-0.4,0.25-0.4c0.11,0,0.15,0.14,0.25,0.37c0.19,0.43,1.89,4.66,2.55,6.22
							c0.38,0.92,0.67,1.05,0.91,1.12c0.15,0.05,0.31,0.06,0.42,0.06c0.06,0,0.13,0.02,0.13,0.08c0,0.06-0.12,0.09-0.24,0.09
							c-0.16,0-0.94,0-1.68-0.02c-0.2-0.01-0.37-0.01-0.37-0.07c0-0.05,0.02-0.05,0.07-0.07c0.06-0.02,0.17-0.11,0.1-0.28
							l-0.95-2.35c-0.02-0.05-0.04-0.06-0.1-0.06h-2.45c-0.05,0-0.08,0.02-0.11,0.08l-0.6,1.64c-0.1,0.25-0.16,0.51-0.16,0.69
							c0,0.21,0.18,0.28,0.36,0.28h0.1c0.08,0,0.11,0.04,0.11,0.08c0,0.06-0.06,0.09-0.16,0.09c-0.25,0-0.83-0.04-0.95-0.04
							c-0.11,0-0.64,0.04-1.07,0.04c-0.13,0-0.21-0.02-0.21-0.09c0-0.05,0.05-0.08,0.1-0.08c0.07,0,0.23-0.01,0.31-0.02
							c0.48-0.06,0.69-0.42,0.89-0.94L105.71,141.35z M106.89,145.62c0.05,0,0.05-0.02,0.04-0.07l-1.05-2.81
							c-0.06-0.16-0.12-0.16-0.18,0l-0.99,2.81c-0.01,0.05,0,0.07,0.04,0.07H106.89z"/>
						<path class="st8" d="M115.54,144.11c0-1.59,0-1.88-0.02-2.2c-0.02-0.35-0.08-0.52-0.43-0.57c-0.08-0.01-0.27-0.02-0.36-0.02
							c-0.04,0-0.08-0.05-0.08-0.09c0-0.06,0.05-0.08,0.17-0.08c0.48,0,1.19,0.02,1.25,0.02c0.11,0,1-0.02,1.33-0.02
							c0.67,0,1.42,0.06,1.98,0.45c0.27,0.19,0.74,0.69,0.74,1.4c0,0.76-0.31,1.49-1.3,2.34c0.87,1.08,1.6,2.01,2.22,2.65
							c0.57,0.58,0.92,0.67,1.18,0.71c0.21,0.04,0.31,0.04,0.37,0.04c0.06,0,0.1,0.05,0.1,0.08c0,0.06-0.06,0.09-0.25,0.09h-0.66
							c-0.6,0-0.87-0.06-1.14-0.21c-0.46-0.24-0.85-0.73-1.45-1.51c-0.45-0.55-0.92-1.22-1.15-1.49c-0.05-0.05-0.07-0.06-0.15-0.06
							l-1.35-0.02c-0.05,0-0.07,0.02-0.07,0.09v0.24c0,0.99,0,1.78,0.05,2.2c0.04,0.3,0.1,0.49,0.42,0.54
							c0.15,0.02,0.37,0.05,0.47,0.05c0.07,0,0.08,0.05,0.08,0.08c0,0.05-0.05,0.09-0.17,0.09c-0.58,0-1.25-0.04-1.3-0.04
							c-0.01,0-0.72,0.04-1.05,0.04c-0.11,0-0.17-0.02-0.17-0.09c0-0.04,0.02-0.08,0.08-0.08c0.1,0,0.23-0.02,0.33-0.05
							c0.2-0.05,0.23-0.24,0.28-0.54c0.06-0.42,0.06-1.23,0.06-2.22V144.11z M116.46,144.98c0,0.06,0.02,0.1,0.07,0.13
							c0.16,0.08,0.7,0.16,1.17,0.16c0.25,0,0.54-0.01,0.8-0.18c0.36-0.24,0.64-0.78,0.64-1.57c0-1.28-0.7-2.01-1.83-2.01
							c-0.31,0-0.65,0.04-0.76,0.06c-0.05,0.02-0.08,0.06-0.08,0.12V144.98z"/>
						<path class="st8" d="M123.64,144.11c0-1.59,0-1.88-0.02-2.2c-0.02-0.35-0.08-0.52-0.43-0.57c-0.08-0.01-0.27-0.02-0.36-0.02
							c-0.04,0-0.08-0.05-0.08-0.09c0-0.06,0.05-0.08,0.17-0.08c0.48,0,1.17,0.02,1.23,0.02c0.07,0,2.29,0.01,2.53,0
							c0.21-0.01,0.4-0.05,0.48-0.06c0.05-0.01,0.1-0.05,0.15-0.05c0.04,0,0.05,0.05,0.05,0.1c0,0.07-0.06,0.19-0.08,0.48
							c-0.01,0.1-0.04,0.55-0.06,0.67c-0.01,0.05-0.05,0.11-0.1,0.11c-0.06,0-0.08-0.05-0.08-0.13c0-0.07-0.01-0.24-0.06-0.36
							c-0.07-0.17-0.18-0.24-0.76-0.31c-0.18-0.02-1.41-0.04-1.53-0.04c-0.05,0-0.06,0.04-0.06,0.11v2.78c0,0.07,0,0.11,0.06,0.11
							c0.13,0,1.53,0,1.77-0.02c0.25-0.02,0.41-0.04,0.52-0.14c0.07-0.07,0.12-0.13,0.16-0.13c0.04,0,0.06,0.02,0.06,0.08
							c0,0.06-0.06,0.23-0.08,0.57c-0.02,0.2-0.05,0.59-0.05,0.66c0,0.09-0.02,0.19-0.1,0.19c-0.05,0-0.07-0.04-0.07-0.1
							c0-0.1,0-0.21-0.05-0.34c-0.04-0.14-0.13-0.27-0.54-0.31c-0.29-0.04-1.42-0.05-1.6-0.05c-0.06,0-0.07,0.04-0.07,0.07v0.85
							c0,0.35-0.01,1.54,0,1.75c0.02,0.69,0.22,0.82,1.27,0.82c0.28,0,0.79,0,1.06-0.11c0.28-0.12,0.42-0.3,0.48-0.71
							c0.02-0.12,0.05-0.16,0.11-0.16s0.07,0.09,0.07,0.16c0,0.07-0.08,0.77-0.15,0.99c-0.07,0.27-0.18,0.27-0.59,0.27
							c-0.8,0-1.41-0.02-1.85-0.04c-0.45-0.02-0.72-0.02-0.88-0.02c-0.02,0-0.23,0-0.46,0.01c-0.21,0.01-0.45,0.02-0.62,0.02
							c-0.11,0-0.17-0.02-0.17-0.09c0-0.04,0.02-0.08,0.08-0.08c0.1,0,0.23-0.04,0.33-0.05c0.2-0.04,0.23-0.24,0.28-0.54
							c0.06-0.42,0.06-1.23,0.06-2.22V144.11z"/>
						<path class="st8" d="M130.37,147.93c-1.04-0.89-1.29-2.06-1.29-3.04c0-0.69,0.25-1.88,1.2-2.79c0.64-0.62,1.6-1.1,3.23-1.1
							c0.42,0,1.03,0.04,1.54,0.12c0.4,0.07,0.74,0.14,1.09,0.16c0.11,0,0.13,0.05,0.13,0.11c0,0.08-0.02,0.21-0.05,0.58
							c-0.01,0.34-0.01,0.9-0.02,1.05c-0.01,0.16-0.06,0.22-0.12,0.22c-0.07,0-0.08-0.07-0.08-0.22c0-0.4-0.17-0.81-0.45-1.02
							c-0.37-0.31-1.15-0.57-2.09-0.57c-1.36,0-2.01,0.36-2.39,0.71c-0.79,0.72-0.95,1.64-0.95,2.68c0,1.96,1.56,3.71,3.83,3.71
							c0.79,0,1.33-0.06,1.75-0.48c0.23-0.23,0.37-0.66,0.41-0.85c0.02-0.11,0.04-0.14,0.11-0.14c0.05,0,0.09,0.07,0.09,0.14
							c0,0.07-0.14,0.96-0.25,1.31c-0.06,0.19-0.08,0.23-0.27,0.3c-0.43,0.17-1.23,0.23-1.92,0.23
							C132.28,149.03,131.21,148.66,130.37,147.93z"/>
						<path class="st8" d="M141.72,141.01c2.39,0,4.2,1.46,4.2,3.84c0,2.29-1.7,4.18-4.26,4.18c-2.91,0-4.15-2.18-4.15-4.02
							C137.51,143.35,138.79,141.01,141.72,141.01z M141.96,148.61c0.95,0,2.87-0.51,2.87-3.47c0-2.46-1.5-3.75-3.17-3.75
							c-1.77,0-3.05,1.11-3.05,3.34C138.61,147.11,140.05,148.61,141.96,148.61z"/>
						<path class="st8" d="M148.59,147.5c0.02,0.84,0.12,1.1,0.41,1.17c0.2,0.05,0.44,0.06,0.53,0.06c0.05,0,0.09,0.04,0.09,0.08
							c0,0.06-0.07,0.09-0.2,0.09c-0.6,0-1.02-0.04-1.12-0.04c-0.09,0-0.54,0.04-1.02,0.04c-0.11,0-0.17-0.01-0.17-0.09
							c0-0.05,0.04-0.08,0.08-0.08c0.09,0,0.28-0.01,0.44-0.06c0.27-0.07,0.3-0.35,0.3-1.28v-5.87c0-0.41,0.06-0.52,0.15-0.52
							c0.12,0,0.3,0.21,0.41,0.31c0.17,0.17,1.71,1.81,3.36,3.49c1.05,1.08,2.18,2.3,2.51,2.64l-0.11-5.13
							c-0.01-0.66-0.07-0.89-0.4-0.95c-0.19-0.04-0.43-0.05-0.52-0.05c-0.07,0-0.09-0.06-0.09-0.1c0-0.06,0.09-0.07,0.21-0.07
							c0.48,0,0.99,0.02,1.11,0.02c0.12,0,0.47-0.02,0.91-0.02c0.11,0,0.19,0.01,0.19,0.07c0,0.04-0.05,0.1-0.12,0.1
							c-0.05,0-0.13,0-0.25,0.02c-0.35,0.07-0.37,0.28-0.37,0.89l-0.02,6c0,0.67-0.01,0.73-0.08,0.73c-0.11,0-0.22-0.08-0.81-0.63
							c-0.11-0.1-1.64-1.6-2.76-2.77c-1.23-1.29-2.43-2.54-2.75-2.9L148.59,147.5z"/>
						<path class="st8" d="M157.29,148.75c-0.15-0.07-0.16-0.11-0.16-0.39c0-0.51,0.05-0.92,0.06-1.08c0-0.11,0.02-0.17,0.08-0.17
							c0.06,0,0.1,0.04,0.1,0.12c0,0.08,0,0.23,0.04,0.37c0.17,0.75,0.96,1.01,1.68,1.01c1.05,0,1.59-0.59,1.59-1.36
							c0-0.73-0.4-1.08-1.34-1.78l-0.48-0.36c-1.15-0.85-1.52-1.48-1.52-2.19c0-1.2,0.95-1.93,2.35-1.93c0.42,0,0.85,0.06,1.1,0.12
							c0.21,0.05,0.29,0.05,0.37,0.05c0.08,0,0.11,0.01,0.11,0.07c0,0.05-0.05,0.39-0.05,1.08c0,0.16-0.01,0.23-0.08,0.23
							c-0.07,0-0.08-0.05-0.09-0.13c-0.01-0.12-0.1-0.4-0.16-0.51c-0.07-0.12-0.42-0.51-1.38-0.51c-0.77,0-1.41,0.39-1.41,1.11
							c0,0.65,0.33,1.02,1.38,1.74l0.3,0.2c1.29,0.88,1.74,1.59,1.74,2.47c0,0.6-0.23,1.25-0.99,1.75
							c-0.45,0.29-1.11,0.36-1.69,0.36C158.34,149.03,157.73,148.96,157.29,148.75z"/>
						<path class="st8" d="M166.82,145.92c0,0.99,0,1.79,0.05,2.22c0.04,0.3,0.08,0.49,0.41,0.54c0.15,0.02,0.39,0.05,0.49,0.05
							c0.07,0,0.08,0.05,0.08,0.08c0,0.05-0.05,0.09-0.17,0.09c-0.58,0-1.25-0.04-1.31-0.04c-0.05,0-0.78,0.04-1.1,0.04
							c-0.12,0-0.17-0.02-0.17-0.09c0-0.04,0.02-0.07,0.09-0.07c0.09,0,0.22-0.02,0.31-0.05c0.22-0.05,0.28-0.25,0.31-0.55
							c0.05-0.42,0.05-1.23,0.05-2.22v-4.3l-1.53,0.02c-0.66,0.01-0.92,0.09-1.07,0.33c-0.12,0.18-0.13,0.25-0.17,0.32
							c-0.02,0.08-0.06,0.1-0.11,0.1c-0.02,0-0.07-0.02-0.07-0.08c0-0.11,0.21-1.02,0.23-1.11c0.01-0.06,0.07-0.19,0.11-0.19
							c0.07,0,0.18,0.08,0.47,0.12c0.3,0.04,0.71,0.05,0.83,0.05h4.01c0.35,0,0.59-0.02,0.76-0.05c0.15-0.02,0.25-0.05,0.3-0.05
							c0.05,0,0.05,0.06,0.05,0.12c0,0.31-0.04,1.05-0.04,1.17c0,0.08-0.05,0.13-0.09,0.13c-0.05,0-0.07-0.04-0.08-0.18l-0.01-0.11
							c-0.04-0.31-0.27-0.54-1.28-0.57l-1.33-0.02V145.92z"/>
						<path class="st8" d="M171.86,144.11c0-1.59,0-1.88-0.02-2.2c-0.02-0.35-0.08-0.52-0.43-0.57c-0.08-0.01-0.27-0.02-0.36-0.02
							c-0.04,0-0.08-0.05-0.08-0.09c0-0.06,0.05-0.08,0.17-0.08c0.48,0,1.19,0.02,1.25,0.02c0.11,0,1-0.02,1.33-0.02
							c0.67,0,1.42,0.06,1.98,0.45c0.27,0.19,0.74,0.69,0.74,1.4c0,0.76-0.31,1.49-1.3,2.34c0.87,1.08,1.6,2.01,2.22,2.65
							c0.57,0.58,0.92,0.67,1.18,0.71c0.21,0.04,0.31,0.04,0.37,0.04c0.06,0,0.1,0.05,0.1,0.08c0,0.06-0.06,0.09-0.25,0.09h-0.66
							c-0.6,0-0.87-0.06-1.14-0.21c-0.46-0.24-0.85-0.73-1.45-1.51c-0.45-0.55-0.92-1.22-1.15-1.49c-0.05-0.05-0.07-0.06-0.15-0.06
							l-1.35-0.02c-0.05,0-0.07,0.02-0.07,0.09v0.24c0,0.99,0,1.78,0.05,2.2c0.04,0.3,0.1,0.49,0.42,0.54
							c0.15,0.02,0.37,0.05,0.47,0.05c0.07,0,0.08,0.05,0.08,0.08c0,0.05-0.05,0.09-0.17,0.09c-0.58,0-1.25-0.04-1.3-0.04
							c-0.01,0-0.72,0.04-1.05,0.04c-0.11,0-0.17-0.02-0.17-0.09c0-0.04,0.02-0.08,0.08-0.08c0.1,0,0.23-0.02,0.33-0.05
							c0.2-0.05,0.23-0.24,0.28-0.54c0.06-0.42,0.06-1.23,0.06-2.22V144.11z M172.78,144.98c0,0.06,0.02,0.1,0.07,0.13
							c0.16,0.08,0.7,0.16,1.17,0.16c0.25,0,0.54-0.01,0.8-0.18c0.36-0.24,0.64-0.78,0.64-1.57c0-1.28-0.7-2.01-1.83-2.01
							c-0.31,0-0.65,0.04-0.76,0.06c-0.05,0.02-0.08,0.06-0.08,0.12V144.98z"/>
						<path class="st8" d="M179.42,144.11c0-1.59,0-1.88-0.02-2.2c-0.02-0.32-0.08-0.52-0.43-0.57c-0.09-0.01-0.27-0.02-0.36-0.02
							c-0.04,0-0.08-0.05-0.08-0.09c0-0.06,0.05-0.08,0.17-0.08c0.48,0,1.12,0.02,1.22,0.02c0.1,0,0.76-0.02,1.07-0.02
							c0.12,0,0.18,0.02,0.18,0.08c0,0.04-0.05,0.09-0.1,0.09c-0.07,0-0.13,0-0.27,0.02c-0.28,0.05-0.34,0.23-0.36,0.57
							c-0.02,0.33-0.02,0.61-0.02,2.2v1.43c0,1.48,0.33,2.1,0.78,2.51c0.52,0.47,0.98,0.55,1.58,0.55c0.65,0,1.28-0.29,1.64-0.72
							c0.5-0.59,0.6-1.43,0.6-2.48v-1.29c0-1.59-0.01-1.88-0.02-2.2c-0.01-0.32-0.07-0.52-0.42-0.57c-0.08-0.01-0.27-0.02-0.36-0.02
							c-0.05,0-0.08-0.05-0.08-0.09c0-0.06,0.05-0.08,0.17-0.08c0.47,0,1.09,0.02,1.15,0.02c0.07,0,0.58-0.02,0.89-0.02
							c0.12,0,0.17,0.02,0.17,0.08c0,0.04-0.04,0.09-0.08,0.09c-0.07,0-0.13,0-0.27,0.02c-0.29,0.06-0.35,0.23-0.37,0.57
							c-0.02,0.33-0.01,0.61-0.01,2.2v1.1c0,1.11-0.14,2.35-0.99,3.07c-0.77,0.66-1.59,0.75-2.22,0.75c-0.35,0-1.46-0.02-2.21-0.72
							c-0.52-0.48-0.93-1.19-0.93-2.69V144.11z"/>
						<path class="st8" d="M188.87,147.93c-1.04-0.89-1.29-2.06-1.29-3.04c0-0.69,0.25-1.88,1.2-2.79c0.64-0.62,1.6-1.1,3.23-1.1
							c0.42,0,1.03,0.04,1.54,0.12c0.4,0.07,0.74,0.14,1.09,0.16c0.11,0,0.13,0.05,0.13,0.11c0,0.08-0.02,0.21-0.05,0.58
							c-0.01,0.34-0.01,0.9-0.02,1.05c-0.01,0.16-0.06,0.22-0.12,0.22c-0.07,0-0.08-0.07-0.08-0.22c0-0.4-0.17-0.81-0.45-1.02
							c-0.37-0.31-1.15-0.57-2.09-0.57c-1.36,0-2.01,0.36-2.39,0.71c-0.79,0.72-0.95,1.64-0.95,2.68c0,1.96,1.56,3.71,3.83,3.71
							c0.79,0,1.33-0.06,1.75-0.48c0.23-0.23,0.37-0.66,0.41-0.85c0.02-0.11,0.04-0.14,0.11-0.14c0.05,0,0.09,0.07,0.09,0.14
							c0,0.07-0.14,0.96-0.25,1.31c-0.06,0.19-0.08,0.23-0.27,0.3c-0.43,0.17-1.23,0.23-1.92,0.23
							C190.78,149.03,189.71,148.66,188.87,147.93z"/>
						<path class="st8" d="M199.59,145.92c0,0.99,0,1.79,0.05,2.22c0.04,0.3,0.08,0.49,0.41,0.54c0.15,0.02,0.39,0.05,0.49,0.05
							c0.07,0,0.08,0.05,0.08,0.08c0,0.05-0.05,0.09-0.17,0.09c-0.58,0-1.25-0.04-1.31-0.04c-0.05,0-0.78,0.04-1.1,0.04
							c-0.12,0-0.17-0.02-0.17-0.09c0-0.04,0.02-0.07,0.09-0.07c0.09,0,0.22-0.02,0.31-0.05c0.22-0.05,0.28-0.25,0.31-0.55
							c0.05-0.42,0.05-1.23,0.05-2.22v-4.3l-1.53,0.02c-0.66,0.01-0.92,0.09-1.07,0.33c-0.12,0.18-0.13,0.25-0.17,0.32
							c-0.02,0.08-0.06,0.1-0.11,0.1c-0.02,0-0.07-0.02-0.07-0.08c0-0.11,0.21-1.02,0.23-1.11c0.01-0.06,0.07-0.19,0.11-0.19
							c0.07,0,0.18,0.08,0.47,0.12c0.3,0.04,0.71,0.05,0.83,0.05h4.01c0.35,0,0.59-0.02,0.76-0.05c0.15-0.02,0.25-0.05,0.3-0.05
							s0.05,0.06,0.05,0.12c0,0.31-0.04,1.05-0.04,1.17c0,0.08-0.05,0.13-0.09,0.13c-0.05,0-0.07-0.04-0.08-0.18l-0.01-0.11
							c-0.04-0.31-0.27-0.54-1.28-0.57l-1.33-0.02V145.92z"/>
						<path class="st8" d="M205.59,145.92c0,0.99,0,1.79,0.05,2.22c0.04,0.3,0.07,0.49,0.39,0.54c0.16,0.02,0.38,0.05,0.48,0.05
							c0.06,0,0.08,0.05,0.08,0.08c0,0.05-0.05,0.09-0.17,0.09c-0.59,0-1.28-0.04-1.33-0.04c-0.06,0-0.72,0.04-1.05,0.04
							c-0.11,0-0.17-0.02-0.17-0.09c0-0.04,0.02-0.08,0.08-0.08c0.1,0,0.23-0.02,0.33-0.05c0.2-0.05,0.24-0.24,0.28-0.54
							c0.05-0.42,0.06-1.23,0.06-2.22v-1.81c0-1.59,0-1.88-0.02-2.2c-0.02-0.35-0.11-0.51-0.34-0.55c-0.12-0.02-0.25-0.04-0.33-0.04
							c-0.05,0-0.08-0.05-0.08-0.09c0-0.06,0.05-0.08,0.17-0.08c0.35,0,1.01,0.02,1.07,0.02c0.05,0,0.74-0.02,1.06-0.02
							c0.12,0,0.17,0.02,0.17,0.08c0,0.04-0.05,0.09-0.08,0.09c-0.07,0-0.14,0-0.27,0.02c-0.29,0.06-0.35,0.21-0.37,0.57
							c-0.01,0.33-0.01,0.61-0.01,2.2V145.92z"/>
						<path class="st8" d="M211.65,147.56c0.62-1.37,2-4.87,2.23-5.6c0.05-0.16,0.09-0.3,0.09-0.39c0-0.09-0.04-0.18-0.14-0.22
							c-0.12-0.04-0.24-0.04-0.36-0.04c-0.06,0-0.12-0.04-0.12-0.09c0-0.06,0.07-0.08,0.24-0.08c0.42,0,0.91,0.02,1.04,0.02
							c0.06,0,0.52-0.02,0.83-0.02c0.11,0,0.17,0.02,0.17,0.07c0,0.05-0.04,0.1-0.12,0.1c-0.07,0-0.31,0-0.51,0.12
							c-0.15,0.1-0.31,0.24-0.59,0.94c-0.12,0.29-0.64,1.52-1.18,2.77c-0.65,1.49-1.12,2.6-1.36,3.11
							c-0.29,0.61-0.35,0.77-0.46,0.77c-0.12,0-0.2-0.13-0.4-0.63l-2.61-6.28c-0.24-0.58-0.39-0.69-0.74-0.77
							c-0.17-0.04-0.35-0.04-0.41-0.04c-0.06,0-0.08-0.06-0.08-0.1c0-0.06,0.11-0.07,0.28-0.07c0.51,0,1.11,0.02,1.24,0.02
							c0.11,0,0.58-0.02,0.99-0.02c0.19,0,0.29,0.02,0.29,0.07c0,0.05-0.04,0.1-0.11,0.1c-0.12,0-0.29,0.01-0.39,0.05
							c-0.11,0.05-0.12,0.11-0.12,0.18c0,0.13,0.13,0.45,0.29,0.85L211.65,147.56z"/>
						<path class="st8" d="M217.99,141.35c0.13-0.34,0.18-0.4,0.25-0.4c0.11,0,0.15,0.14,0.25,0.37c0.19,0.43,1.89,4.66,2.55,6.22
							c0.38,0.92,0.67,1.05,0.91,1.12c0.15,0.05,0.31,0.06,0.42,0.06c0.06,0,0.13,0.02,0.13,0.08c0,0.06-0.12,0.09-0.24,0.09
							c-0.16,0-0.94,0-1.68-0.02c-0.2-0.01-0.37-0.01-0.37-0.07c0-0.05,0.02-0.05,0.07-0.07c0.06-0.02,0.17-0.11,0.1-0.28
							l-0.95-2.35c-0.02-0.05-0.04-0.06-0.1-0.06h-2.45c-0.05,0-0.08,0.02-0.11,0.08l-0.6,1.64c-0.1,0.25-0.16,0.51-0.16,0.69
							c0,0.21,0.18,0.28,0.36,0.28h0.1c0.08,0,0.11,0.04,0.11,0.08c0,0.06-0.06,0.09-0.16,0.09c-0.25,0-0.83-0.04-0.95-0.04
							c-0.11,0-0.64,0.04-1.07,0.04c-0.13,0-0.21-0.02-0.21-0.09c0-0.05,0.05-0.08,0.1-0.08c0.07,0,0.23-0.01,0.31-0.02
							c0.48-0.06,0.69-0.42,0.89-0.94L217.99,141.35z M219.17,145.62c0.05,0,0.05-0.02,0.04-0.07l-1.05-2.81
							c-0.06-0.16-0.12-0.16-0.18,0l-0.99,2.81c-0.01,0.05,0,0.07,0.04,0.07H219.17z"/>
						<path class="st8" d="M222.96,148.03c0-0.34,0.43-0.65,0.75-0.65c0.06,0,0.1,0.04,0.22,0.23c0.16,0.24,0.21,0.41,0.21,0.52
							c0,0.1-0.06,0.31-0.12,0.47c-0.12,0.28-0.43,0.92-0.77,1.29c-0.05,0.06-0.11,0.11-0.16,0.11c-0.04,0-0.08-0.04-0.08-0.08
							c0-0.05,0.06-0.12,0.08-0.17c0.21-0.35,0.29-0.63,0.29-0.85C223.37,148.33,222.96,148.17,222.96,148.03z"/>
						<path class="st8" d="M230.83,144.11c0-1.59,0-1.88-0.02-2.2c-0.02-0.35-0.08-0.52-0.43-0.57c-0.08-0.01-0.27-0.02-0.36-0.02
							c-0.04,0-0.08-0.05-0.08-0.09c0-0.06,0.05-0.08,0.17-0.08c0.48,0,1.17,0.02,1.23,0.02c0.07,0,2.29,0.01,2.53,0
							c0.21-0.01,0.4-0.05,0.48-0.06c0.05-0.01,0.1-0.05,0.15-0.05c0.04,0,0.05,0.05,0.05,0.1c0,0.07-0.06,0.19-0.08,0.48
							c-0.01,0.1-0.04,0.55-0.06,0.67c-0.01,0.05-0.05,0.11-0.1,0.11c-0.06,0-0.08-0.05-0.08-0.13c0-0.07-0.01-0.24-0.06-0.36
							c-0.07-0.17-0.18-0.24-0.76-0.31c-0.18-0.02-1.41-0.04-1.53-0.04c-0.05,0-0.06,0.04-0.06,0.11v2.78c0,0.07,0,0.11,0.06,0.11
							c0.13,0,1.53,0,1.77-0.02c0.25-0.02,0.41-0.04,0.52-0.14c0.07-0.07,0.12-0.13,0.16-0.13c0.04,0,0.06,0.02,0.06,0.08
							c0,0.06-0.06,0.23-0.08,0.57c-0.02,0.2-0.05,0.59-0.05,0.66c0,0.09-0.02,0.19-0.1,0.19c-0.05,0-0.07-0.04-0.07-0.1
							c0-0.1,0-0.21-0.05-0.34c-0.04-0.14-0.13-0.27-0.54-0.31c-0.29-0.04-1.42-0.05-1.6-0.05c-0.06,0-0.07,0.04-0.07,0.07v0.85
							c0,0.35-0.01,1.54,0,1.75c0.02,0.69,0.22,0.82,1.27,0.82c0.28,0,0.79,0,1.06-0.11c0.28-0.12,0.42-0.3,0.48-0.71
							c0.02-0.12,0.05-0.16,0.11-0.16s0.07,0.09,0.07,0.16c0,0.07-0.08,0.77-0.15,0.99c-0.07,0.27-0.18,0.27-0.59,0.27
							c-0.8,0-1.41-0.02-1.85-0.04c-0.45-0.02-0.72-0.02-0.88-0.02c-0.02,0-0.23,0-0.46,0.01c-0.21,0.01-0.45,0.02-0.62,0.02
							c-0.11,0-0.17-0.02-0.17-0.09c0-0.04,0.02-0.08,0.08-0.08c0.1,0,0.23-0.04,0.33-0.05c0.2-0.04,0.23-0.24,0.28-0.54
							c0.06-0.42,0.06-1.23,0.06-2.22V144.11z"/>
						<path class="st8" d="M236.59,148.75c-0.15-0.07-0.16-0.11-0.16-0.39c0-0.51,0.05-0.92,0.06-1.08c0-0.11,0.02-0.17,0.08-0.17
							c0.06,0,0.1,0.04,0.1,0.12c0,0.08,0,0.23,0.04,0.37c0.17,0.75,0.96,1.01,1.68,1.01c1.05,0,1.59-0.59,1.59-1.36
							c0-0.73-0.4-1.08-1.34-1.78l-0.48-0.36c-1.15-0.85-1.52-1.48-1.52-2.19c0-1.2,0.95-1.93,2.35-1.93c0.42,0,0.85,0.06,1.1,0.12
							c0.21,0.05,0.29,0.05,0.37,0.05c0.08,0,0.11,0.01,0.11,0.07c0,0.05-0.05,0.39-0.05,1.08c0,0.16-0.01,0.23-0.08,0.23
							c-0.07,0-0.08-0.05-0.09-0.13c-0.01-0.12-0.1-0.4-0.16-0.51c-0.07-0.12-0.42-0.51-1.38-0.51c-0.77,0-1.41,0.39-1.41,1.11
							c0,0.65,0.33,1.02,1.38,1.74l0.3,0.2c1.29,0.88,1.74,1.59,1.74,2.47c0,0.6-0.23,1.25-0.99,1.75
							c-0.45,0.29-1.11,0.36-1.69,0.36C237.63,149.03,237.02,148.96,236.59,148.75z"/>
						<path class="st8" d="M246.11,145.92c0,0.99,0,1.79,0.05,2.22c0.04,0.3,0.08,0.49,0.41,0.54c0.15,0.02,0.39,0.05,0.49,0.05
							c0.07,0,0.08,0.05,0.08,0.08c0,0.05-0.05,0.09-0.17,0.09c-0.58,0-1.25-0.04-1.31-0.04c-0.05,0-0.78,0.04-1.1,0.04
							c-0.12,0-0.17-0.02-0.17-0.09c0-0.04,0.02-0.07,0.09-0.07c0.09,0,0.22-0.02,0.31-0.05c0.22-0.05,0.28-0.25,0.31-0.55
							c0.05-0.42,0.05-1.23,0.05-2.22v-4.3l-1.53,0.02c-0.66,0.01-0.92,0.09-1.07,0.33c-0.12,0.18-0.13,0.25-0.17,0.32
							c-0.02,0.08-0.06,0.1-0.11,0.1c-0.02,0-0.07-0.02-0.07-0.08c0-0.11,0.21-1.02,0.23-1.11c0.01-0.06,0.07-0.19,0.11-0.19
							c0.07,0,0.18,0.08,0.47,0.12c0.3,0.04,0.71,0.05,0.83,0.05h4.01c0.35,0,0.59-0.02,0.76-0.05c0.15-0.02,0.25-0.05,0.3-0.05
							c0.05,0,0.05,0.06,0.05,0.12c0,0.31-0.04,1.05-0.04,1.17c0,0.08-0.05,0.13-0.09,0.13s-0.07-0.04-0.08-0.18l-0.01-0.11
							c-0.04-0.31-0.27-0.54-1.28-0.57l-1.33-0.02V145.92z"/>
						<path class="st8" d="M251.15,144.11c0-1.59,0-1.88-0.02-2.2c-0.02-0.35-0.08-0.52-0.43-0.57c-0.08-0.01-0.27-0.02-0.36-0.02
							c-0.04,0-0.08-0.05-0.08-0.09c0-0.06,0.05-0.08,0.17-0.08c0.48,0,1.17,0.02,1.23,0.02c0.07,0,2.29,0.01,2.53,0
							c0.21-0.01,0.4-0.05,0.48-0.06c0.05-0.01,0.1-0.05,0.15-0.05c0.04,0,0.05,0.05,0.05,0.1c0,0.07-0.06,0.19-0.08,0.48
							c-0.01,0.1-0.04,0.55-0.06,0.67c-0.01,0.05-0.05,0.11-0.1,0.11c-0.06,0-0.08-0.05-0.08-0.13c0-0.07-0.01-0.24-0.06-0.36
							c-0.07-0.17-0.18-0.24-0.76-0.31c-0.18-0.02-1.41-0.04-1.53-0.04c-0.05,0-0.06,0.04-0.06,0.11v2.78c0,0.07,0,0.11,0.06,0.11
							c0.13,0,1.53,0,1.77-0.02c0.25-0.02,0.41-0.04,0.52-0.14c0.07-0.07,0.12-0.13,0.16-0.13c0.04,0,0.06,0.02,0.06,0.08
							c0,0.06-0.06,0.23-0.08,0.57c-0.02,0.2-0.05,0.59-0.05,0.66c0,0.09-0.02,0.19-0.1,0.19c-0.05,0-0.07-0.04-0.07-0.1
							c0-0.1,0-0.21-0.05-0.34c-0.04-0.14-0.13-0.27-0.54-0.31c-0.29-0.04-1.42-0.05-1.6-0.05c-0.06,0-0.07,0.04-0.07,0.07v0.85
							c0,0.35-0.01,1.54,0,1.75c0.02,0.69,0.22,0.82,1.27,0.82c0.28,0,0.79,0,1.06-0.11c0.28-0.12,0.42-0.3,0.48-0.71
							c0.02-0.12,0.05-0.16,0.11-0.16s0.07,0.09,0.07,0.16c0,0.07-0.08,0.77-0.15,0.99c-0.07,0.27-0.18,0.27-0.59,0.27
							c-0.8,0-1.41-0.02-1.85-0.04c-0.45-0.02-0.72-0.02-0.88-0.02c-0.02,0-0.23,0-0.46,0.01c-0.21,0.01-0.45,0.02-0.62,0.02
							c-0.11,0-0.17-0.02-0.17-0.09c0-0.04,0.02-0.08,0.08-0.08c0.1,0,0.23-0.04,0.33-0.05c0.2-0.04,0.23-0.24,0.28-0.54
							c0.06-0.42,0.06-1.23,0.06-2.22V144.11z"/>
						<path class="st8" d="M260.11,145.92c0,0.99,0,1.79,0.05,2.22c0.04,0.3,0.08,0.49,0.41,0.54c0.15,0.02,0.39,0.05,0.49,0.05
							c0.07,0,0.08,0.05,0.08,0.08c0,0.05-0.05,0.09-0.17,0.09c-0.58,0-1.25-0.04-1.31-0.04c-0.05,0-0.78,0.04-1.1,0.04
							c-0.12,0-0.17-0.02-0.17-0.09c0-0.04,0.02-0.07,0.09-0.07c0.09,0,0.22-0.02,0.31-0.05c0.22-0.05,0.28-0.25,0.31-0.55
							c0.05-0.42,0.05-1.23,0.05-2.22v-4.3l-1.53,0.02c-0.66,0.01-0.92,0.09-1.07,0.33c-0.12,0.18-0.13,0.25-0.17,0.32
							c-0.02,0.08-0.06,0.1-0.11,0.1c-0.02,0-0.07-0.02-0.07-0.08c0-0.11,0.21-1.02,0.23-1.11c0.01-0.06,0.07-0.19,0.11-0.19
							c0.07,0,0.18,0.08,0.47,0.12c0.3,0.04,0.71,0.05,0.83,0.05h4.01c0.35,0,0.59-0.02,0.76-0.05c0.15-0.02,0.25-0.05,0.3-0.05
							s0.05,0.06,0.05,0.12c0,0.31-0.04,1.05-0.04,1.17c0,0.08-0.05,0.13-0.09,0.13c-0.05,0-0.07-0.04-0.08-0.18l-0.01-0.11
							c-0.04-0.31-0.27-0.54-1.28-0.57l-1.33-0.02V145.92z"/>
						<path class="st8" d="M266.12,145.92c0,0.99,0,1.79,0.05,2.22c0.04,0.3,0.07,0.49,0.39,0.54c0.16,0.02,0.38,0.05,0.48,0.05
							c0.06,0,0.08,0.05,0.08,0.08c0,0.05-0.05,0.09-0.17,0.09c-0.59,0-1.28-0.04-1.33-0.04c-0.06,0-0.72,0.04-1.05,0.04
							c-0.11,0-0.17-0.02-0.17-0.09c0-0.04,0.02-0.08,0.08-0.08c0.1,0,0.23-0.02,0.33-0.05c0.2-0.05,0.24-0.24,0.28-0.54
							c0.05-0.42,0.06-1.23,0.06-2.22v-1.81c0-1.59,0-1.88-0.02-2.2c-0.02-0.35-0.11-0.51-0.34-0.55c-0.12-0.02-0.25-0.04-0.33-0.04
							c-0.05,0-0.08-0.05-0.08-0.09c0-0.06,0.05-0.08,0.17-0.08c0.35,0,1.01,0.02,1.07,0.02c0.05,0,0.74-0.02,1.06-0.02
							c0.12,0,0.17,0.02,0.17,0.08c0,0.04-0.05,0.09-0.08,0.09c-0.07,0-0.14,0-0.27,0.02c-0.29,0.06-0.35,0.21-0.37,0.57
							c-0.01,0.33-0.01,0.61-0.01,2.2V145.92z"/>
						<path class="st8" d="M269.76,147.93c-1.04-0.89-1.29-2.06-1.29-3.04c0-0.69,0.25-1.88,1.2-2.79c0.64-0.62,1.6-1.1,3.23-1.1
							c0.42,0,1.03,0.04,1.54,0.12c0.4,0.07,0.74,0.14,1.09,0.16c0.11,0,0.13,0.05,0.13,0.11c0,0.08-0.02,0.21-0.05,0.58
							c-0.01,0.34-0.01,0.9-0.02,1.05c-0.01,0.16-0.06,0.22-0.12,0.22c-0.07,0-0.08-0.07-0.08-0.22c0-0.4-0.17-0.81-0.45-1.02
							c-0.37-0.31-1.15-0.57-2.09-0.57c-1.36,0-2.01,0.36-2.39,0.71c-0.79,0.72-0.95,1.64-0.95,2.68c0,1.96,1.56,3.71,3.83,3.71
							c0.79,0,1.33-0.06,1.75-0.48c0.23-0.23,0.37-0.66,0.41-0.85c0.02-0.11,0.04-0.14,0.11-0.14c0.05,0,0.09,0.07,0.09,0.14
							c0,0.07-0.14,0.96-0.25,1.31c-0.06,0.19-0.08,0.23-0.27,0.3c-0.43,0.17-1.23,0.23-1.92,0.23
							C271.67,149.03,270.59,148.66,269.76,147.93z"/>
						<path class="st8" d="M279.83,141.35c0.13-0.34,0.18-0.4,0.25-0.4c0.11,0,0.15,0.14,0.25,0.37c0.19,0.43,1.89,4.66,2.55,6.22
							c0.38,0.92,0.67,1.05,0.91,1.12c0.15,0.05,0.31,0.06,0.42,0.06c0.06,0,0.13,0.02,0.13,0.08c0,0.06-0.12,0.09-0.24,0.09
							c-0.16,0-0.94,0-1.68-0.02c-0.2-0.01-0.37-0.01-0.37-0.07c0-0.05,0.02-0.05,0.07-0.07c0.06-0.02,0.17-0.11,0.1-0.28
							l-0.95-2.35c-0.02-0.05-0.04-0.06-0.1-0.06h-2.45c-0.05,0-0.08,0.02-0.11,0.08l-0.6,1.64c-0.1,0.25-0.16,0.51-0.16,0.69
							c0,0.21,0.18,0.28,0.36,0.28h0.1c0.08,0,0.11,0.04,0.11,0.08c0,0.06-0.06,0.09-0.16,0.09c-0.25,0-0.83-0.04-0.95-0.04
							c-0.11,0-0.64,0.04-1.07,0.04c-0.13,0-0.21-0.02-0.21-0.09c0-0.05,0.05-0.08,0.1-0.08c0.07,0,0.23-0.01,0.31-0.02
							c0.48-0.06,0.69-0.42,0.89-0.94L279.83,141.35z M281.01,145.62c0.05,0,0.05-0.02,0.04-0.07l-1.05-2.81
							c-0.06-0.16-0.12-0.16-0.18,0l-0.99,2.81c-0.01,0.05,0,0.07,0.04,0.07H281.01z"/>
						<path class="st8" d="M290.87,146.23c0-0.55-0.07-0.76-0.23-1.05c-0.08-0.16-1.52-2.43-1.88-2.98
							c-0.25-0.39-0.51-0.61-0.7-0.75c-0.16-0.1-0.36-0.14-0.45-0.14c-0.06,0-0.11-0.05-0.11-0.1c0-0.05,0.04-0.07,0.13-0.07
							c0.21,0,1,0.02,1.05,0.02c0.07,0,0.51-0.02,0.92-0.02c0.12,0,0.14,0.02,0.14,0.07c0,0.04-0.07,0.07-0.17,0.11
							c-0.08,0.04-0.13,0.08-0.13,0.17c0,0.14,0.07,0.27,0.15,0.4l1.93,3.19c0.22-0.43,1.54-2.63,1.74-2.96
							c0.13-0.23,0.18-0.4,0.18-0.53c0-0.14-0.05-0.23-0.17-0.27c-0.1-0.02-0.16-0.07-0.16-0.12c0-0.04,0.06-0.06,0.17-0.06
							c0.28,0,0.65,0.02,0.74,0.02c0.07,0,0.83-0.02,1.04-0.02c0.07,0,0.13,0.02,0.13,0.06c0,0.05-0.05,0.11-0.13,0.11
							c-0.12,0-0.33,0.04-0.5,0.13c-0.21,0.12-0.3,0.23-0.53,0.51c-0.35,0.41-1.85,2.82-2.06,3.25c-0.18,0.36-0.13,0.69-0.13,1.02
							v0.88c0,0.17,0,0.6,0.04,1.02c0.02,0.3,0.1,0.49,0.41,0.54c0.14,0.02,0.38,0.05,0.48,0.05c0.06,0,0.08,0.05,0.08,0.08
							c0,0.05-0.06,0.09-0.17,0.09c-0.59,0-1.28-0.04-1.34-0.04c-0.05,0-0.72,0.04-1.04,0.04c-0.12,0-0.17-0.02-0.17-0.09
							c0-0.04,0.02-0.08,0.08-0.08c0.1,0,0.22-0.02,0.31-0.05c0.22-0.05,0.29-0.24,0.31-0.54c0.02-0.42,0.02-0.86,0.02-1.02V146.23z
							"/>
						<path class="st8" d="M308.48,147.58c0.04,0.36,0.11,0.92,0.54,1.06c0.3,0.1,0.58,0.1,0.69,0.1c0.05,0,0.08,0.02,0.08,0.07
							c0,0.06-0.09,0.1-0.22,0.1c-0.24,0-1.42-0.01-1.81-0.05c-0.25-0.02-0.3-0.06-0.3-0.11c0-0.04,0.02-0.07,0.07-0.08
							c0.06-0.01,0.07-0.17,0.05-0.36l-0.51-5.2h-0.02l-2.56,5.23c-0.22,0.45-0.28,0.54-0.37,0.54c-0.09,0-0.16-0.1-0.36-0.47
							c-0.28-0.51-0.98-1.82-1.24-2.37c-0.31-0.65-1.17-2.37-1.35-2.79h-0.05l-0.41,4.63c-0.01,0.16-0.01,0.35-0.01,0.52
							c0,0.16,0.09,0.25,0.25,0.29c0.18,0.05,0.34,0.06,0.41,0.06c0.04,0,0.09,0.04,0.09,0.07c0,0.07-0.07,0.1-0.2,0.1
							c-0.4,0-0.91-0.04-0.99-0.04c-0.09,0-0.6,0.04-0.89,0.04c-0.11,0-0.18-0.02-0.18-0.1c0-0.04,0.05-0.07,0.11-0.07
							c0.08,0,0.16-0.01,0.31-0.04c0.35-0.06,0.36-0.43,0.41-0.82l0.77-6.69c0.01-0.11,0.06-0.18,0.12-0.18
							c0.07,0,0.16,0.04,0.22,0.16l3.21,6.36l3.09-6.35c0.05-0.1,0.1-0.17,0.17-0.17c0.07,0,0.13,0.08,0.16,0.28L308.48,147.58z"/>
						<path class="st8" d="M312.63,145.92c0,0.99,0,1.79,0.05,2.22c0.04,0.3,0.07,0.49,0.39,0.54c0.16,0.02,0.38,0.05,0.48,0.05
							c0.06,0,0.08,0.05,0.08,0.08c0,0.05-0.05,0.09-0.17,0.09c-0.59,0-1.28-0.04-1.33-0.04c-0.06,0-0.72,0.04-1.05,0.04
							c-0.11,0-0.17-0.02-0.17-0.09c0-0.04,0.02-0.08,0.08-0.08c0.1,0,0.23-0.02,0.33-0.05c0.2-0.05,0.24-0.24,0.28-0.54
							c0.05-0.42,0.06-1.23,0.06-2.22v-1.81c0-1.59,0-1.88-0.02-2.2c-0.02-0.35-0.11-0.51-0.34-0.55c-0.12-0.02-0.25-0.04-0.33-0.04
							c-0.05,0-0.08-0.05-0.08-0.09c0-0.06,0.05-0.08,0.17-0.08c0.35,0,1.01,0.02,1.07,0.02c0.05,0,0.74-0.02,1.06-0.02
							c0.12,0,0.17,0.02,0.17,0.08c0,0.04-0.05,0.09-0.08,0.09c-0.07,0-0.14,0-0.27,0.02c-0.29,0.06-0.35,0.21-0.37,0.57
							c-0.01,0.33-0.01,0.61-0.01,2.2V145.92z"/>
						<path class="st8" d="M316.27,147.93c-1.04-0.89-1.29-2.06-1.29-3.04c0-0.69,0.25-1.88,1.2-2.79c0.64-0.62,1.6-1.1,3.23-1.1
							c0.42,0,1.03,0.04,1.54,0.12c0.4,0.07,0.74,0.14,1.09,0.16c0.11,0,0.13,0.05,0.13,0.11c0,0.08-0.02,0.21-0.05,0.58
							c-0.01,0.34-0.01,0.9-0.02,1.05c-0.01,0.16-0.06,0.22-0.12,0.22c-0.07,0-0.08-0.07-0.08-0.22c0-0.4-0.17-0.81-0.45-1.02
							c-0.37-0.31-1.15-0.57-2.09-0.57c-1.36,0-2.01,0.36-2.39,0.71c-0.79,0.72-0.95,1.64-0.95,2.68c0,1.96,1.56,3.71,3.83,3.71
							c0.79,0,1.33-0.06,1.75-0.48c0.23-0.23,0.37-0.66,0.41-0.85c0.02-0.11,0.04-0.14,0.11-0.14c0.05,0,0.09,0.07,0.09,0.14
							c0,0.07-0.14,0.96-0.25,1.31c-0.06,0.19-0.08,0.23-0.27,0.3c-0.43,0.17-1.23,0.23-1.92,0.23
							C318.18,149.03,317.11,148.66,316.27,147.93z"/>
						<path class="st8" d="M324.73,144.11c0-1.59,0-1.88-0.02-2.2c-0.02-0.35-0.08-0.52-0.43-0.57c-0.08-0.01-0.27-0.02-0.36-0.02
							c-0.04,0-0.08-0.05-0.08-0.09c0-0.06,0.05-0.08,0.17-0.08c0.48,0,1.19,0.02,1.25,0.02c0.11,0,1-0.02,1.33-0.02
							c0.67,0,1.42,0.06,1.98,0.45c0.27,0.19,0.74,0.69,0.74,1.4c0,0.76-0.31,1.49-1.3,2.34c0.87,1.08,1.6,2.01,2.22,2.65
							c0.57,0.58,0.92,0.67,1.18,0.71c0.21,0.04,0.31,0.04,0.37,0.04c0.06,0,0.1,0.05,0.1,0.08c0,0.06-0.06,0.09-0.25,0.09h-0.66
							c-0.6,0-0.87-0.06-1.14-0.21c-0.46-0.24-0.85-0.73-1.45-1.51c-0.45-0.55-0.92-1.22-1.15-1.49c-0.05-0.05-0.07-0.06-0.15-0.06
							l-1.35-0.02c-0.05,0-0.07,0.02-0.07,0.09v0.24c0,0.99,0,1.78,0.05,2.2c0.04,0.3,0.1,0.49,0.42,0.54
							c0.15,0.02,0.37,0.05,0.47,0.05c0.07,0,0.08,0.05,0.08,0.08c0,0.05-0.05,0.09-0.17,0.09c-0.58,0-1.25-0.04-1.3-0.04
							c-0.01,0-0.72,0.04-1.05,0.04c-0.11,0-0.17-0.02-0.17-0.09c0-0.04,0.02-0.08,0.08-0.08c0.1,0,0.23-0.02,0.33-0.05
							c0.2-0.05,0.23-0.24,0.28-0.54c0.06-0.42,0.06-1.23,0.06-2.22V144.11z M325.65,144.98c0,0.06,0.02,0.1,0.07,0.13
							c0.16,0.08,0.7,0.16,1.17,0.16c0.25,0,0.54-0.01,0.8-0.18c0.36-0.24,0.64-0.78,0.64-1.57c0-1.28-0.7-2.01-1.83-2.01
							c-0.31,0-0.65,0.04-0.76,0.06c-0.05,0.02-0.08,0.06-0.08,0.12V144.98z"/>
						<path class="st8" d="M336,141.01c2.39,0,4.2,1.46,4.2,3.84c0,2.29-1.7,4.18-4.26,4.18c-2.91,0-4.15-2.18-4.15-4.02
							C331.79,143.35,333.07,141.01,336,141.01z M336.24,148.61c0.95,0,2.87-0.51,2.87-3.47c0-2.46-1.5-3.75-3.17-3.75
							c-1.77,0-3.05,1.11-3.05,3.34C332.89,147.11,334.33,148.61,336.24,148.61z"/>
						<path class="st8" d="M342.83,147.93c-1.04-0.89-1.29-2.06-1.29-3.04c0-0.69,0.25-1.88,1.2-2.79c0.64-0.62,1.6-1.1,3.23-1.1
							c0.42,0,1.03,0.04,1.54,0.12c0.4,0.07,0.74,0.14,1.09,0.16c0.11,0,0.13,0.05,0.13,0.11c0,0.08-0.02,0.21-0.05,0.58
							c-0.01,0.34-0.01,0.9-0.02,1.05c-0.01,0.16-0.06,0.22-0.12,0.22c-0.07,0-0.08-0.07-0.08-0.22c0-0.4-0.17-0.81-0.45-1.02
							c-0.37-0.31-1.15-0.57-2.09-0.57c-1.36,0-2.01,0.36-2.39,0.71c-0.79,0.72-0.95,1.64-0.95,2.68c0,1.96,1.56,3.71,3.83,3.71
							c0.79,0,1.33-0.06,1.75-0.48c0.23-0.23,0.37-0.66,0.41-0.85c0.02-0.11,0.04-0.14,0.11-0.14c0.05,0,0.09,0.07,0.09,0.14
							c0,0.07-0.14,0.96-0.25,1.31c-0.06,0.19-0.08,0.23-0.27,0.3c-0.43,0.17-1.23,0.23-1.92,0.23
							C344.73,149.03,343.66,148.66,342.83,147.93z"/>
						<path class="st8" d="M352.25,145.92c0,0.99,0,1.79,0.05,2.22c0.04,0.3,0.07,0.49,0.39,0.54c0.16,0.02,0.38,0.05,0.48,0.05
							c0.06,0,0.08,0.05,0.08,0.08c0,0.05-0.05,0.09-0.17,0.09c-0.59,0-1.28-0.04-1.33-0.04c-0.06,0-0.72,0.04-1.05,0.04
							c-0.11,0-0.17-0.02-0.17-0.09c0-0.04,0.02-0.08,0.08-0.08c0.1,0,0.23-0.02,0.33-0.05c0.2-0.05,0.24-0.24,0.28-0.54
							c0.05-0.42,0.06-1.23,0.06-2.22v-1.81c0-1.59,0-1.88-0.02-2.2c-0.02-0.35-0.11-0.51-0.34-0.55c-0.12-0.02-0.25-0.04-0.33-0.04
							c-0.05,0-0.08-0.05-0.08-0.09c0-0.06,0.05-0.08,0.17-0.08c0.35,0,1.01,0.02,1.07,0.02c0.05,0,0.74-0.02,1.06-0.02
							c0.12,0,0.17,0.02,0.17,0.08c0,0.04-0.05,0.09-0.08,0.09c-0.07,0-0.14,0-0.27,0.02c-0.29,0.06-0.35,0.21-0.37,0.57
							c-0.01,0.33-0.01,0.61-0.01,2.2V145.92z"/>
						<path class="st8" d="M355.73,144.11c0-1.59,0-1.88-0.02-2.2c-0.02-0.35-0.08-0.52-0.43-0.57c-0.08-0.01-0.27-0.02-0.36-0.02
							c-0.04,0-0.08-0.05-0.08-0.09c0-0.06,0.05-0.08,0.17-0.08c0.48,0,1.19,0.02,1.25,0.02c0.11,0,1-0.02,1.33-0.02
							c0.67,0,1.42,0.06,1.98,0.45c0.27,0.19,0.74,0.69,0.74,1.4c0,0.76-0.31,1.49-1.3,2.34c0.87,1.08,1.6,2.01,2.22,2.65
							c0.57,0.58,0.92,0.67,1.18,0.71c0.21,0.04,0.31,0.04,0.37,0.04c0.06,0,0.1,0.05,0.1,0.08c0,0.06-0.06,0.09-0.25,0.09h-0.66
							c-0.6,0-0.87-0.06-1.14-0.21c-0.46-0.24-0.85-0.73-1.45-1.51c-0.45-0.55-0.92-1.22-1.15-1.49c-0.05-0.05-0.07-0.06-0.15-0.06
							l-1.35-0.02c-0.05,0-0.07,0.02-0.07,0.09v0.24c0,0.99,0,1.78,0.05,2.2c0.04,0.3,0.1,0.49,0.42,0.54
							c0.15,0.02,0.37,0.05,0.47,0.05c0.07,0,0.08,0.05,0.08,0.08c0,0.05-0.05,0.09-0.17,0.09c-0.58,0-1.25-0.04-1.3-0.04
							c-0.01,0-0.72,0.04-1.05,0.04c-0.11,0-0.17-0.02-0.17-0.09c0-0.04,0.02-0.08,0.08-0.08c0.1,0,0.23-0.02,0.33-0.05
							c0.2-0.05,0.23-0.24,0.28-0.54c0.06-0.42,0.06-1.23,0.06-2.22V144.11z M356.65,144.98c0,0.06,0.02,0.1,0.07,0.13
							c0.16,0.08,0.7,0.16,1.17,0.16c0.25,0,0.54-0.01,0.8-0.18c0.36-0.24,0.64-0.78,0.64-1.57c0-1.28-0.7-2.01-1.83-2.01
							c-0.31,0-0.65,0.04-0.76,0.06c-0.05,0.02-0.08,0.06-0.08,0.12V144.98z"/>
						<path class="st8" d="M363.29,144.11c0-1.59,0-1.88-0.02-2.2c-0.02-0.32-0.08-0.52-0.43-0.57c-0.09-0.01-0.27-0.02-0.36-0.02
							c-0.04,0-0.08-0.05-0.08-0.09c0-0.06,0.05-0.08,0.17-0.08c0.48,0,1.12,0.02,1.22,0.02s0.76-0.02,1.07-0.02
							c0.12,0,0.18,0.02,0.18,0.08c0,0.04-0.05,0.09-0.1,0.09c-0.07,0-0.13,0-0.27,0.02c-0.28,0.05-0.34,0.23-0.36,0.57
							c-0.02,0.33-0.02,0.61-0.02,2.2v1.43c0,1.48,0.33,2.1,0.78,2.51c0.52,0.47,0.98,0.55,1.58,0.55c0.65,0,1.28-0.29,1.64-0.72
							c0.5-0.59,0.6-1.43,0.6-2.48v-1.29c0-1.59-0.01-1.88-0.02-2.2c-0.01-0.32-0.07-0.52-0.42-0.57c-0.08-0.01-0.27-0.02-0.36-0.02
							c-0.05,0-0.08-0.05-0.08-0.09c0-0.06,0.05-0.08,0.17-0.08c0.47,0,1.09,0.02,1.15,0.02c0.07,0,0.58-0.02,0.89-0.02
							c0.12,0,0.17,0.02,0.17,0.08c0,0.04-0.04,0.09-0.08,0.09c-0.07,0-0.13,0-0.27,0.02c-0.29,0.06-0.35,0.23-0.37,0.57
							c-0.02,0.33-0.01,0.61-0.01,2.2v1.1c0,1.11-0.14,2.35-0.99,3.07c-0.77,0.66-1.59,0.75-2.22,0.75c-0.35,0-1.46-0.02-2.21-0.72
							c-0.52-0.48-0.93-1.19-0.93-2.69V144.11z"/>
						<path class="st8" d="M377.66,146.28c0-0.83-0.02-0.95-0.46-1.04c-0.09-0.01-0.27-0.02-0.36-0.02c-0.04,0-0.08-0.05-0.08-0.08
							c0-0.07,0.05-0.08,0.17-0.08c0.48,0,1.2,0.02,1.25,0.02c0.05,0,0.71-0.02,1.04-0.02c0.12,0,0.17,0.01,0.17,0.08
							c0,0.04-0.05,0.08-0.09,0.08c-0.07,0-0.14,0-0.27,0.02c-0.29,0.05-0.37,0.21-0.4,0.57c-0.01,0.32-0.01,0.63-0.01,1.06v1.15
							c0,0.47-0.01,0.48-0.14,0.55c-0.68,0.35-1.64,0.46-2.26,0.46c-0.81,0-2.32-0.1-3.5-1.1c-0.65-0.54-1.27-1.64-1.27-2.91
							c0-1.64,0.83-2.79,1.77-3.36c0.95-0.58,2.01-0.65,2.82-0.65c0.67,0,1.42,0.12,1.63,0.17c0.22,0.05,0.59,0.11,0.86,0.11
							c0.11,0,0.13,0.05,0.13,0.1c0,0.14-0.06,0.42-0.06,1.45c0,0.17-0.05,0.22-0.12,0.22c-0.06,0-0.07-0.06-0.07-0.16
							c-0.01-0.13-0.07-0.43-0.24-0.67c-0.27-0.39-1.07-0.8-2.45-0.8c-0.64,0-1.41,0.05-2.22,0.66c-0.62,0.47-1.05,1.39-1.05,2.58
							c0,1.44,0.75,2.48,1.12,2.83c0.84,0.78,1.74,1.07,2.72,1.07c0.37,0,0.87-0.04,1.15-0.19c0.13-0.07,0.22-0.12,0.22-0.31V146.28
							z"/>
						<path class="st8" d="M382.78,145.92c0,0.99,0,1.79,0.05,2.22c0.04,0.3,0.07,0.49,0.39,0.54c0.16,0.02,0.38,0.05,0.48,0.05
							c0.06,0,0.08,0.05,0.08,0.08c0,0.05-0.05,0.09-0.17,0.09c-0.59,0-1.28-0.04-1.33-0.04c-0.06,0-0.72,0.04-1.05,0.04
							c-0.11,0-0.17-0.02-0.17-0.09c0-0.04,0.02-0.08,0.08-0.08c0.1,0,0.23-0.02,0.33-0.05c0.2-0.05,0.24-0.24,0.28-0.54
							c0.05-0.42,0.06-1.23,0.06-2.22v-1.81c0-1.59,0-1.88-0.02-2.2c-0.02-0.35-0.11-0.51-0.34-0.55c-0.12-0.02-0.25-0.04-0.33-0.04
							c-0.05,0-0.08-0.05-0.08-0.09c0-0.06,0.05-0.08,0.17-0.08c0.35,0,1.01,0.02,1.07,0.02c0.05,0,0.74-0.02,1.06-0.02
							c0.12,0,0.17,0.02,0.17,0.08c0,0.04-0.05,0.09-0.08,0.09c-0.07,0-0.14,0-0.27,0.02c-0.29,0.06-0.35,0.21-0.37,0.57
							c-0.01,0.33-0.01,0.61-0.01,2.2V145.92z"/>
						<path class="st8" d="M388.13,141.35c0.13-0.34,0.18-0.4,0.25-0.4c0.11,0,0.15,0.14,0.25,0.37c0.19,0.43,1.89,4.66,2.55,6.22
							c0.38,0.92,0.67,1.05,0.91,1.12c0.15,0.05,0.31,0.06,0.42,0.06c0.06,0,0.13,0.02,0.13,0.08c0,0.06-0.12,0.09-0.24,0.09
							c-0.16,0-0.94,0-1.68-0.02c-0.2-0.01-0.37-0.01-0.37-0.07c0-0.05,0.02-0.05,0.07-0.07c0.06-0.02,0.17-0.11,0.1-0.28
							l-0.95-2.35c-0.02-0.05-0.04-0.06-0.1-0.06h-2.45c-0.05,0-0.08,0.02-0.11,0.08l-0.6,1.64c-0.1,0.25-0.16,0.51-0.16,0.69
							c0,0.21,0.18,0.28,0.36,0.28h0.1c0.08,0,0.11,0.04,0.11,0.08c0,0.06-0.06,0.09-0.16,0.09c-0.25,0-0.83-0.04-0.95-0.04
							c-0.11,0-0.64,0.04-1.07,0.04c-0.13,0-0.21-0.02-0.21-0.09c0-0.05,0.05-0.08,0.1-0.08c0.07,0,0.23-0.01,0.31-0.02
							c0.48-0.06,0.69-0.42,0.89-0.94L388.13,141.35z M389.31,145.62c0.05,0,0.05-0.02,0.04-0.07l-1.05-2.81
							c-0.06-0.16-0.12-0.16-0.18,0l-0.99,2.81c-0.01,0.05,0,0.07,0.04,0.07H389.31z"/>
						<polygon class="st9" points="40.24,139.93 40.76,137.93 41.64,137.93 40.94,139.93 						"/>
						<polygon class="st9" points="71.33,139.93 71.86,137.93 72.73,137.93 72.03,139.93 						"/>
						<polygon class="st9" points="252.78,140.25 253.31,138.24 254.18,138.24 253.48,140.25 						"/>
						<polygon class="st9" points="381.98,140.28 382.51,138.28 383.38,138.28 382.68,140.28 						"/>
					</g>
				</g>
			</g>
			<path class="st10" d="M126.95,3.54c0,0-0.43,36.09,19.79,62.75c15.38,20.27,39.98,32.86,45.38,60.08c0,0-0.84-35.94-19.02-56.92
				C158.66,52.78,131.66,33.25,126.95,3.54z"/>
			<g>
				<g>
					<linearGradient id="SVGID_23_" gradientUnits="userSpaceOnUse" x1="194.3972" y1="65.3088" x2="247.3101" y2="65.3088">
						<stop  offset="0" style="stop-color:#29ABE2"/>
						<stop  offset="0.203" style="stop-color:#3686C5"/>
						<stop  offset="0.4029" style="stop-color:#3A6AB0"/>
						<stop  offset="0.588" style="stop-color:#3C54A1"/>
						<stop  offset="0.7548" style="stop-color:#3D4397"/>
						<stop  offset="0.8977" style="stop-color:#3E3892"/>
						<stop  offset="1" style="stop-color:#3E3490"/>
					</linearGradient>
					<path class="st11" d="M247.31,2.31c0,0-26.09,25.76-32.29,58.68c-4.71,25.02-2.76,41.36-20.62,67.33
						c0,0,21.98-15.93,31.39-45.2C231.27,66.09,229.05,26.94,247.31,2.31z"/>
				</g>
				<linearGradient id="SVGID_24_" gradientUnits="userSpaceOnUse" x1="131.1347" y1="70.5045" x2="192.145" y2="70.5045">
					<stop  offset="0.0216" style="stop-color:#29ABE2"/>
					<stop  offset="0.2954" style="stop-color:#29A9E1"/>
					<stop  offset="0.4874" style="stop-color:#27A3DD"/>
					<stop  offset="0.6544" style="stop-color:#249AD6"/>
					<stop  offset="0.807" style="stop-color:#228DCC"/>
					<stop  offset="0.9487" style="stop-color:#1F7CC0"/>
					<stop  offset="1" style="stop-color:#1D76BB"/>
				</linearGradient>
				<path class="st12" d="M192,128.51c-7.21-29.01-22.55-37.31-38.67-56.27c-21.2-24.94-22.2-59.74-22.2-59.74
					c2.29,11.07,8.57,21.3,15.94,30.5l0.02,0.03c0.15,0.55,2.66,9.6,9.69,16.28c0,0-0.33,1.25-3.45,0.92c0,0,1.57,1.35,2.98,0.95
					c0,0-0.81,1.24-1.68,1.52c0.64-0.1,2.95-0.56,3.23-1.52c0,0,3.29,2.72,1.71,11.86c0,0-1.88,5.01,4.13,3.25
					c0.11-0.03,0.21-0.03,0.33-0.06c4.85-1.07,3.22,5.07,3.22,5.07s0.31,1.28,2.87,0.93c0,0-0.05,0.29-0.02,2.24c0,0,1.61,2,3.46,1
					c0,0,2.43,2.09,3.32,4.75c0,0,2.8,5.18,7.81,2.18c0,0,0.96-0.36,0.73-0.99C193.72,111.39,192,128.51,192,128.51z"/>
			</g>
		</g>
	</g>
	<g>
		<path class="st8" d="M399.4,124.85c0-0.8,0-0.94-0.01-1.1c-0.01-0.17-0.04-0.26-0.22-0.28c-0.04-0.01-0.13-0.01-0.18-0.01
			c-0.02,0-0.04-0.02-0.04-0.04c0-0.03,0.02-0.04,0.09-0.04c0.24,0,0.6,0.01,0.63,0.01c0.05,0,0.5-0.01,0.66-0.01
			c0.34,0,0.71,0.03,0.99,0.22c0.13,0.1,0.37,0.34,0.37,0.7c0,0.38-0.16,0.75-0.65,1.17c0.43,0.54,0.8,1.01,1.11,1.33
			c0.28,0.29,0.46,0.34,0.59,0.36c0.1,0.02,0.16,0.02,0.19,0.02c0.03,0,0.05,0.02,0.05,0.04c0,0.03-0.03,0.04-0.13,0.04h-0.33
			c-0.3,0-0.44-0.03-0.57-0.1c-0.23-0.12-0.42-0.37-0.72-0.75c-0.22-0.28-0.46-0.61-0.57-0.75c-0.02-0.02-0.04-0.03-0.07-0.03
			l-0.68-0.01c-0.02,0-0.04,0.01-0.04,0.04v0.12c0,0.49,0,0.89,0.02,1.1c0.02,0.15,0.05,0.25,0.21,0.27
			c0.07,0.01,0.19,0.02,0.24,0.02c0.04,0,0.04,0.02,0.04,0.04c0,0.02-0.02,0.04-0.08,0.04c-0.29,0-0.63-0.02-0.65-0.02
			c-0.01,0-0.36,0.02-0.53,0.02c-0.05,0-0.08-0.01-0.08-0.04c0-0.02,0.01-0.04,0.04-0.04c0.05,0,0.12-0.01,0.16-0.02
			c0.1-0.02,0.11-0.12,0.14-0.27c0.03-0.21,0.03-0.62,0.03-1.11V124.85z M399.86,125.29c0,0.03,0.01,0.05,0.04,0.07
			c0.08,0.04,0.35,0.08,0.59,0.08c0.13,0,0.27-0.01,0.4-0.09c0.18-0.12,0.32-0.39,0.32-0.78c0-0.64-0.35-1.01-0.92-1.01
			c-0.16,0-0.33,0.02-0.38,0.03c-0.02,0.01-0.04,0.03-0.04,0.06V125.29z"/>
		<path class="st13" d="M404.98,125.31c0,2.46-1.99,4.45-4.45,4.45c-2.46,0-4.45-1.99-4.45-4.45s1.99-4.45,4.45-4.45
			C402.99,120.86,404.98,122.85,404.98,125.31z"/>
	</g>
</g>
</svg>
