<svg id="XMLID_468_" xmlns="http://www.w3.org/2000/svg" width="47.586" height="45.764" viewBox="0 0 47.586 45.764">
  <path id="XMLID_469_" d="M103.6,94.11c-.093-.043-3.562-1.686-4.178-1.9a2.481,2.481,0,0,0-.808-.172,1.386,1.386,0,0,0-1.168.666c-.347.5-1.4,1.675-1.72,2.027-.042.047-.1.1-.135.1s-.568-.213-.73-.281A18,18,0,0,1,87.93,88.63a.36.36,0,0,1-.058-.132,1.086,1.086,0,0,1,.2-.231c.189-.18.394-.417.592-.646.094-.109.188-.217.28-.32a3.575,3.575,0,0,0,.564-.86l.078-.15a1.5,1.5,0,0,0-.047-1.464c-.082-.158-1.547-3.558-1.7-3.915-.375-.862-.869-1.263-1.557-1.263-.064,0,0,0-.268.011a8.585,8.585,0,0,0-2.885.713,5.729,5.729,0,0,0-2.239,4.94,10.434,10.434,0,0,0,2.4,5.862c.018.023.051.07.1.137a22.38,22.38,0,0,0,9.693,8.093c3.36,1.291,4.95,1.44,5.855,1.44h0a9.507,9.507,0,0,0,.953-.054l.17-.016c1.161-.1,3.711-1.37,4.291-2.92a4.453,4.453,0,0,0,.273-3.04A2.187,2.187,0,0,0,103.6,94.11Z" transform="translate(-68.393 -67.813)" fill="#fff"/>
  <path id="XMLID_470_" d="M24.216,0C11.328,0,.843,10.008.843,22.309a21.5,21.5,0,0,0,3.2,11.282L.033,44.979a.578.578,0,0,0,.144.607.63.63,0,0,0,.441.178.637.637,0,0,0,.187-.028l12.348-3.773a24.282,24.282,0,0,0,11.063,2.653c12.886,0,23.37-10.007,23.37-22.307S37.1,0,24.216,0Zm0,39.969a19.05,19.05,0,0,1-10.187-2.921.64.64,0,0,0-.526-.069L7.317,38.869l2-5.665a.576.576,0,0,0-.087-.542A16.977,16.977,0,0,1,5.7,22.309c0-9.739,8.3-17.662,18.513-17.662S42.726,12.57,42.726,22.309,34.423,39.969,24.216,39.969Z" transform="translate(0)" fill="#fff"/>
</svg>
