<svg xmlns="http://www.w3.org/2000/svg" width="82.158" height="61.423" viewBox="0 0 82.158 61.423">
    <defs>
        <style>
            .cls-1{fill:#17a4d6}.cls-2{filter:url(#XMLID_823_)}
        </style>
        <filter id="XMLID_823_" width="82.158" height="61.423" x="0" y="0" filterUnits="userSpaceOnUse">
            <feOffset dy="3"/>
            <feGaussianBlur result="blur" stdDeviation="3"/>
            <feFlood flood-opacity=".161"/>
            <feComposite in2="blur" operator="in"/>
            <feComposite in="SourceGraphic"/>
        </filter>
    </defs>
    <g id="XMLID_822_" class="cls-2">
        <path id="XMLID_823_2" d="M61.657 49.645C59.341 47 55.065 45.917 46.9 45.917H17.258c-8.353 0-12.7 1.15-15.008 3.968C0 52.634 0 56.683 0 62.288V72.97c0 10.858 2.669 16.37 17.258 16.37H46.9c7.081 0 11.005-.953 13.544-3.289 2.6-2.4 3.714-6.308 3.714-13.081V62.288c0-5.911-.174-9.988-2.501-12.643zM41.19 69.1l-13.46 6.766a2.142 2.142 0 0 1-2.031-.062 1.976 1.976 0 0 1-1-1.7V60.617a1.975 1.975 0 0 1 1-1.7 2.141 2.141 0 0 1 2.028-.065l13.46 6.722a1.956 1.956 0 0 1 0 3.531z" class="cls-1" data-name="XMLID_823_" transform="translate(9 -39.92)"/>
    </g>
</svg>
