<svg id="XMLID_822_" xmlns="http://www.w3.org/2000/svg" width="64.158" height="43.423" viewBox="0 0 64.158 43.423">
  <path id="XMLID_823_" d="M61.657,49.645C59.341,47,55.065,45.917,46.9,45.917H17.258c-8.353,0-12.7,1.15-15.008,3.968C0,52.634,0,56.683,0,62.288V72.97C0,83.828,2.669,89.34,17.258,89.34H46.9c7.081,0,11.005-.953,13.544-3.289,2.6-2.4,3.714-6.308,3.714-13.081V62.288C64.158,56.377,63.984,52.3,61.657,49.645ZM41.19,69.1l-13.46,6.766a2.142,2.142,0,0,1-2.031-.062,1.976,1.976,0,0,1-1-1.7V60.617a1.975,1.975,0,0,1,1-1.7,2.141,2.141,0,0,1,2.028-.065l13.46,6.722a1.956,1.956,0,0,1,0,3.531Z" transform="translate(0 -45.917)" fill="#fff"/>
</svg>
